<?xml version="1.0" encoding="utf-8"?>
<!-- Generator: Adobe Illustrator 24.2.1, SVG Export Plug-In . SVG Version: 6.00 Build 0)  -->
<svg version="1.1" id="Layer_1" xmlns="http://www.w3.org/2000/svg" xmlns:xlink="http://www.w3.org/1999/xlink" x="0px" y="0px"
	 viewBox="0 0 52.9 52.9" style="enable-background:new 0 0 52.9 52.9;" xml:space="preserve">
<style type="text/css">
	.st0{fill:#FFFFFF;}
</style>
<g id="download" transform="rotate(90 26.468 26.469)">
	<path id="Path_102" class="st0" d="M47.6,26.5c0,11.7-9.5,21.2-21.2,21.2S5.3,38.2,5.3,26.5c0-11.7,9.5-21.2,21.2-21.2
		C38.2,5.3,47.6,14.8,47.6,26.5L47.6,26.5z"/>
	<path id="Path_103" class="st0" d="M26.5,52.9C11.9,52.9,0,41.1,0,26.5S11.9,0,26.5,0c14.6,0,26.5,11.8,26.5,26.5
		C52.9,41.1,41.1,52.9,26.5,52.9C26.5,52.9,26.5,52.9,26.5,52.9z M26.5,1.8C12.8,1.8,1.8,12.8,1.8,26.5s11.1,24.7,24.7,24.7
		s24.7-11.1,24.7-24.7l0,0C51.2,12.8,40.1,1.8,26.5,1.8C26.5,1.8,26.5,1.8,26.5,1.8z"/>
	<g id="Group_98" transform="translate(14.999 13.234)">
		<path id="Path_104" d="M11.5,26.5c-0.5,0-0.9-0.4-0.9-0.9V0.9C10.6,0.4,11,0,11.5,0c0.5,0,0.9,0.4,0.9,0.9v24.7
			C12.4,26.1,12,26.5,11.5,26.5C11.5,26.5,11.5,26.5,11.5,26.5z"/>
		<path id="Path_105" d="M11.5,26.5c-0.5,0-0.9-0.4-0.9-0.9c0-0.3,0.1-0.5,0.3-0.7l10.6-8.8c0.4-0.3,0.9-0.3,1.2,0.1
			c0.3,0.4,0.3,0.9-0.1,1.2L12,26.3C11.9,26.4,11.7,26.5,11.5,26.5z"/>
		<path id="Path_106" d="M11.5,26.5c-0.2,0-0.4-0.1-0.6-0.2L0.3,17.4c-0.4-0.3-0.4-0.9-0.1-1.2s0.9-0.4,1.2-0.1L12,24.9
			c0.4,0.3,0.4,0.9,0.1,1.2C12,26.4,11.7,26.5,11.5,26.5z"/>
	</g>
</g>
</svg>
