<?xml version="1.0" encoding="utf-8"?>
<!-- Generator: Adobe Illustrator 24.2.1, SVG Export Plug-In . SVG Version: 6.00 Build 0)  -->
<svg version="1.1" id="Arrow" xmlns="http://www.w3.org/2000/svg" xmlns:xlink="http://www.w3.org/1999/xlink" x="0px" y="0px"
	 viewBox="0 0 28.8 22" style="enable-background:new 0 0 28.8 22;" xml:space="preserve">
<style type="text/css">
	.st0{fill:#F6921E;}
</style>
<path id="Path_10593" class="st0" d="M0.1,10.5c0.1-0.2,0.2-0.3,0.3-0.4l9.9-9.7c0.5-0.5,1.3-0.5,1.8,0c0.5,0.5,0.5,1.2,0,1.7
	c0,0,0,0,0,0L4.3,9.8h23.2c0.7,0,1.2,0.5,1.3,1.2c0,0.7-0.5,1.2-1.2,1.3c0,0,0,0-0.1,0H4.3l7.8,7.7c0.5,0.5,0.5,1.3,0,1.7
	c0,0,0,0,0,0c-0.5,0.5-1.3,0.5-1.8,0L0.4,12C0.2,11.7,0,11.4,0,11C0,10.8,0,10.7,0.1,10.5z"/>
</svg>
