<svg xmlns="http://www.w3.org/2000/svg" width="45.904" height="45.904" viewBox="0 0 45.904 45.904">
    <defs>
        <style>
            .cls-1{fill:#fed141}.cls-2{fill:#470e68}
        </style>
    </defs>
    <g id="download" transform="rotate(90 22.952 22.952)">
        <path id="Path_102" d="M36.723 18.362A18.362 18.362 0 1 1 18.362 0a18.362 18.362 0 0 1 18.361 18.362zm0 0" class="cls-1" data-name="Path 102" transform="translate(4.59 4.59)"/>
        <path id="Path_103" d="M22.952 45.9A22.952 22.952 0 1 1 45.9 22.952 22.952 22.952 0 0 1 22.952 45.9zm0-44.374a21.422 21.422 0 1 0 21.422 21.426A21.422 21.422 0 0 0 22.952 1.53zm0 0" class="cls-1" data-name="Path 103"/>
        <g id="Group_98" data-name="Group 98" transform="translate(13.007 11.476)">
            <path id="Path_104" d="M.765 22.952A.765.765 0 0 1 0 22.187V.765a.765.765 0 0 1 1.53 0v21.422a.765.765 0 0 1-.765.765zm0 0" class="cls-2" data-name="Path 104" transform="translate(9.18)"/>
            <path id="Path_105" d="M.766 9.181a.765.765 0 0 1-.491-1.353L9.456.178a.765.765 0 1 1 .981 1.175L1.256 9a.765.765 0 0 1-.49.181zm0 0" class="cls-2" data-name="Path 105" transform="translate(9.179 13.771)"/>
            <path id="Path_106" d="M9.945 9.181A.765.765 0 0 1 9.456 9L.275 1.353A.765.765 0 1 1 1.256.178l9.181 7.651a.765.765 0 0 1-.491 1.353zm0 0" class="cls-2" data-name="Path 106" transform="translate(0 13.771)"/>
        </g>
    </g>
</svg>
