<svg xmlns="http://www.w3.org/2000/svg" width="18" height="13" viewBox="0 0 18 13">
    <g fill="none" fill-rule="evenodd">
        <g fill="#193966">
            <path d="M12.12.194C12.001.07 11.837 0 11.666 0c-.17 0-.335.07-.454.194-.245.259-.245.666 0 .924l4.601 4.725H.636c-.17 0-.333.07-.453.193s-.185.289-.183.46c-.004.36.28.657.636.663h15.177l-4.6 4.714c-.246.26-.246.67 0 .931.118.125.282.196.453.196.172 0 .336-.07.454-.196l5.69-5.843c.121-.121.19-.287.19-.46 0-.173-.069-.339-.19-.46L12.12.194z" transform="translate(-221 -25) translate(221 25)"/>
        </g>
    </g>
</svg>
