<svg xmlns="http://www.w3.org/2000/svg" width="22.402" height="22.402" viewBox="0 0 22.402 22.402">
    <defs>
        <style>
            .cls-1{fill:#fff}
        </style>
    </defs>
    <g id="download" transform="rotate(-90 11.201 11.201)">
        <path id="Path_102" d="M17.922 8.961A8.961 8.961 0 1 1 8.961 0a8.961 8.961 0 0 1 8.961 8.961zm0 0" class="cls-1" data-name="Path 102" transform="translate(2.24 2.24)"/>
        <path id="Path_103" d="M11.2 22.4a11.2 11.2 0 1 1 11.2-11.2 11.2 11.2 0 0 1-11.2 11.2zm0-21.653A10.454 10.454 0 1 0 21.656 11.2 10.455 10.455 0 0 0 11.2.747zm0 0" class="cls-1" data-name="Path 103"/>
        <g id="Group_98" data-name="Group 98" transform="translate(6.348 5.601)">
            <path id="Path_104" d="M.373 11.2A.373.373 0 0 1 0 10.828V.373a.373.373 0 0 1 .747 0v10.455a.373.373 0 0 1-.374.372zm0 0" data-name="Path 104" transform="translate(4.48)"/>
            <path id="Path_105" d="M.374 4.481a.373.373 0 0 1-.24-.66L4.615.087a.374.374 0 1 1 .478.573L.613 4.394a.373.373 0 0 1-.239.087zm0 0" data-name="Path 105" transform="translate(4.48 6.721)"/>
            <path id="Path_106" d="M4.854 4.481a.373.373 0 0 1-.239-.087L.134.66A.374.374 0 1 1 .613.087l4.48 3.733a.373.373 0 0 1-.24.66zm0 0" data-name="Path 106" transform="translate(0 6.721)"/>
        </g>
    </g>
</svg>
