<svg xmlns="http://www.w3.org/2000/svg" width="18" height="13" viewBox="0 0 18 13">
    <g fill="none" fill-rule="evenodd">
        <g fill="#E07C00">
            <g>
                <path d="M98.116 4.192c-.12-.123-.283-.192-.454-.192-.171 0-.335.07-.454.192-.245.255-.245.659 0 .914l4.6 4.672H86.635c-.17 0-.333.07-.453.19-.12.122-.185.286-.183.457-.004.356.28.648.636.654h15.171l-4.599 4.662c-.245.258-.245.663 0 .921.119.124.283.193.454.193.171 0 .335-.07.454-.193l5.687-5.778c.122-.12.19-.284.19-.455 0-.171-.068-.335-.19-.455l-5.687-5.782z" transform="translate(-106 -1128) translate(20 1124)"/>
            </g>
        </g>
    </g>
</svg>
