<svg xmlns="http://www.w3.org/2000/svg" width="28.626" height="28.626" viewBox="0 0 28.626 28.626">
    <defs>
        <style>
            .cls-1{fill:#7c7c7c}.cls-2{fill:#fff}
        </style>
    </defs>
    <g id="download" transform="rotate(-90 14.313 14.313)">
        <path id="Path_102" d="M22.9 11.451A11.45 11.45 0 1 1 11.45 0 11.45 11.45 0 0 1 22.9 11.451zm0 0" class="cls-1" data-name="Path 102" transform="translate(2.863 2.863)"/>
        <path id="Path_103" d="M14.313 28.626a14.313 14.313 0 1 1 14.313-14.313 14.313 14.313 0 0 1-14.313 14.313zm0-27.672a13.359 13.359 0 1 0 13.359 13.359A13.359 13.359 0 0 0 14.313.954zm0 0" class="cls-1" data-name="Path 103"/>
        <g id="Group_98" data-name="Group 98" transform="translate(8.111 7.157)">
            <path id="Path_104" d="M.477 14.313A.477.477 0 0 1 0 13.836V.477a.477.477 0 0 1 .954 0v13.359a.477.477 0 0 1-.477.477zm0 0" class="cls-2" data-name="Path 104" transform="translate(5.725)"/>
            <path id="Path_105" d="M.478 5.725a.477.477 0 0 1-.306-.844L5.9.111a.477.477 0 1 1 .612.733L.783 5.615a.477.477 0 0 1-.305.11zm0 0" class="cls-2" data-name="Path 105" transform="translate(5.724 8.588)"/>
            <path id="Path_106" d="M6.2 5.725a.477.477 0 0 1-.3-.11L.171.844A.477.477 0 1 1 .783.111l5.725 4.771a.477.477 0 0 1-.306.844zm0 0" class="cls-2" data-name="Path 106" transform="translate(0 8.588)"/>
        </g>
    </g>
</svg>
