<?xml version="1.0" encoding="utf-8"?>
<!-- Generator: Adobe Illustrator 24.2.1, SVG Export Plug-In . SVG Version: 6.00 Build 0)  -->
<svg version="1.1" id="Layer_1" xmlns="http://www.w3.org/2000/svg" xmlns:xlink="http://www.w3.org/1999/xlink" x="0px" y="0px"
	 viewBox="0 0 45.5 45.5" style="enable-background:new 0 0 45.5 45.5;" xml:space="preserve">
<style type="text/css">
	.st0{fill:#FFFFFF;}
	.st1{fill:#470E68;}
</style>
<g id="download" transform="matrix(0 -1 1 0 0 45.49)">
	<path id="Path_102" class="st0" d="M4.5,22.7c0-10.1,8.1-18.2,18.2-18.2c10.1,0,18.2,8.1,18.2,18.2s-8.1,18.2-18.2,18.2
		c0,0,0,0,0,0C12.7,40.9,4.5,32.8,4.5,22.7z"/>
	<path id="Path_103" class="st0" d="M22.7,0c12.6,0,22.7,10.2,22.7,22.7S35.3,45.5,22.7,45.5C10.2,45.5,0,35.3,0,22.7
		C0,10.2,10.2,0,22.7,0C22.7,0,22.7,0,22.7,0z M22.7,44C34.5,44,44,34.5,44,22.7S34.5,1.5,22.7,1.5S1.5,11,1.5,22.7c0,0,0,0,0,0
		C1.5,34.5,11,44,22.7,44C22.7,44,22.7,44,22.7,44L22.7,44z"/>
	<g id="Group_98" transform="translate(12.889 11.373)">
		<path id="Path_104" class="st1" d="M9.9,0c0.4,0,0.8,0.3,0.8,0.8c0,0,0,0,0,0V22c0,0.4-0.3,0.8-0.8,0.8c-0.4,0-0.8-0.3-0.8-0.8
			V0.8C9.1,0.3,9.4,0,9.9,0z"/>
		<path id="Path_105" class="st1" d="M9.9,0c0.4,0,0.8,0.3,0.8,0.8c0,0.2-0.1,0.4-0.3,0.6L1.2,8.9C0.9,9.2,0.5,9.2,0.2,8.9
			c-0.3-0.3-0.3-0.8,0.1-1.1c0,0,0,0,0,0l9.1-7.6C9.5,0.1,9.7,0,9.9,0z"/>
		<path id="Path_106" class="st1" d="M9.9,0c0.2,0,0.3,0.1,0.5,0.2l9.1,7.6c0.3,0.3,0.4,0.7,0.1,1.1c-0.3,0.3-0.7,0.4-1.1,0.1
			c0,0,0,0,0,0L9.4,1.3C9,1.1,9,0.6,9.3,0.3C9.4,0.1,9.6,0,9.9,0z"/>
	</g>
</g>
</svg>
