<svg xmlns="http://www.w3.org/2000/svg" xmlns:xlink="http://www.w3.org/1999/xlink" width="28" height="28" viewBox="0 0 28 28">
    <defs>
        <path id="prefix__a" d="M0 0L28 0 28 28 0 28z"/>
    </defs>
    <g fill="none" fill-rule="evenodd">
        <mask id="prefix__b" fill="#fff">
            <use xlink:href="#prefix__a"/>
        </mask>
        <path fill="#2C78B9" d="M15.092 12.903l4.922-.009.004 2.187-4.922.01.009 4.921-2.188.005-.009-4.922-4.922.009-.004-2.188 4.922-.009-.009-4.922 2.188-.004.009 4.922zm-1.07 12.91C7.509 25.824 2.2 20.534 2.188 14.021 2.175 7.509 7.465 2.2 13.978 2.188c6.513-.013 11.822 5.277 11.834 11.79.013 6.513-5.277 11.822-11.79 11.834zm9.86-21.73c-2.65-2.64-6.169-4.09-9.908-4.083-3.74.007-7.253 1.47-9.892 4.119C1.442 6.769-.007 10.287 0 14.026c.007 3.74 1.47 7.253 4.119 9.892 2.649 2.64 6.168 4.089 9.907 4.082 3.74-.007 7.253-1.47 9.892-4.119 2.64-2.65 4.089-6.168 4.082-9.907-.007-3.74-1.47-7.253-4.119-9.892z" mask="url(#prefix__b)"/>
    </g>
</svg>
