<?xml version="1.0" encoding="utf-8"?>
<!-- Generator: Adobe Illustrator 24.1.0, SVG Export Plug-In . SVG Version: 6.00 Build 0)  -->
<svg version="1.1" id="Layer_1" xmlns="http://www.w3.org/2000/svg" xmlns:xlink="http://www.w3.org/1999/xlink" x="0px" y="0px"
	 viewBox="0 0 28 28" style="enable-background:new 0 0 28 28;" xml:space="preserve">
<style type="text/css">
	.st0{filter:url(#Adobe_OpacityMaskFilter);}
	.st1{fill-rule:evenodd;clip-rule:evenodd;fill:#FFFFFF;}
	.st2{mask:url(#prefix__b_1_);fill-rule:evenodd;clip-rule:evenodd;fill:#C6C6C6;}
</style>
<g>
	<defs>
		<filter id="Adobe_OpacityMaskFilter" filterUnits="userSpaceOnUse" x="0" y="0" width="28" height="28">
			<feColorMatrix  type="matrix" values="1 0 0 0 0  0 1 0 0 0  0 0 1 0 0  0 0 0 1 0"/>
		</filter>
	</defs>
	<mask maskUnits="userSpaceOnUse" x="0" y="0" width="28" height="28" id="prefix__b_1_">
		<g class="st0">
			<path id="prefix__a_1_" class="st1" d="M0,0h28v28H0V0z"/>
		</g>
	</mask>
	<path class="st2" d="M15.1,12.9l4.9,0l0,2.2l-4.9,0l0,4.9l-2.2,0l0-4.9l-4.9,0l0-2.2l4.9,0l0-4.9l2.2,0C15.1,8,15.1,12.9,15.1,12.9
		z M14,25.8C7.5,25.8,2.2,20.5,2.2,14C2.2,7.5,7.5,2.2,14,2.2c6.5,0,11.8,5.3,11.8,11.8C25.8,20.5,20.5,25.8,14,25.8L14,25.8z
		 M23.9,4.1C21.2,1.4,17.7,0,14,0c-3.7,0-7.3,1.5-9.9,4.1C1.4,6.8,0,10.3,0,14c0,3.7,1.5,7.3,4.1,9.9C6.8,26.6,10.3,28,14,28
		c3.7,0,7.3-1.5,9.9-4.1c2.6-2.6,4.1-6.2,4.1-9.9C28,10.2,26.5,6.7,23.9,4.1L23.9,4.1z"/>
</g>
</svg>
