<svg xmlns="http://www.w3.org/2000/svg" xmlns:xlink="http://www.w3.org/1999/xlink" width="263" height="186" viewBox="0 0 263 186">
    <defs>
        <path id="prefix__a" d="M0 58.347L200.758 58.347 200.758 0 0 0z"/>
    </defs>
    <g fill="none" fill-rule="evenodd">
        <path fill="#05ABD2" d="M0 0H263V186H0z"/>
        <g transform="translate(31 64)">
            <path fill="#FEFEFE" d="M76.3 8.387c0-3.577 2.682-6.02 6.046-6.02 2.454 0 3.908 1.222 4.784 2.618l-1.752.89c-.56-.96-1.683-1.693-3.032-1.693-2.224 0-3.942 1.762-3.942 4.205s1.718 4.204 3.942 4.204c1.35 0 2.472-.715 3.032-1.692l1.752.89c-.893 1.396-2.33 2.617-4.784 2.617-3.364 0-6.046-2.443-6.046-6.02M93.897 11.004c-.42-.576-1.209-.873-2.015-.873-1.034 0-1.806.594-1.806 1.519 0 .907.772 1.5 1.806 1.5.806 0 1.594-.296 2.015-.873v-1.273zm0 2.286c-.631.715-1.613 1.116-2.734 1.116-1.384 0-2.944-.925-2.944-2.792 0-1.936 1.56-2.739 2.944-2.739 1.138 0 2.12.367 2.734 1.082V8.701c0-.977-.806-1.57-1.98-1.57-.946 0-1.77.349-2.506 1.064l-.754-1.274c.981-.925 2.208-1.36 3.558-1.36 1.875 0 3.521.784 3.521 3.053v5.583h-1.839v-.907zM102.134 7.183c-.859 0-1.77.506-2.172 1.134v3.332c.403.611 1.313 1.135 2.172 1.135 1.455 0 2.384-1.17 2.384-2.81 0-1.622-.929-2.791-2.384-2.791zM98.12 17.407V5.77h1.84V6.92c.63-.837 1.613-1.36 2.717-1.36 2.19 0 3.75 1.64 3.75 4.413 0 2.774-1.56 4.432-3.75 4.432-1.07 0-2.033-.471-2.716-1.378v4.379h-1.84z"/>
            <mask id="prefix__b" fill="#fff">
                <use xlink:href="#prefix__a"/>
            </mask>
            <path fill="#FEFEFE" d="M108.287 14.197h1.84V5.77h-1.84v8.427zm-.228-10.853c0-.628.526-1.134 1.139-1.134.63 0 1.14.506 1.14 1.134 0 .628-.51 1.135-1.14 1.135-.613 0-1.139-.507-1.139-1.135zM112.879 12.242V7.375h-1.402V5.77h1.402V3.467h1.84V5.77h1.718v1.605h-1.718v4.414c0 .576.281.995.807.995.35 0 .683-.14.822-.297l.439 1.378c-.333.314-.876.541-1.735.541-1.419 0-2.173-.768-2.173-2.164M123.271 11.004c-.42-.576-1.209-.873-2.015-.873-1.034 0-1.805.594-1.805 1.519 0 .907.77 1.5 1.805 1.5.806 0 1.595-.296 2.015-.873v-1.273zm0 2.286c-.631.715-1.611 1.116-2.733 1.116-1.385 0-2.944-.925-2.944-2.792 0-1.936 1.56-2.739 2.944-2.739 1.139 0 2.12.367 2.733 1.082V8.701c0-.977-.806-1.57-1.98-1.57-.946 0-1.77.349-2.506 1.064l-.753-1.274c.98-.925 2.208-1.36 3.557-1.36 1.875 0 3.523.784 3.523 3.053v5.583h-1.84v-.907zM127.497 14.197L129.336 14.197 129.336 2.56 127.497 2.56zM141.132 4.357h-2.805v3.698h2.805c1.155 0 1.997-.733 1.997-1.849 0-1.117-.842-1.85-1.997-1.85zm-4.855-1.798h5.134c2.454 0 3.82 1.675 3.82 3.647 0 1.971-1.384 3.646-3.82 3.646h-3.084v4.345h-2.05V2.559zM151.7 11.004c-.42-.576-1.21-.873-2.016-.873-1.034 0-1.804.594-1.804 1.519 0 .907.77 1.5 1.804 1.5.807 0 1.596-.296 2.016-.873v-1.273zm0 2.286c-.632.715-1.612 1.116-2.734 1.116-1.384 0-2.944-.925-2.944-2.792 0-1.936 1.56-2.739 2.944-2.739 1.14 0 2.121.367 2.734 1.082V8.701c0-.977-.807-1.57-1.98-1.57-.947 0-1.77.349-2.506 1.064l-.753-1.274c.98-.925 2.208-1.36 3.556-1.36 1.875 0 3.523.784 3.523 3.053v5.583h-1.84v-.907zM155.925 5.77h1.84v1.239c.63-.803 1.647-1.431 2.75-1.431v1.815c-.157-.036-.35-.053-.577-.053-.772 0-1.806.524-2.174 1.116v5.74h-1.839V5.77zM162.375 12.242V7.375h-1.402V5.77h1.402V3.467h1.839V5.77h1.717v1.605h-1.717v4.414c0 .576.281.995.806.995.351 0 .684-.14.824-.297l.438 1.378c-.332.314-.876.541-1.735.541-1.419 0-2.172-.768-2.172-2.164M173.31 8.928c0-1.309-.665-1.745-1.7-1.745-.946 0-1.752.559-2.173 1.134v5.88h-1.839V5.77h1.84V6.92c.561-.663 1.647-1.36 2.98-1.36 1.82 0 2.732.977 2.732 2.704v5.932h-1.84v-5.27zM178.919 9.294h4.767c-.035-.995-.718-2.233-2.384-2.233-1.576 0-2.295 1.204-2.383 2.233m2.383-3.734c2.542 0 4.171 1.937 4.171 4.59v.435h-6.536c.14 1.274 1.105 2.32 2.699 2.32.824 0 1.804-.33 2.4-.924l.842 1.204c-.841.802-2.085 1.221-3.435 1.221-2.541 0-4.434-1.762-4.434-4.432 0-2.442 1.787-4.414 4.293-4.414M187.298 5.77h1.839v1.239c.631-.803 1.648-1.431 2.751-1.431v1.815c-.158-.036-.35-.053-.578-.053-.772 0-1.805.524-2.173 1.116v5.74h-1.84V5.77zM193.484 11.772c.596.61 1.77 1.186 2.874 1.186s1.665-.401 1.665-1.03c0-.732-.894-.994-1.929-1.22-1.453-.315-3.188-.699-3.188-2.583 0-1.378 1.192-2.565 3.33-2.565 1.437 0 2.523.506 3.293 1.187l-.77 1.291c-.508-.576-1.455-1.012-2.507-1.012-.962 0-1.576.349-1.576.942 0 .646.84.872 1.84 1.1 1.471.313 3.277.732 3.277 2.721 0 1.483-1.244 2.617-3.523 2.617-1.436 0-2.751-.454-3.628-1.309l.842-1.325zM77.213 24.825H75.81V23.22h1.402v-.471c0-1.884 1.12-2.914 2.68-2.914.58 0 1.105.122 1.473.332l-.404 1.343c-.21-.122-.472-.174-.736-.174-.718 0-1.174.47-1.174 1.413v.471h1.717v1.605h-1.717v6.822h-1.84v-6.822zM88.447 27.425c0-1.483-.878-2.791-2.455-2.791-1.56 0-2.435 1.308-2.435 2.791 0 1.5.876 2.81 2.435 2.81 1.577 0 2.455-1.31 2.455-2.81m-6.8 0c0-2.408 1.665-4.414 4.345-4.414 2.717 0 4.365 2.006 4.365 4.414 0 2.425-1.648 4.432-4.365 4.432-2.68 0-4.345-2.007-4.345-4.432M92.216 23.22h1.84v1.24c.63-.804 1.647-1.432 2.75-1.432v1.815c-.157-.035-.35-.053-.577-.053-.772 0-1.806.524-2.174 1.117v5.74h-1.839V23.22zM102.854 20.01L110.863 20.01 110.863 21.807 104.904 21.807 104.904 24.825 110.74 24.825 110.74 26.622 104.904 26.622 104.904 29.85 110.863 29.85 110.863 31.647 102.854 31.647zM118.874 25.767c-.422-.628-1.315-1.133-2.191-1.133-1.454 0-2.384 1.168-2.384 2.808 0 1.623.93 2.792 2.384 2.792.876 0 1.77-.488 2.19-1.117v-3.35zm0 4.729c-.65.837-1.63 1.361-2.717 1.361-2.174 0-3.768-1.64-3.768-4.415 0-2.721 1.577-4.431 3.768-4.431 1.051 0 2.033.488 2.717 1.378v-4.38h1.839v11.638h-1.84v-1.151zM128.81 30.53c-.612.681-1.663 1.327-2.996 1.327-1.823 0-2.716-.943-2.716-2.67V23.22h1.84v5.304c0 1.309.666 1.71 1.7 1.71.928 0 1.735-.523 2.172-1.1V23.22h1.84v8.427h-1.84v-1.116zM136.89 23.01c1.648 0 2.646.699 3.243 1.502l-1.21 1.116c-.473-.663-1.122-.994-1.944-.994-1.542 0-2.56 1.15-2.56 2.79 0 1.641 1.018 2.81 2.56 2.81.822 0 1.471-.349 1.944-.995l1.21 1.117c-.597.803-1.595 1.5-3.242 1.5-2.577 0-4.38-1.866-4.38-4.431 0-2.547 1.803-4.414 4.38-4.414M146.915 28.454c-.42-.575-1.209-.872-2.015-.872-1.034 0-1.805.593-1.805 1.518 0 .907.77 1.5 1.805 1.5.806 0 1.595-.296 2.015-.872v-1.274zm0 2.286c-.631.716-1.611 1.117-2.733 1.117-1.385 0-2.944-.925-2.944-2.792 0-1.936 1.56-2.74 2.944-2.74 1.139 0 2.12.367 2.733 1.083V26.15c0-.977-.806-1.57-1.98-1.57-.946 0-1.77.35-2.506 1.064l-.753-1.273c.98-.925 2.208-1.361 3.557-1.361 1.875 0 3.523.785 3.523 3.053v5.583h-1.84v-.907zM151.509 29.694v-4.869h-1.402V23.22h1.402v-2.303h1.839v2.303h1.717v1.605h-1.717v4.414c0 .576.28.995.806.995.35 0 .684-.14.824-.296l.438 1.378c-.332.314-.877.54-1.735.54-1.42 0-2.172-.767-2.172-2.162M156.732 31.647h1.839V23.22h-1.84v8.427zm-.23-10.852c0-.628.527-1.134 1.14-1.134.632 0 1.14.506 1.14 1.134 0 .628-.508 1.134-1.14 1.134-.613 0-1.14-.506-1.14-1.134zM167.229 27.425c0-1.483-.876-2.791-2.453-2.791-1.56 0-2.436 1.308-2.436 2.791 0 1.5.876 2.81 2.436 2.81 1.577 0 2.453-1.31 2.453-2.81m-6.799 0c0-2.408 1.664-4.414 4.346-4.414 2.716 0 4.363 2.006 4.363 4.414 0 2.425-1.647 4.432-4.363 4.432-2.682 0-4.346-2.007-4.346-4.432M176.71 26.378c0-1.308-.665-1.744-1.7-1.744-.945 0-1.752.558-2.171 1.133v5.88h-1.84V23.22h1.84v1.152c.56-.663 1.646-1.361 2.978-1.361 1.823 0 2.734.977 2.734 2.704v5.932h-1.84v-5.27zM81.493 52.354L78.821 56.718 78.404 56.718 77.662 52.354 76.702 56.718 75.724 56.718 76.952 51.174 78.287 51.174 78.939 55.073 81.318 51.174 82.737 51.174 81.51 56.718 80.533 56.718zM86.123 54.266c0-.516-.35-.947-1.06-.947-.643 0-1.152.506-1.26 1.064h2.312c.008-.026.008-.084.008-.117m-.994-1.663c1.044 0 1.779.699 1.779 1.78 0 .216-.041.49-.074.615H83.71l-.008.14c0 .458.41.965 1.228.965.367 0 .793-.117 1.077-.333l.275.607c-.375.275-.91.44-1.42.44-1.252 0-2.036-.69-2.036-1.795 0-1.313.984-2.419 2.303-2.419M90.596 54.2c.016-.076.042-.167.042-.25 0-.407-.326-.574-.676-.574-.486 0-.885.275-1.153.54l-.618 2.802h-.877l.894-4.015h.876l-.125.548c.334-.315.794-.647 1.377-.647.752 0 1.236.381 1.236 1.014 0 .075-.025.25-.04.332l-.62 2.768h-.875l.559-2.519zM92.438 55.746l.51-2.286h-.668l.175-.757h.668l.241-1.097h.878L94 52.703h.818l-.175.757h-.818l-.46 2.07c-.008.041-.016.099-.016.157 0 .224.133.358.4.358.125 0 .267-.05.334-.108l.05.698c-.15.116-.392.183-.643.183-.651 0-1.077-.258-1.077-.815 0-.05.009-.166.025-.257M97.128 53.376c-.8 0-1.36.782-1.36 1.596 0 .657.393 1.073 1.052 1.073.802 0 1.36-.773 1.36-1.596 0-.657-.392-1.073-1.052-1.073m.026-.772c1.227 0 1.936.756 1.936 1.812 0 1.254-.96 2.401-2.295 2.401-1.228 0-1.938-.747-1.938-1.803 0-1.255.96-2.41 2.297-2.41M100.382 52.703h.877l-.133.566c.375-.416.801-.657 1.461-.657l-.192.873c-.058-.017-.2-.042-.36-.042-.417 0-.826.258-1.068.557l-.6 2.718h-.879l.894-4.015zM104.02 51.007c.284 0 .493.217.493.466 0 .39-.333.615-.61.615-.283 0-.492-.208-.492-.466 0-.39.335-.615.61-.615zm-.742 1.696h.876l-.894 4.015h-.876l.894-4.015zM107.677 54.2c.016-.076.042-.167.042-.25 0-.407-.325-.574-.676-.574-.485 0-.885.275-1.153.54l-.618 2.802h-.876l.893-4.015h.876l-.124.548c.333-.315.793-.647 1.377-.647.752 0 1.235.381 1.235 1.014 0 .075-.024.25-.04.332l-.619 2.768h-.876l.56-2.519zM112.576 53.95c-.209-.358-.627-.574-1.102-.574-.769 0-1.286.732-1.286 1.539 0 .63.4 1.03 1.01 1.03.4 0 .802-.241 1.052-.54l.326-1.455zm-3.157 3.126c.268.374.785.556 1.345.556.542 0 1.043-.257 1.236-1.121l.1-.433c-.318.39-.768.64-1.295.64-.825 0-1.528-.49-1.528-1.646 0-1.238.785-2.469 2.096-2.469.509 0 1.053.275 1.345.674l.133-.574h.876l-.851 3.808c-.309 1.438-1.227 1.837-2.096 1.837-.784 0-1.427-.175-1.887-.69l.526-.582zM116.503 55.746l.51-2.286h-.668l.176-.757h.667l.242-1.097h.877l-.242 1.097h.819l-.175.757h-.819l-.46 2.07c-.007.041-.016.099-.016.157 0 .224.133.358.4.358.125 0 .268-.05.334-.108l.05.698c-.15.116-.392.183-.642.183-.652 0-1.077-.258-1.077-.815 0-.05.008-.166.024-.257M121.194 53.376c-.802 0-1.36.782-1.36 1.596 0 .657.392 1.073 1.05 1.073.803 0 1.362-.773 1.362-1.596 0-.657-.392-1.073-1.052-1.073m.025-.772c1.227 0 1.937.756 1.937 1.812 0 1.254-.96 2.401-2.295 2.401-1.228 0-1.938-.747-1.938-1.803 0-1.255.96-2.41 2.296-2.41M129.197 51.082c1.253 0 2.037.64 2.388 1.455l-.936.333c-.266-.615-.834-.923-1.501-.923-1.11 0-2.122.972-2.122 2.352 0 .964.66 1.654 1.703 1.654.494 0 1.02-.233 1.386-.631l.744.515c-.618.731-1.478.98-2.188.98-1.512 0-2.663-.963-2.663-2.46 0-1.978 1.51-3.275 3.189-3.275M133.81 53.376c-.8 0-1.36.782-1.36 1.596 0 .657.393 1.073 1.052 1.073.802 0 1.361-.773 1.361-1.596 0-.657-.392-1.073-1.052-1.073m.025-.772c1.227 0 1.936.756 1.936 1.812 0 1.254-.96 2.401-2.295 2.401-1.228 0-1.937-.747-1.937-1.803 0-1.255.96-2.41 2.296-2.41M137.399 51.174L138.275 51.174 137.048 56.718 136.171 56.718zM139.41 51.174L140.286 51.174 139.06 56.718 138.182 56.718zM143.65 54.266c0-.516-.35-.947-1.06-.947-.643 0-1.151.506-1.26 1.064h2.312c.008-.026.008-.084.008-.117m-.993-1.663c1.044 0 1.778.699 1.778 1.78 0 .216-.04.49-.074.615h-3.123l-.009.14c0 .458.41.965 1.228.965.368 0 .793-.117 1.077-.333l.276.607c-.376.275-.91.44-1.42.44-1.253 0-2.037-.69-2.037-1.795 0-1.313.984-2.419 2.304-2.419M148.29 53.95c-.209-.358-.626-.574-1.102-.574-.768 0-1.286.732-1.286 1.539 0 .63.4 1.03 1.01 1.03.402 0 .801-.241 1.052-.54l.326-1.455zm-3.156 3.126c.267.374.785.556 1.344.556.543 0 1.044-.257 1.235-1.121l.102-.433c-.319.39-.77.64-1.295.64-.826 0-1.528-.49-1.528-1.646 0-1.238.785-2.469 2.096-2.469.51 0 1.051.275 1.343.674l.134-.574h.877l-.851 3.808c-.31 1.438-1.228 1.837-2.096 1.837-.785 0-1.428-.175-1.887-.69l.526-.582zM153.138 54.266c0-.516-.35-.947-1.06-.947-.643 0-1.153.506-1.261 1.064h2.312c.009-.026.009-.084.009-.117m-.994-1.663c1.044 0 1.779.699 1.779 1.78 0 .216-.043.49-.076.615h-3.122l-.009.14c0 .458.409.965 1.227.965.368 0 .793-.117 1.077-.333l.276.607c-.375.275-.91.44-1.42.44-1.252 0-2.036-.69-2.036-1.795 0-1.313.985-2.419 2.304-2.419M158.536 56.045c.426 0 .818-.25 1.051-.565l.35-1.555c-.183-.307-.567-.549-1.06-.549-.792 0-1.336.774-1.336 1.613 0 .649.41 1.056.995 1.056zm1.67-3.342h.876l-.894 4.015h-.876l.116-.532c-.333.407-.75.631-1.26.631-.918 0-1.545-.597-1.545-1.653 0-1.256.776-2.56 2.122-2.56.576 0 1.068.257 1.335.673l.126-.574zM164.602 54.2c.017-.076.042-.167.042-.25 0-.407-.326-.574-.677-.574-.483 0-.884.275-1.15.54l-.619 2.802h-.877l.893-4.015h.878l-.126.548c.334-.315.793-.647 1.379-.647.751 0 1.235.381 1.235 1.014 0 .075-.025.25-.042.332l-.619 2.768h-.876l.56-2.519zM168.115 56.045c.426 0 .819-.25 1.053-.565l.35-1.555c-.184-.307-.568-.549-1.061-.549-.792 0-1.335.774-1.335 1.613 0 .649.408 1.056.993 1.056zm2.013-4.87h.876l-1.235 5.543h-.878l.118-.532c-.335.407-.752.631-1.262.631-.918 0-1.543-.597-1.543-1.653 0-1.256.776-2.56 2.12-2.56.576 0 1.069.257 1.336.673l.468-2.103zM176.544 51.082c1.253 0 2.038.64 2.388 1.455l-.935.333c-.268-.615-.836-.923-1.504-.923-1.11 0-2.12.972-2.12 2.352 0 .964.66 1.654 1.704 1.654.492 0 1.018-.233 1.385-.631l.743.515c-.618.731-1.477.98-2.187.98-1.511 0-2.664-.963-2.664-2.46 0-1.978 1.512-3.275 3.19-3.275M180.799 56.045c.426 0 .818-.25 1.052-.565l.35-1.555c-.183-.307-.567-.549-1.06-.549-.793 0-1.336.774-1.336 1.613 0 .649.409 1.056.994 1.056zm1.67-3.342h.877l-.894 4.015h-.877l.117-.532c-.334.407-.751.631-1.261.631-.918 0-1.544-.597-1.544-1.653 0-1.256.776-2.56 2.12-2.56.577 0 1.069.257 1.337.673l.124-.574zM184.478 52.703h.876l-.133.566c.375-.416.802-.657 1.461-.657l-.192.873c-.058-.017-.2-.042-.36-.042-.417 0-.825.258-1.068.557l-.601 2.718h-.876l.893-4.015zM189.936 54.266c0-.516-.35-.947-1.06-.947-.643 0-1.151.506-1.26 1.064h2.313c.007-.026.007-.084.007-.117m-.993-1.663c1.044 0 1.778.699 1.778 1.78 0 .216-.04.49-.074.615h-3.123l-.01.14c0 .458.41.965 1.229.965.368 0 .793-.117 1.077-.333l.275.607c-.375.275-.909.44-1.42.44-1.251 0-2.036-.69-2.036-1.795 0-1.313.985-2.419 2.304-2.419M194.584 54.266c0-.516-.35-.947-1.06-.947-.643 0-1.152.506-1.26 1.064h2.312c.008-.026.008-.084.008-.117m-.993-1.663c1.044 0 1.778.699 1.778 1.78 0 .216-.042.49-.075.615h-3.122l-.01.14c0 .458.41.965 1.227.965.368 0 .794-.117 1.078-.333l.275.607c-.375.275-.91.44-1.419.44-1.253 0-2.036-.69-2.036-1.795 0-1.313.985-2.419 2.304-2.419M196.668 52.703h.878l-.134.566c.376-.416.801-.657 1.461-.657l-.192.873c-.058-.017-.2-.042-.36-.042-.416 0-.826.258-1.068.557l-.6 2.718h-.878l.893-4.015zM23.86 24.83c.006.93-.004 5.449-.008 7.056.336.025.68.049 1.03.071-.012-1.861-.042-6.663-.042-7.219 0-.692-.986-.762-.98.093M45.848 22.596c-.194 0-.482.003-.93.01.14.017.284.027.43.027.17 0 .337-.012.5-.037" mask="url(#prefix__b)"/>
            <path fill="#FEFEFE" d="M45.348 15.866c1.877 0 3.4 1.515 3.4 3.384 0 1.7-1.26 3.106-2.9 3.346-.163.025-.33.037-.5.037-.145 0-.29-.01-.43-.028-1.674-.21-2.968-1.632-2.968-3.355 0-1.869 1.521-3.384 3.398-3.384zm-14.761 1.43c-2.4 0-4.345-1.936-4.345-4.325 0-2.389 1.945-4.326 4.345-4.326 2.399 0 4.344 1.937 4.344 4.326 0 2.389-1.945 4.325-4.344 4.325zM67.909 8.42L32.513 0 0 14.465l8.082 2.093-4.718 18.557 4.718 1.052 2.44-19.14 3.966 1.056 1.255 12.847s1.856.34 4.847.66v-9.783s.186-3.815 4.624-3.722h5.648c4.303 0 5.759 1.709 6.29 2.825.072.15 1.288 3.198 2.846 4.832-.02.138-.022.223-.022.229v3.33c-2.949-.398-4.448-3.986-4.594-4.18 0 0-.737-1.232-.731.036l.075 6.904c1.723-.082 3.485-.224 5.25-.444l.35-.044.35-.048v-5.547c.003-.107.1-2.597 3.325-2.659 1.945-.037 2.093-.025 2.25-.012.16.013.324.026 1.624.012h.042c.706 0 1.27.201 1.674.597.718.704.732 1.812.732 1.822v3.471c.118-.043.235-.088.351-.132.117-.045.234-.091.35-.138 1.805-.715 3.515-1.579 5.08-2.614L54.937 14l12.972-5.581zM2.815 43.194L200.758 43.194 200.758 40.979 2.815 40.979z" mask="url(#prefix__b)"/>
        </g>
    </g>
</svg>
