<svg xmlns="http://www.w3.org/2000/svg" width="17" height="16" viewBox="0 0 17 16">
    <g fill="none" fill-rule="evenodd">
        <g fill="#000" fill-rule="nonzero" stroke="#000" stroke-width=".5">
            <g>
                <path d="M0 4.54v2.007c0 .632.461 1.175 1.096 1.29v6.33c0 .97.801 1.754 1.79 1.754h11.126c.988 0 1.79-.785 1.79-1.753v-6.33c.634-.116 1.094-.659 1.095-1.291V4.539c0-.726-.6-1.315-1.342-1.315h-2.103c.45-.626.504-1.444.144-2.122C13.236.423 12.519-.001 11.739 0c-1.76 0-2.776 1.398-3.29 2.442C7.934 1.398 6.919 0 5.159 0 4.377-.001 3.661.423 3.3 1.102c-.36.678-.305 1.496.144 2.122H1.342c-.356 0-.697.139-.949.385C.141 3.856 0 4.19 0 4.54zm.895 2.007V4.539c0-.242.2-.438.447-.438h6.66v2.884h-6.66c-.247 0-.447-.196-.447-.438zm1.99 8.497c-.494 0-.894-.392-.894-.876V7.862H8v7.182H2.886zm11.127 0H8.896V7.862h6.01v6.306c0 .484-.4.876-.894.876zm1.99-10.507v2.008c0 .242-.2.438-.447.438h-6.66V4.101h6.66c.247 0 .447.196.447.438v-.002zM11.74.877c.661 0 1.198.525 1.198 1.173 0 .649-.537 1.174-1.198 1.174H9.075c.342-.842 1.163-2.347 2.664-2.347zM3.96 2.043c0-.648.536-1.174 1.197-1.175 1.49 0 2.318 1.508 2.662 2.347H5.158c-.66 0-1.195-.525-1.197-1.172z" transform="translate(-326 -6549) translate(189 6533) translate(137 16)"/>
            </g>
        </g>
    </g>
</svg>
