<svg xmlns="http://www.w3.org/2000/svg" width="16" height="14" viewBox="0 0 16 14">
    <g fill="none" fill-rule="evenodd">
        <g fill="#193966">
            <path d="M9.883 12.35C9.278 12.877 8.656 13.419 8 14c-.656-.582-1.278-1.124-1.883-1.65C2.433 9.146 0 7.03 0 4.247c0-1.15.375-2.219 1.057-3.009C1.747.44 2.704 0 3.752 0c1.456 0 2.397.916 2.93 1.684.479.689.728 1.383.813 1.65.071.223.275.374.505.374.23 0 .434-.151.505-.374.085-.267.334-.961.813-1.65C9.85.916 10.792 0 12.248 0c1.048 0 2.005.44 2.695 1.238.682.79 1.057 1.858 1.057 3.009 0 2.782-2.433 4.9-6.117 8.104" transform="translate(-138 -24) translate(138 24)"/>
        </g>
    </g>
</svg>
