<svg xmlns="http://www.w3.org/2000/svg" width="17" height="15" viewBox="0 0 17 15">
    <g fill="none" fill-rule="evenodd">
        <g fill="#FFF">
            <path d="M9.815 12.09c-.6.514-1.218 1.044-1.87 1.614-.651-.57-1.27-1.1-1.87-1.615C2.417 8.953 0 6.881 0 4.157 0 3.03.373 1.985 1.05 1.212 1.735.431 2.685 0 3.727 0c1.446 0 2.38.896 2.91 1.648.475.674.722 1.354.807 1.615.07.219.273.366.501.366.229 0 .431-.147.502-.366.084-.26.332-.94.807-1.615C9.784.896 10.718 0 12.164 0c1.041 0 1.992.43 2.677 1.212.677.773 1.05 1.819 1.05 2.945 0 2.724-2.417 4.796-6.076 7.933" transform="translate(-173 -15) translate(173.519 15.061)"/>
        </g>
    </g>
</svg>
