<svg xmlns="http://www.w3.org/2000/svg" width="19" height="16" viewBox="0 0 19 16">
    <g fill="none" fill-rule="evenodd">
        <g fill="#FFF">
            <path d="M10.87 13.15c-.6.516-1.218 1.045-1.87 1.615-.652-.57-1.27-1.1-1.87-1.614-3.658-3.137-6.075-5.21-6.075-7.933 0-1.126.373-2.172 1.05-2.945.684-.781 1.635-1.212 2.676-1.212 1.446 0 2.38.896 2.91 1.648.475.675.723 1.354.808 1.615.07.219.273.367.501.367.228 0 .43-.148.501-.367.085-.26.333-.94.808-1.615.53-.752 1.464-1.648 2.91-1.648 1.041 0 1.992.43 2.676 1.212.677.773 1.05 1.82 1.05 2.945 0 2.724-2.417 4.796-6.075 7.933M13.22 0c-1.897 0-3.098 1.14-3.77 2.096-.176.248-.324.497-.449.73-.125-.233-.273-.482-.448-.73C7.879 1.14 6.678 0 4.782 0c-1.35 0-2.58.558-3.469 1.572C.466 2.539 0 3.834 0 5.218c0 1.507.585 2.909 1.84 4.41 1.122 1.344 2.737 2.728 4.606 4.33.696.598 1.417 1.215 2.184 1.89l.023.02c.1.088.223.132.347.132.124 0 .248-.044.347-.131l.023-.02c.767-.676 1.488-1.293 2.184-1.89 1.87-1.603 3.484-2.987 4.606-4.33C17.415 8.127 18 6.725 18 5.218c0-1.384-.466-2.68-1.313-3.646C15.799.558 14.567 0 13.219 0" transform="translate(-172 -14) translate(172.464 14)"/>
        </g>
    </g>
</svg>
