<?xml version="1.0" encoding="utf-8"?>
<!-- Generator: Adobe Illustrator 24.1.0, SVG Export Plug-In . SVG Version: 6.00 Build 0)  -->
<svg version="1.1" id="Layer_1" xmlns="http://www.w3.org/2000/svg" xmlns:xlink="http://www.w3.org/1999/xlink" x="0px" y="0px"
	 viewBox="0 0 13 13" style="enable-background:new 0 0 13 13;" xml:space="preserve">
<style type="text/css">
	.st0{fill-rule:evenodd;clip-rule:evenodd;fill:#788BD8;}
</style>
<path class="st0" d="M12.7,12.7c-0.4,0.4-0.9,0.4-1.3,0c0,0,0,0,0,0L8.7,10c-2.2,1.5-5.2,1.4-7.1-0.6c-2.1-2.2-2.1-5.7,0.1-7.8
	c2.2-2.1,5.6-2.1,7.8,0c1.9,1.9,2.1,5,0.6,7.1l2.7,2.7C13.1,11.8,13.1,12.4,12.7,12.7C12.7,12.7,12.7,12.7,12.7,12.7L12.7,12.7z
	 M8.2,2.9c-1.4-1.4-3.8-1.4-5.2,0c0,0,0,0,0,0c-1.4,1.4-1.4,3.8,0,5.2s3.8,1.4,5.2,0C9.6,6.7,9.6,4.4,8.2,2.9z"/>
</svg>
