<svg xmlns="http://www.w3.org/2000/svg" width="16.756" height="18.542" viewBox="0 0 16.756 18.542">
    <path id="prefix__Item_bullet_1" d="M307.531 214.406a6.786 6.786 0 0 1 3.2-2.642c1.247-.549 2.737-1.36 3.983-1.909 1.236-.8 1.646-3.6.573-5.335-1.264.044-.732.785-.706 1.544a4.7 4.7 0 0 1 .568 1.75 5.251 5.251 0 0 1-1.6-2.475 1.6 1.6 0 0 1 1.21-1.559c.751-.28 1.02.217 1.29.714.55 1.246.333 2.265.63 3.521 1.245-.549 1.717-1.579 2.439-2.616a2.136 2.136 0 0 1-.568-1.751 3.552 3.552 0 0 0-.628-3.521.926.926 0 0 0-.976 1.046c.045 1.264.594 2.509.638 3.774.008.253.017.5-.235.514a18.656 18.656 0 0 1-1.135-3.5c-.27-.5-.027-.759-.045-1.264.228-.766.706-1.543 1.465-1.569s1.037.723 1.308 1.219.3 1.256.566 1.752c.741-.533.759-.026 1.029.47a4.336 4.336 0 0 0 1.1-4.846c-1.246.55-1.455 1.822-1.924 2.851a3.29 3.29 0 0 1 1.149-3.33 1.059 1.059 0 0 1 1.541.706c.56 1.5.1 2.779-.11 4.052a1.917 1.917 0 0 0-.47 1.029c.017.505.523.488.775.478a1.9 1.9 0 0 1 1.326 1.725 2.565 2.565 0 0 1-.95 1.806c-.741.531-2 .575-2.735 1.36.513.234.523.488.784.73.541.995.315 1.761-.7 1.8a5.189 5.189 0 0 1-2.78.1c-.253.01-.777-.478-1.021-.217s.019.506.027.758c-.2 1.526-1.193 2.067-2.483 1.353-1.8-.95-2.562-.924-4.286.4a19.126 19.126 0 0 0-2.2 2.354c-.776-.48-.28-.75-.044-1.264zm8.251-2.819a1.909 1.909 0 0 0-2.031-.181c.523.488.794.985 1.308 1.219.5-.271.74-.532.723-1.038zm5-1.692c-1.09-2.238-2.833-1.419-4.053-.111 2.057.94 2.563.922 4.053.111zm1.9-3.609a.925.925 0 0 0 .461-1.281c-.018-.505-.532-.741-1.038-.723a1.565 1.565 0 0 0-1.751.568c-.217 1.019-.958 1.551-1.428 2.579 1.507-.305 2.77-.35 3.756-1.143z" data-name="Item bullet 1" transform="translate(-307.156 -197.128)" style="fill:#ecfc8c"/>
</svg>
