<svg xmlns="http://www.w3.org/2000/svg" id="mail_1_" width="15.664" height="11.932" data-name="mail (1)" viewBox="0 0 15.664 11.932">
    <g id="Group_1053" data-name="Group 1053">
        <path id="Path_10357" fill="#fff" d="M14.288 61H1.377A1.379 1.379 0 0 0 0 62.377v9.178a1.379 1.379 0 0 0 1.377 1.377h12.911a1.379 1.379 0 0 0 1.377-1.377v-9.178A1.379 1.379 0 0 0 14.288 61zm-.19.918l-6.237 6.236-6.29-6.236zM.918 71.365v-8.8l4.42 4.382zm.649.649l4.423-4.423 1.55 1.537a.459.459 0 0 0 .648 0L9.7 67.615l4.4 4.4zm13.18-.649l-4.4-4.4 4.4-4.4z" data-name="Path 10357" transform="translate(0 -61)"/>
    </g>
</svg>
