<svg xmlns="http://www.w3.org/2000/svg" id="pin_2_" width="11.932" height="15.665" data-name="pin (2)" viewBox="0 0 11.932 15.665">
    <defs>
        <style>
            .cls-1{fill:#fff}
        </style>
    </defs>
    <g id="Group_1040" data-name="Group 1040">
        <g id="Group_1039" data-name="Group 1039">
            <path id="Path_10350" d="M66.966 0A5.973 5.973 0 0 0 61 5.966c0 2.124.646 2.975 3.75 7.068.539.71 1.15 1.516 1.848 2.447a.459.459 0 0 0 .734 0c.695-.927 1.3-1.729 1.839-2.436 3.112-4.1 3.759-4.958 3.759-7.078A5.973 5.973 0 0 0 66.966 0zm1.475 12.49c-.441.581-.93 1.226-1.475 1.952-.549-.73-1.041-1.378-1.484-1.963-3.02-3.981-3.564-4.7-3.564-6.513a5.048 5.048 0 1 1 10.1 0c-.004 1.811-.55 2.534-3.577 6.524z" class="cls-1" data-name="Path 10350" transform="translate(-61)"/>
        </g>
    </g>
    <g id="Group_1042" data-name="Group 1042" transform="translate(2.753 2.753)">
        <g id="Group_1041" data-name="Group 1041">
            <path id="Path_10351" d="M154.212 90a3.212 3.212 0 1 0 3.212 3.212A3.216 3.216 0 0 0 154.212 90zm0 5.507a2.295 2.295 0 1 1 2.295-2.295 2.3 2.3 0 0 1-2.295 2.295z" class="cls-1" data-name="Path 10351" transform="translate(-151 -90)"/>
        </g>
    </g>
</svg>
