<svg xmlns="http://www.w3.org/2000/svg" xmlns:xlink="http://www.w3.org/1999/xlink" width="11" height="17" viewBox="0 0 11 17">
    <defs>
        <path id="tyj5egs63a" d="M2.925 0c.445 0 .854.253 1.042.644l1.21 2.516c.23.48.063 1.059-.39 1.35l-1.215.836c.002.26.12 1.187 1.306 3.657 1.18 2.455 1.843 3.147 2.05 3.32l1.437-.368c.103-.03.208-.044.315-.044.428 0 .821.243 1.002.62l1.21 2.516c.14.293.144.63.01.925-.135.295-.395.519-.712.614l-.82.246c-.317.112-.646.168-.979.168-1.207 0-2.469-.725-3.75-2.156-1.006-1.122-2.02-2.698-2.857-4.438C.817 8.395.2 6.41.042 4.819c-.094-.947-.03-1.769.19-2.446.251-.769.704-1.354 1.346-1.74L2.302.18C2.488.062 2.704 0 2.925 0z"/>
    </defs>
    <g fill="none" fill-rule="evenodd">
        <g>
            <g transform="translate(-8 -7807) translate(8 7807)">
                <mask id="21whfrticb" fill="#fff">
                    <use xlink:href="#tyj5egs63a"/>
                </mask>
                <path fill="#FFF" d="M-5 -5L16 -5 16 22 -5 22z" mask="url(#21whfrticb)"/>
            </g>
        </g>
    </g>
</svg>
