<svg xmlns="http://www.w3.org/2000/svg" width="11" height="11" viewBox="0 0 11 11">
    <g fill="none" fill-rule="evenodd">
        <g fill="#5A403E">
            <path d="M2.93 4.068c.976 2.153 1.83 3.046 4.028 4.021.366-.366.732-.772 1.098-1.137.977.365 1.953.69 2.89 1.056.121.609.04 1.015-.245 1.584-.488.974-1.628 1.543-2.726 1.38C4.15 10.322.692 6.871.04 3.053-.163 1.957.407.82 1.424.291c.57-.243.977-.365 1.587-.243.326.974.692 1.95 1.017 2.924L2.93 4.068z" transform="translate(-10 -6767) translate(10 6767)"/>
        </g>
    </g>
</svg>
