<svg width="50" height="50" viewBox="0 0 50 50" fill="none" xmlns="http://www.w3.org/2000/svg">
<circle cx="25" cy="25" r="25" fill="white"/>
<path d="M21 18L21.2774 17.584C21.1239 17.4817 20.9266 17.4722 20.7641 17.5592C20.6015 17.6462 20.5 17.8156 20.5 18H21ZM21 32H20.5C20.5 32.1805 20.5973 32.347 20.7546 32.4356C20.9119 32.5242 21.1048 32.5212 21.2592 32.4276L21 32ZM32 25.3333L32.2592 25.7609C32.4054 25.6723 32.4962 25.5151 32.4999 25.3441C32.5036 25.1732 32.4196 25.0122 32.2774 24.9173L32 25.3333ZM20.5 18V32H21.5V18H20.5ZM21.2592 32.4276L32.2592 25.7609L31.7408 24.9057L20.7408 31.5724L21.2592 32.4276ZM32.2774 24.9173L21.2774 17.584L20.7226 18.416L31.7227 25.7494L32.2774 24.9173Z" fill="#16254B"/>
</svg>
