<svg width="50" height="51" viewBox="0 0 50 51" fill="none" xmlns="http://www.w3.org/2000/svg">
<circle cx="25" cy="25.9512" r="25" fill="white"/>
<path d="M21 32.9512V18.9512L32 26.2845L21 32.9512Z" fill="#16254B"/>
<path d="M21 18.9512L21.2774 18.5351C21.1239 18.4329 20.9266 18.4233 20.7641 18.5103C20.6015 18.5973 20.5 18.7668 20.5 18.9512H21ZM21 32.9512H20.5C20.5 33.1317 20.5973 33.2982 20.7546 33.3868C20.9119 33.4754 21.1048 33.4723 21.2592 33.3788L21 32.9512ZM32 26.2845L32.2592 26.7121C32.4054 26.6235 32.4962 26.4663 32.4999 26.2953C32.5036 26.1243 32.4196 25.9633 32.2774 25.8685L32 26.2845ZM20.5 18.9512V32.9512H21.5V18.9512H20.5ZM21.2592 33.3788L32.2592 26.7121L31.7408 25.8569L20.7408 32.5236L21.2592 33.3788ZM32.2774 25.8685L21.2774 18.5351L20.7226 19.3672L31.7226 26.7005L32.2774 25.8685Z" fill="#16254B"/>
</svg>
