<svg xmlns="http://www.w3.org/2000/svg" width="85.266" height="66.776" viewBox="0 0 85.266 66.776">
    <path id="prefix__simbol_" d="M46.317 130.2a3.95 3.95 0 0 1 5.52.822q2.466 2.7-.117 5.285-11.51 11.275-13.154 20.67-.7 3.993 2.349 3.993a11.893 11.893 0 0 1 9.513 4.7q3.876 4.7 3.876 11.979 0 8.221-4.815 13.389a16.383 16.383 0 0 1-12.567 5.168 17 17 0 0 1-13.036-5.755Q18.6 184.7 18.6 175.066q0-26.543 27.717-44.866zm49.562 0a3.95 3.95 0 0 1 5.52.822q2.466 2.7-.117 5.285-11.51 11.275-13.154 20.67-.7 3.993 2.349 3.993a11.893 11.893 0 0 1 9.513 4.7q3.876 4.7 3.876 11.979 0 8.221-4.815 13.389a16.383 16.383 0 0 1-12.567 5.168 17 17 0 0 1-13.036-5.755q-5.285-5.755-5.285-15.385-.001-26.543 27.716-44.866z" data-name="simbol" transform="translate(-18.6 -129.431)" style="fill:#075a6c"/>
</svg>
