<svg xmlns="http://www.w3.org/2000/svg" width="72" height="58.419" viewBox="0 0 72 58.419">
    <defs>
        <style>
            .cls-1{fill:#fff}
        </style>
    </defs>
    <path id="Path_40" d="M92.1-292.15q-9.916 7.545-14.12 14.335a27.907 27.907 0 0 0-4.2 14.982 12.087 12.087 0 0 1 6.467-1.725 10.568 10.568 0 0 1 8.084 3.341 11.969 11.969 0 0 1 3.126 8.515 12.292 12.292 0 0 1-3.988 9.485q-3.988 3.665-10.671 3.665-15.305 0-15.305-20.263a37.173 37.173 0 0 1 1.293-10.024 32.171 32.171 0 0 1 4.2-9.054 51.2 51.2 0 0 1 7.868-9.054 136.9 136.9 0 0 1 12.292-10.023zm-41.389 0Q40.8-284.6 36.6-277.814a27.907 27.907 0 0 0-4.2 14.982 12.087 12.087 0 0 1 6.467-1.725 10.568 10.568 0 0 1 8.084 3.341 11.969 11.969 0 0 1 3.126 8.515 12.292 12.292 0 0 1-3.988 9.485q-3.988 3.665-10.671 3.665-15.305 0-15.305-20.263a37.173 37.173 0 0 1 1.287-10.024 32.171 32.171 0 0 1 4.2-9.054 51.2 51.2 0 0 1 7.868-9.054 136.9 136.9 0 0 1 12.289-10.024z" class="cls-1" data-name="Path 40" transform="translate(-20.104 297.97)"/>
</svg>
