<?xml version="1.0" encoding="utf-8"?>
<!-- Generator: Adobe Illustrator 16.0.0, SVG Export Plug-In . SVG Version: 6.00 Build 0)  -->
<!DOCTYPE svg PUBLIC "-//W3C//DTD SVG 1.1//EN" "http://www.w3.org/Graphics/SVG/1.1/DTD/svg11.dtd">
<svg version="1.1" id="Layer_1" xmlns="http://www.w3.org/2000/svg" xmlns:xlink="http://www.w3.org/1999/xlink" x="0px" y="0px"
	 width="48px" height="41px" viewBox="0 0 48 41" enable-background="new 0 0 48 41" xml:space="preserve">
<path fill="#FFA600" d="M2.447,41C0.816,33.934,0,27.8,0,22.6C0,15.133,1.767,9.5,5.3,5.7C8.833,1.9,14,0,20.796,0v8
	c-3.534,0-6.082,0.933-7.646,2.8c-1.564,1.867-2.344,4.667-2.344,8.4v4.6H21V41H2.447z M29.447,41C27.816,33.934,27,27.8,27,22.6
	c0-7.467,1.768-13.1,5.3-16.899C35.833,1.9,41,0,47.796,0v8c-3.534,0-6.082,0.933-7.646,2.8c-1.564,1.867-2.344,4.667-2.344,8.4v4.6
	H48V41H29.447z"/>
</svg>
