<svg xmlns="http://www.w3.org/2000/svg" width="21.263" height="17.252" viewBox="0 0 21.263 17.252">
    <defs>
        <style>
            .cls-1{fill:#900}
        </style>
    </defs>
    <path id="Path_40" d="M41.367-296.251a16.8 16.8 0 0 0-4.17 4.233 8.241 8.241 0 0 0-1.241 4.424 3.569 3.569 0 0 1 1.91-.509 3.121 3.121 0 0 1 2.387.987 3.535 3.535 0 0 1 .923 2.515A3.63 3.63 0 0 1 40-281.8a4.475 4.475 0 0 1-3.151 1.082q-4.52 0-4.52-5.984a10.977 10.977 0 0 1 .382-2.96 9.5 9.5 0 0 1 1.241-2.674 15.121 15.121 0 0 1 2.324-2.674 40.427 40.427 0 0 1 3.629-2.96zm-12.223 0a16.8 16.8 0 0 0-4.17 4.233 8.241 8.241 0 0 0-1.241 4.424 3.569 3.569 0 0 1 1.91-.509 3.121 3.121 0 0 1 2.387.987 3.535 3.535 0 0 1 .923 2.515 3.63 3.63 0 0 1-1.178 2.8 4.475 4.475 0 0 1-3.151 1.082q-4.52 0-4.52-5.984a10.977 10.977 0 0 1 .382-2.96 9.5 9.5 0 0 1 1.241-2.674 15.121 15.121 0 0 1 2.324-2.674 40.425 40.425 0 0 1 3.629-2.96z" class="cls-1" data-name="Path 40" transform="translate(-20.104 297.97)"/>
</svg>
