<svg width="23" height="22" viewBox="0 0 23 22" fill="none" xmlns="http://www.w3.org/2000/svg">
<path d="M14.8435 1C13.9064 1 12.9903 1.2813 12.2112 1.80832C11.432 2.33534 10.8247 3.08442 10.4661 3.96082C10.1075 4.83723 10.0137 5.8016 10.1965 6.73198C10.3793 7.66237 10.8306 8.51699 11.4932 9.18776C12.1558 9.85853 13.0001 10.3153 13.9191 10.5004C14.8382 10.6855 15.7909 10.5905 16.6566 10.2275C17.5224 9.86444 18.2624 9.24969 18.783 8.46094C19.3036 7.6722 19.5815 6.74489 19.5815 5.79628C19.5815 4.52423 19.0823 3.30427 18.1937 2.4048C17.3052 1.50532 16.1001 1 14.8435 1ZM16.6467 3.4447C16.8365 3.33346 17.0546 3.28171 17.2735 3.29601C17.4924 3.31031 17.7022 3.39 17.8763 3.52502C18.0504 3.66004 18.181 3.84431 18.2517 4.05452C18.3223 4.26472 18.3297 4.4914 18.2731 4.70589C18.2164 4.92038 18.0981 5.11303 17.9333 5.25947C17.7684 5.4059 17.5643 5.49955 17.3469 5.52854C17.1294 5.55753 16.9084 5.52058 16.7117 5.42235C16.515 5.32412 16.3515 5.16904 16.2419 4.97672C16.0963 4.71889 16.0572 4.41331 16.133 4.12643C16.2088 3.83955 16.3934 3.59455 16.6467 3.4447ZM13.0357 8.14319C12.8459 8.25444 12.6277 8.30619 12.4088 8.29189C12.19 8.27759 11.9802 8.19789 11.8061 8.06287C11.6319 7.92785 11.5013 7.74359 11.4307 7.53338C11.36 7.32318 11.3526 7.0965 11.4093 6.88201C11.4659 6.66752 11.5842 6.47486 11.7491 6.32843C11.9139 6.18199 12.118 6.08835 12.3354 6.05935C12.5529 6.03036 12.774 6.06732 12.9707 6.16554C13.1674 6.26377 13.3309 6.41886 13.4405 6.61118C13.5138 6.73855 13.5614 6.87933 13.5808 7.02544C13.6001 7.17154 13.5906 7.32006 13.553 7.46246C13.5154 7.60486 13.4503 7.73832 13.3615 7.85514C13.2727 7.97197 13.162 8.06987 13.0357 8.14319ZM13.4405 4.97672C13.3307 5.16744 13.1677 5.32098 12.9718 5.41801C12.776 5.51503 12.5562 5.55119 12.3401 5.52191C12.124 5.49263 11.9213 5.39924 11.7575 5.2535C11.5938 5.10776 11.4763 4.9162 11.42 4.70299C11.3637 4.48977 11.371 4.26444 11.441 4.05541C11.511 3.84638 11.6405 3.66302 11.8133 3.52843C11.9861 3.39385 12.1944 3.31408 12.412 3.29918C12.6295 3.28428 12.8465 3.33492 13.0357 3.4447C13.162 3.51803 13.2727 3.61592 13.3615 3.73275C13.4503 3.84958 13.5154 3.98304 13.553 4.12543C13.5906 4.26783 13.6001 4.41636 13.5808 4.56246C13.5614 4.70856 13.5138 4.84935 13.4405 4.97672ZM14.8435 9.67055C14.6238 9.67147 14.4089 9.60632 14.2258 9.48336C14.0428 9.3604 13.9 9.18518 13.8155 8.97993C13.7311 8.77468 13.7087 8.54865 13.7514 8.33052C13.794 8.1124 13.8997 7.91201 14.055 7.75478C14.2103 7.59755 14.4083 7.49058 14.6237 7.44742C14.8392 7.40427 15.0625 7.42689 15.2652 7.5124C15.468 7.59792 15.6411 7.74249 15.7626 7.92775C15.884 8.11301 15.9484 8.33062 15.9475 8.55297C15.9463 8.84899 15.8296 9.13254 15.6228 9.34187C15.416 9.55119 15.1359 9.66932 14.8435 9.67055ZM14.5583 5.29337C14.6562 5.23704 14.7683 5.2113 14.8807 5.21941C14.993 5.22751 15.1004 5.26908 15.1894 5.33889C15.2785 5.4087 15.3451 5.50362 15.3809 5.61169C15.4167 5.71976 15.4201 5.83615 15.3907 5.94618C15.3613 6.05621 15.3004 6.15497 15.2156 6.23001C15.1309 6.30505 15.026 6.35302 14.9144 6.36786C14.8028 6.38271 14.6893 6.36376 14.5882 6.31342C14.4872 6.26308 14.4032 6.1836 14.3467 6.08498C14.3089 6.01902 14.2844 5.94615 14.2746 5.87055C14.2648 5.79495 14.2699 5.71814 14.2895 5.64454C14.3092 5.57094 14.3431 5.50202 14.3892 5.44175C14.4353 5.38147 14.4928 5.33104 14.5583 5.29337ZM14.8435 4.15716C14.6238 4.15808 14.4089 4.09293 14.2258 3.96997C14.0428 3.84701 13.9 3.67179 13.8155 3.46654C13.7311 3.26129 13.7087 3.03526 13.7514 2.81714C13.794 2.59901 13.8997 2.39862 14.055 2.24139C14.2103 2.08417 14.4083 1.97719 14.6237 1.93404C14.8392 1.89088 15.0625 1.9135 15.2652 1.99902C15.468 2.08453 15.6411 2.22909 15.7626 2.41435C15.884 2.59962 15.9484 2.81723 15.9475 3.03958C15.9463 3.33561 15.8296 3.61915 15.6228 3.82847C15.416 4.03779 15.1359 4.15593 14.8435 4.15716ZM18.1601 7.73807C18.0505 7.93039 17.887 8.08548 17.6903 8.1837C17.4936 8.28193 17.2725 8.31888 17.055 8.28989C16.8376 8.26089 16.6335 8.16726 16.4687 8.02082C16.3038 7.87438 16.1855 7.68173 16.1289 7.46724C16.0722 7.25275 16.0796 7.02606 16.1503 6.81586C16.2209 6.60566 16.3515 6.4214 16.5257 6.28638C16.6998 6.15136 16.9096 6.07165 17.1284 6.05736C17.3473 6.04306 17.5655 6.09481 17.7553 6.20606C18.0085 6.35591 18.1931 6.6009 18.2689 6.88778C18.3447 7.17466 18.3056 7.48023 18.1601 7.73807Z" fill="white"/>
<path d="M4.738 1C3.80091 1 2.88487 1.2813 2.10571 1.80832C1.32655 2.33534 0.719269 3.08442 0.360661 3.96082C0.00205258 4.83723 -0.0917752 5.8016 0.0910416 6.73198C0.273858 7.66237 0.725109 8.51699 1.38773 9.18776C2.05035 9.85853 2.89458 10.3153 3.81366 10.5004C4.73275 10.6855 5.6854 10.5905 6.55116 10.2275C7.41691 9.86444 8.15689 9.24969 8.6775 8.46094C9.19812 7.6722 9.476 6.74489 9.476 5.79628C9.476 4.52423 8.97682 3.30427 8.08827 2.4048C7.19973 1.50532 5.9946 1 4.738 1ZM6.5458 3.4447C6.73562 3.33346 6.95376 3.28171 7.17264 3.29601C7.39152 3.31031 7.60129 3.39 7.77541 3.52502C7.94952 3.66004 8.08016 3.84431 8.1508 4.05452C8.22143 4.26472 8.22888 4.4914 8.17221 4.70589C8.11553 4.92038 7.99728 5.11303 7.83241 5.25947C7.66755 5.4059 7.46348 5.49955 7.24602 5.52854C7.02857 5.55753 6.80751 5.52058 6.6108 5.42235C6.4141 5.32412 6.25061 5.16904 6.141 4.97672C6.06771 4.84935 6.02003 4.70856 6.00072 4.56246C5.9814 4.41636 5.99083 4.26783 6.02845 4.12543C6.06608 3.98304 6.13116 3.84958 6.21995 3.73275C6.30874 3.61592 6.41948 3.51803 6.5458 3.4447ZM2.9348 8.14319C2.74499 8.25444 2.52684 8.30619 2.30796 8.29189C2.08908 8.27759 1.87932 8.19789 1.7052 8.06287C1.53108 7.92785 1.40044 7.74359 1.32981 7.53338C1.25917 7.32318 1.25172 7.0965 1.3084 6.88201C1.36507 6.66752 1.48332 6.47486 1.64819 6.32843C1.81306 6.18199 2.01713 6.08835 2.23458 6.05935C2.45203 6.03036 2.6731 6.06732 2.8698 6.16554C3.0665 6.26377 3.23 6.41886 3.3396 6.61118C3.48515 6.86901 3.52428 7.17458 3.44848 7.46146C3.37268 7.74834 3.18807 7.99334 2.9348 8.14319ZM3.3396 4.97672C3.23 5.16904 3.0665 5.32412 2.8698 5.42235C2.6731 5.52058 2.45203 5.55753 2.23458 5.52854C2.01713 5.49955 1.81306 5.4059 1.64819 5.25947C1.48332 5.11303 1.36507 4.92038 1.3084 4.70589C1.25172 4.4914 1.25917 4.26472 1.32981 4.05452C1.40044 3.84431 1.53108 3.66004 1.7052 3.52502C1.87932 3.39 2.08908 3.31031 2.30796 3.29601C2.52684 3.28171 2.74499 3.33346 2.9348 3.4447C3.18807 3.59455 3.37268 3.83955 3.44848 4.12643C3.52428 4.41331 3.48515 4.71889 3.3396 4.97672ZM4.7196 9.67055C4.50014 9.67054 4.28563 9.60461 4.10322 9.48109C3.92081 9.35757 3.77873 9.18203 3.69496 8.97669C3.61119 8.77136 3.5895 8.54548 3.63265 8.32766C3.6758 8.10984 3.78184 7.90989 3.93734 7.75313C4.09285 7.59637 4.29081 7.48985 4.50616 7.44708C4.72151 7.4043 4.94455 7.42719 5.14704 7.51284C5.34953 7.5985 5.52235 7.74306 5.64361 7.92822C5.76487 8.11339 5.82911 8.33082 5.8282 8.55297C5.82822 8.84697 5.71381 9.12913 5.50974 9.33832C5.30568 9.54751 5.0284 9.66687 4.738 9.67055H4.7196ZM4.4344 5.29337C4.5323 5.23704 4.64448 5.2113 4.7568 5.21941C4.86912 5.22751 4.97656 5.26908 5.06558 5.33889C5.1546 5.4087 5.22121 5.50362 5.25703 5.61169C5.29285 5.71976 5.29627 5.83615 5.26686 5.94618C5.23745 6.05621 5.17652 6.15497 5.09175 6.23001C5.00699 6.30505 4.90218 6.35302 4.79053 6.36786C4.67889 6.38271 4.5654 6.36376 4.46437 6.31342C4.36333 6.26308 4.27928 6.1836 4.2228 6.08498C4.18575 6.01791 4.1623 5.94402 4.15382 5.86765C4.14534 5.79128 4.152 5.71396 4.17343 5.64024C4.19485 5.56651 4.23059 5.49785 4.27856 5.43829C4.32654 5.37872 4.38577 5.32945 4.4528 5.29337H4.4344ZM4.7196 4.15716C4.50014 4.15716 4.28563 4.09122 4.10322 3.9677C3.92081 3.84418 3.77873 3.66864 3.69496 3.46331C3.61119 3.25797 3.5895 3.03209 3.63265 2.81427C3.6758 2.59645 3.78184 2.3965 3.93734 2.23974C4.09285 2.08298 4.29081 1.97646 4.50616 1.93369C4.72151 1.89091 4.94455 1.9138 5.14704 1.99946C5.34953 2.08511 5.52235 2.22967 5.64361 2.41484C5.76487 2.6 5.82911 2.81743 5.8282 3.03958C5.82822 3.33358 5.71381 3.61574 5.50974 3.82493C5.30568 4.03412 5.0284 4.15348 4.738 4.15716H4.7196ZM8.0546 7.73807C7.94486 7.92879 7.78179 8.08234 7.58596 8.17936C7.39013 8.27639 7.1703 8.31254 6.95419 8.28326C6.73809 8.25399 6.53539 8.16058 6.37165 8.01484C6.20791 7.86911 6.09047 7.67755 6.03413 7.46433C5.97779 7.25112 5.98509 7.02579 6.05508 6.81677C6.12508 6.60774 6.25465 6.42437 6.42746 6.28979C6.60027 6.15521 6.80857 6.07543 7.02611 6.06053C7.24364 6.04563 7.46066 6.09627 7.6498 6.20606C7.77612 6.27938 7.88686 6.37727 7.97565 6.4941C8.06444 6.61093 8.12952 6.74438 8.16715 6.88678C8.20477 7.02918 8.2142 7.17771 8.19488 7.32381C8.17557 7.46991 8.12789 7.6107 8.0546 7.73807Z" fill="white"/>
<path d="M21.9371 11.7435L18.6895 13.7924C18.5155 13.9026 18.3719 14.0556 18.2722 14.2372C18.1724 14.4188 18.1198 14.623 18.1191 14.8308V17.3221C18.1197 17.5292 18.1724 17.7329 18.2721 17.9137C18.3719 18.0946 18.5156 18.2467 18.6895 18.3558L21.9371 20.4094C22.0397 20.4761 22.1578 20.5141 22.2796 20.5196C22.4013 20.525 22.5224 20.4978 22.6303 20.4405C22.7383 20.3833 22.8293 20.2981 22.8942 20.1937C22.9591 20.0892 22.9955 19.9693 22.9997 19.846V12.3396C22.9997 12.2141 22.9665 12.0909 22.9035 11.9828C22.8406 11.8747 22.7502 11.7856 22.6418 11.7248C22.5334 11.664 22.4109 11.6337 22.287 11.637C22.163 11.6402 22.0423 11.677 21.9371 11.7435Z" fill="white"/>
<path d="M17.089 13.8242V12.3015C17.0889 12.0171 16.9834 11.7432 16.7935 11.5337C16.6036 11.3242 16.343 11.1944 16.0632 11.1699H3.60636C3.30986 11.1736 3.02674 11.2954 2.81836 11.509C2.60998 11.7225 2.49314 12.0106 2.49316 12.3108V19.8451C2.49438 20.1469 2.61366 20.4359 2.82488 20.6488C3.0361 20.8618 3.32206 20.9813 3.62016 20.9813H15.962C16.2601 20.9813 16.546 20.8618 16.7573 20.6488C16.9685 20.4359 17.0877 20.1469 17.089 19.8451V13.7916V13.8242Z" fill="white"/>
</svg>
