<svg xmlns="http://www.w3.org/2000/svg" width="27" height="22" fill="#fff" fill-rule="evenodd" stroke="#fff" stroke-width=".184"><path d="M1.808 10.454c-.572.3-1.192.766-.507 1.207.177.113.375.206.58.288l4.903.283c.353.024 1.965-.1 2.225-.064a5.964 5.964 0 0 0 1.83.03c.75.907.38 2.2.353 3.403-.012.548.682.784 1.003.34a2.13 2.13 0 0 1 .951-.794l4.624-1.968 1.367-.494c.123-.044.255-.086.4-.113a.416.416 0 0 0 .216-.694c-.45-.467-1.07-.8-1.658-1.112a172.86 172.86 0 0 0-5.451-2.684c-.117-.055-.238-.1-.366-.114-.364-.01-.606.398-.622.76-.015.382.124.757.093 1.14a.787.787 0 0 1-.788.705l-9.088-.137-.055.018zm20.925-.044l-2.007-1.305c-3.44-2.235-6.914-4.488-10.758-5.92-.287-.107-.584-.2-.9-.205-.23 1.9-1.038 4.955-1.423 4.863l-.1-4.605c-.006-.195.228-1.7.283-1.946.066-.277.413-.383.63-.2.572.48 1.243.83 1.904 1.177 4.76 2.505 9.38 5.28 13.825 8.313.75.512 1.5 1.042 2.077 1.753.22.277.406.695.172.96-.067-.34-.58-.26-.885-.093-5.36 2.9-10.85 5.576-16.387 8.136-.438.203-.94.408-1.387.228-.124.228-.73-4.473.2-6.835.08-.208.186-.43.388-.528.237-.1.503.084.482.344a22.678 22.678 0 0 0 .29 5.948 97.051 97.051 0 0 0 15.602-7.588c.07-.04.144-.1.17-.166s-.002-.15-.03-.22c-.38-.945-1.282-1.557-2.135-2.1z"/></svg>