<svg xmlns="http://www.w3.org/2000/svg" width="27" height="22" fill="#fff" fill-rule="evenodd" stroke="#fff" stroke-width=".184"><path d="M25.192 10.454c.572.3 1.192.766.507 1.207a3.393 3.393 0 0 1-.581.288l-4.903.283c-.353.024-1.965-.1-2.225-.064a5.964 5.964 0 0 1-1.83.03c-.75.907-.38 2.2-.353 3.403.012.548-.682.784-1.003.34a2.13 2.13 0 0 0-.951-.794L9.23 13.18l-1.367-.494a2.785 2.785 0 0 0-.389-.113.416.416 0 0 1-.216-.694c.45-.467 1.07-.8 1.658-1.112a172.86 172.86 0 0 1 5.451-2.684c.117-.055.238-.1.366-.114.364-.01.606.398.622.76.015.382-.124.757-.093 1.14a.79.79 0 0 0 .788.705l9.088-.137.055.018zM4.267 10.4l2.007-1.305c3.44-2.235 6.914-4.488 10.758-5.92.287-.107.584-.2.9-.205.23 1.9 1.038 4.955 1.423 4.863l.1-4.605c.006-.195-.228-1.7-.283-1.946-.066-.277-.413-.383-.63-.2-.572.48-1.243.83-1.904 1.177a141.252 141.252 0 0 0-13.825 8.313c-.75.512-1.5 1.042-2.077 1.753-.22.277-.406.695-.172.96.067-.34.58-.26.885-.093 5.36 2.9 10.85 5.576 16.387 8.136.438.203.94.408 1.387.228.124.228.73-4.473-.2-6.835-.08-.208-.186-.43-.388-.528-.237-.1-.503.084-.482.344a22.63 22.63 0 0 1-.29 5.948 97.051 97.051 0 0 1-15.602-7.588c-.07-.04-.144-.1-.17-.166s.002-.15.03-.22c.38-.945 1.282-1.557 2.135-2.1z"/></svg>