<?xml version="1.0" encoding="utf-8"?>
<!-- Generator: Adobe Illustrator 16.0.0, SVG Export Plug-In . SVG Version: 6.00 Build 0)  -->
<!DOCTYPE svg PUBLIC "-//W3C//DTD SVG 1.1//EN" "http://www.w3.org/Graphics/SVG/1.1/DTD/svg11.dtd">
<svg version="1.1" id="Layer_1" xmlns="http://www.w3.org/2000/svg" xmlns:xlink="http://www.w3.org/1999/xlink" x="0px" y="0px"
	 width="24px" height="24px" viewBox="0 0 24 24" enable-background="new 0 0 24 24" xml:space="preserve">
<g>
	<defs>
		<filter id="Adobe_OpacityMaskFilter" filterUnits="userSpaceOnUse" x="0" y="0" width="24" height="24">
			<feColorMatrix  type="matrix" values="1 0 0 0 0  0 1 0 0 0  0 0 1 0 0  0 0 0 1 0"/>
		</filter>
	</defs>
	<mask maskUnits="userSpaceOnUse" x="0" y="0" width="24" height="24" id="B">
		<g filter="url(#Adobe_OpacityMaskFilter)">
			<path id="A" fill="#FFFFFF" d="M0,0h24v24H0V0z"/>
		</g>
	</mask>
	<path mask="url(#B)" fill="#08173A" d="M17.77,12.922h-4.847V18c0.001,0.51-0.413,0.924-0.922,0.924
		c-0.51,0-0.923-0.413-0.923-0.923c0-0.001,0-0.001,0-0.001v-5.077H6.23c-0.51,0.024-0.942-0.37-0.966-0.88
		c-0.024-0.51,0.37-0.942,0.88-0.966c0.029-0.001,0.057-0.001,0.086,0h4.845V6.46c0-0.51,0.414-0.923,0.923-0.922
		c0.509,0,0.922,0.413,0.922,0.922v4.615h4.847c0.51,0,0.924,0.414,0.923,0.923c0,0.509-0.413,0.922-0.923,0.922 M12,0
		C5.384,0,0,5.384,0,12s5.384,12,12,12s12-5.384,12-12S18.616,0,12,0"/>
</g>
</svg>
