<svg xmlns="http://www.w3.org/2000/svg" width="56" height="60" fill="#fff"><path d="M14.516 10c.858 0 1.517-.6 1.517-1.402V6.402H37V3.598H16.033V1.402C16.033.6 15.373 0 14.516 0S13 .6 13 1.402v7.196c0 .73.66 1.402 1.516 1.402zM51.35 3.722h-8.914v-2.27C42.436.63 41.8 0 40.95 0s-1.485.63-1.485 1.45v7.445c0 .82.646 1.45 1.485 1.45s1.486-.63 1.486-1.45v-2.27h8.913c.905 0 1.68.757 1.68 1.64v5.74H2.97v-5.74c0-.883.775-1.64 1.68-1.64h6.394V3.722H4.65C2.13 3.722 0 5.742 0 8.265v47.192C0 57.918 2.067 60 4.65 60h46.7c2.52 0 4.65-2.02 4.65-4.543V8.265a4.662 4.662 0 0 0-4.65-4.543zm1.614 51.672c0 .884-.775 1.64-1.68 1.64H4.587c-.904 0-1.68-.756-1.68-1.64V16.9h50.058v38.485zM22.5 29a4.46 4.46 0 0 0 4.5-4.5 4.46 4.46 0 0 0-4.5-4.5c-2.45 0-4.5 1.985-4.5 4.5a4.55 4.55 0 0 0 4.5 4.5zm0-6.485a1.99 1.99 0 0 1 1.985 1.985 1.99 1.99 0 0 1-1.985 1.985 1.99 1.99 0 0 1-1.985-1.985 1.99 1.99 0 0 1 1.985-1.985zM10.5 29c2.45 0 4.5-1.985 4.5-4.5a4.46 4.46 0 0 0-4.5-4.5A4.463 4.463 0 0 0 6 24.5c.066 2.45 2.05 4.5 4.5 4.5zm0-6.485a1.99 1.99 0 0 1 1.985 1.985c0 1.125-.86 1.985-1.985 1.985A1.99 1.99 0 0 1 8.515 24.5a1.99 1.99 0 0 1 1.985-1.985zM33.5 29c2.45 0 4.5-1.985 4.5-4.5a4.46 4.46 0 0 0-4.5-4.5 4.463 4.463 0 0 0-4.5 4.5c0 2.45 1.985 4.5 4.5 4.5zm0-6.485a1.99 1.99 0 0 1 1.985 1.985c0 1.125-.86 1.985-1.985 1.985a1.99 1.99 0 0 1-1.985-1.985 1.99 1.99 0 0 1 1.985-1.985zM45.5 29c2.45 0 4.5-1.985 4.5-4.5a4.46 4.46 0 0 0-4.5-4.5c-2.45 0-4.5 1.985-4.5 4.5 0 2.45 1.985 4.5 4.5 4.5zm0-6.485a1.99 1.99 0 0 1 1.985 1.985c0 1.125-.86 1.985-1.985 1.985a1.99 1.99 0 0 1-1.985-1.985c0-1.125.86-1.985 1.985-1.985zM10.5 41c2.45 0 4.5-1.985 4.5-4.5 0-2.45-1.985-4.5-4.5-4.5A4.463 4.463 0 0 0 6 36.5c.066 2.45 2.05 4.5 4.5 4.5zm0-6.485a1.99 1.99 0 0 1 1.985 1.985 1.99 1.99 0 0 1-1.985 1.985A1.99 1.99 0 0 1 8.515 36.5c.066-1.06.926-1.985 1.985-1.985zM22.5 41a4.46 4.46 0 0 0 4.5-4.5c0-2.45-1.985-4.5-4.5-4.5-2.45 0-4.5 1.985-4.5 4.5a4.55 4.55 0 0 0 4.5 4.5zm0-6.485a1.99 1.99 0 0 1 1.985 1.985c0 1.06-.926 1.985-1.985 1.985a1.99 1.99 0 0 1-1.985-1.985c0-1.06.926-1.985 1.985-1.985zM33.5 41c2.45 0 4.5-1.985 4.5-4.5 0-2.45-1.985-4.5-4.5-4.5a4.463 4.463 0 0 0-4.5 4.5c0 2.45 1.985 4.5 4.5 4.5zm0-6.485a1.99 1.99 0 0 1 1.985 1.985 1.99 1.99 0 0 1-1.985 1.985 1.99 1.99 0 0 1-1.985-1.985c0-1.06.926-1.985 1.985-1.985zM45.5 41c2.45 0 4.5-1.985 4.5-4.5 0-2.45-1.985-4.5-4.5-4.5-2.45 0-4.5 1.985-4.5 4.5 0 2.45 1.985 4.5 4.5 4.5zm0-6.485a1.99 1.99 0 0 1 1.985 1.985 1.99 1.99 0 0 1-1.985 1.985 1.99 1.99 0 0 1-1.985-1.985 1.99 1.99 0 0 1 1.985-1.985zM10.5 54c2.45 0 4.5-1.985 4.5-4.5a4.46 4.46 0 0 0-4.5-4.5A4.463 4.463 0 0 0 6 49.5c0 2.515 2.05 4.5 4.5 4.5zm0-6.485a1.99 1.99 0 0 1 1.985 1.985c0 1.125-.86 1.985-1.985 1.985A1.99 1.99 0 0 1 8.515 49.5a1.99 1.99 0 0 1 1.985-1.985zM22.5 54a4.46 4.46 0 0 0 4.5-4.5 4.46 4.46 0 0 0-4.5-4.5c-2.45 0-4.5 1.985-4.5 4.5s2.05 4.5 4.5 4.5zm0-6.485a1.99 1.99 0 0 1 1.985 1.985 1.99 1.99 0 0 1-1.985 1.985 1.99 1.99 0 0 1-1.985-1.985 1.99 1.99 0 0 1 1.985-1.985zM33.5 54c2.45 0 4.5-1.985 4.5-4.5a4.46 4.46 0 0 0-4.5-4.5 4.463 4.463 0 0 0-4.5 4.5 4.46 4.46 0 0 0 4.5 4.5zm0-6.485a1.99 1.99 0 0 1 1.985 1.985c0 1.125-.86 1.985-1.985 1.985a1.99 1.99 0 0 1-1.985-1.985 1.99 1.99 0 0 1 1.985-1.985zM45.5 54c2.45 0 4.5-1.985 4.5-4.5a4.46 4.46 0 0 0-4.5-4.5c-2.45 0-4.5 1.985-4.5 4.5a4.46 4.46 0 0 0 4.5 4.5zm0-6.485a1.99 1.99 0 0 1 1.985 1.985c0 1.125-.86 1.985-1.985 1.985a1.99 1.99 0 0 1-1.985-1.985c0-1.125.86-1.985 1.985-1.985z"/></svg>