<svg xmlns="http://www.w3.org/2000/svg" width="56" height="56"><path fill="#00ac9e" d="M43.01.775a1.25 1.25 0 0 1 .355.89V5.67h4.225c4.467 0 8.104 3.615 8.104 8.06v33.903c0 4.444-3.637 8.06-8.104 8.06H8.494a1.258 1.258 0 0 1-1.111-.617 1.246 1.246 0 0 1 0-1.267c.23-.39.656-.627 1.11-.617H47.6c3.118 0 5.6-2.456 5.6-5.558V17.216H2.9v30.418c0 .447-.24.86-.628 1.084s-.87.223-1.258 0a1.25 1.25 0 0 1-.629-1.084V13.73c0-4.444 3.633-8.06 8.1-8.06h4.225V1.666a1.247 1.247 0 0 1 .368-.904 1.26 1.26 0 0 1 2.147.904V5.67h11.55V1.666a1.247 1.247 0 0 1 .368-.904 1.26 1.26 0 0 1 1.79.013 1.25 1.25 0 0 1 .356.89V5.67h11.55V1.666a1.247 1.247 0 0 1 .368-.904 1.26 1.26 0 0 1 1.792.013zm4.58 7.4h-4.225v3.457c0 .69-.563 1.25-1.258 1.25s-1.257-.56-1.257-1.25v-3.46H29.3v3.457a1.25 1.25 0 0 1-.62 1.106 1.26 1.26 0 0 1-1.274 0 1.25 1.25 0 0 1-.62-1.106V8.174h-11.55v3.457c0 .7-.563 1.25-1.258 1.25s-1.257-.56-1.257-1.25V8.174H8.494c-3.117 0-5.584 2.454-5.584 5.556v.985h50.268v-.985c0-3.102-2.47-5.556-5.59-5.556zM43.124 21.5c.584 0 1.143.23 1.555.64s.645.968.645 1.548a2.194 2.194 0 0 1-2.2 2.189c-1.214 0-2.2-.98-2.2-2.19 0-.58.233-1.137.645-1.547a2.21 2.21 0 0 1 1.555-.641zm-10.054 0c.583 0 1.143.23 1.555.64s.644.968.644 1.548a2.194 2.194 0 0 1-2.199 2.189c-1.215 0-2.2-.98-2.2-2.19a2.18 2.18 0 0 1 .645-1.547c.412-.4.972-.64 1.555-.64zm-10.054 0c.583 0 1.143.23 1.555.64s.644.968.644 1.548a2.194 2.194 0 0 1-2.199 2.189c-1.215 0-2.2-.98-2.2-2.19a2.18 2.18 0 0 1 .645-1.547c.412-.4.972-.64 1.555-.64zm-10.054 0c.583 0 1.143.23 1.555.64a2.19 2.19 0 0 1 .644 1.548 2.194 2.194 0 0 1-2.2 2.189c-1.214 0-2.2-.98-2.2-2.19a2.18 2.18 0 0 1 .645-1.547c.412-.4.97-.64 1.555-.64zm30.162 8.754c1.215 0 2.2.98 2.2 2.188a2.194 2.194 0 0 1-2.2 2.189c-1.214 0-2.2-.98-2.2-2.19s.986-2.188 2.2-2.188zm-10.054 0c1.215 0 2.2.98 2.2 2.188a2.194 2.194 0 0 1-2.2 2.189c-1.215 0-2.2-.98-2.2-2.19s.985-2.188 2.2-2.188zm-10.054 0c1.215 0 2.2.98 2.2 2.188a2.194 2.194 0 0 1-2.2 2.189c-1.215 0-2.2-.98-2.2-2.19s.985-2.188 2.2-2.188zm-10.054 0c1.214 0 2.2.98 2.2 2.188a2.194 2.194 0 0 1-2.2 2.189c-1.215 0-2.2-.98-2.2-2.19s.985-2.188 2.2-2.188zm30.162 8.754c1.215 0 2.2.98 2.2 2.188 0 .58-.232 1.137-.645 1.548a2.205 2.205 0 0 1-3.11 0 2.183 2.183 0 0 1-.644-1.548c0-1.208.985-2.188 2.2-2.188zm-10.054 0c1.215 0 2.2.98 2.2 2.188 0 .58-.232 1.137-.645 1.548a2.205 2.205 0 0 1-3.11 0 2.183 2.183 0 0 1-.644-1.548c0-1.208.984-2.188 2.2-2.188zm-10.054 0c1.215 0 2.2.98 2.2 2.188 0 .58-.232 1.137-.645 1.548a2.205 2.205 0 0 1-3.11 0 2.183 2.183 0 0 1-.644-1.548c0-1.208.984-2.188 2.2-2.188zm-10.054 0c1.214 0 2.2.98 2.2 2.188a2.19 2.19 0 0 1-.645 1.548 2.205 2.205 0 0 1-3.11 0 2.183 2.183 0 0 1-.645-1.548c0-1.208.985-2.188 2.2-2.188z"/></svg>