<svg xmlns="http://www.w3.org/2000/svg" width="84" height="56"><path fill="#00ac9e" fill-rule="evenodd" d="M67.236 43.094v.395c-.04.983-.315 1.89-.708 2.794a10.065 10.065 0 0 1-1.693 2.441 12.824 12.824 0 0 1-2.441 2.087 19.39 19.39 0 0 1-3.11 1.732c-2.205 1.024-4.843 1.85-7.796 2.402-2.913.55-6.142.866-9.567.866-3.464 0-6.732-.315-9.685-.905-3.03-.552-5.708-1.418-7.913-2.48a20.853 20.853 0 0 1-3.11-1.772c-.945-.67-1.772-1.378-2.402-2.166-.71-.787-1.26-1.653-1.614-2.52a7.223 7.223 0 0 1-.59-2.874c0-.275 0-.51.04-.787l.04-14.016-15.315-6.93c-.04-.04-.08-.04-.118-.08a1.84 1.84 0 0 1-.551-.55 1.628 1.628 0 0 1-.197-.749c0-.275.08-.512.197-.748a1.84 1.84 0 0 1 .551-.551c.04-.04.08-.04.118-.08l40-18.1c.236-.08.394-.118.63-.118a1.8 1.8 0 0 1 .63.118l40.04 18.1c.04.04.078.04.117.08.237.158.394.315.552.55a1.63 1.63 0 0 1 .196.748c0 .276-.078.512-.196.748a1.84 1.84 0 0 1-.552.551c-.04.04-.078.04-.118.08l-7.756 3.464v13.897l1.457 2.835c.118.197.158.433.158.67s-.04.472-.158.67l-1.535 3.03c0 .04-.04.04-.04.08a1.84 1.84 0 0 1-.55.551 1.628 1.628 0 0 1-.749.197c-.276 0-.512-.08-.748-.197a1.84 1.84 0 0 1-.551-.551c0-.04-.04-.04-.04-.08l-1.496-3.03a1.391 1.391 0 0 1-.157-.67 1.4 1.4 0 0 1 .157-.669l1.26-2.52V26.205l-4.645 2.086-.04 14.803zm-47.598-.67c0 .08 0 .158-.04.236v.433a4.4 4.4 0 0 0 .355 1.733c.236.6.63 1.18 1.102 1.693a9.95 9.95 0 0 0 1.89 1.693 18.597 18.597 0 0 0 2.638 1.535c2.047.945 4.488 1.693 7.204 2.244 2.796.55 5.867.827 9.134.827 3.23 0 6.26-.276 8.977-.827 2.716-.512 5.118-1.22 7.165-2.165.984-.473 1.85-.945 2.638-1.496.748-.512 1.417-1.063 1.93-1.614s.905-1.103 1.18-1.693c.236-.552.394-1.103.433-1.654v-.276l.04-13.425-21.654 9.803a1.783 1.783 0 0 1-.63.119c-.236 0-.394-.04-.63-.12L19.677 29.63l-.04 12.795zM42 36.44l25.55-11.535-25.945-3.032a1.726 1.726 0 0 1-.748-.276c-.197-.196-.354-.354-.472-.63a1.212 1.212 0 0 1-.118-.748c.04-.275.118-.51.315-.748.157-.196.354-.354.6-.472s.473-.157.748-.118l30.985 3.583 5.51-2.48L42 3.527 5.622 19.984 42 36.44z"/></svg>