<svg xmlns="http://www.w3.org/2000/svg" width="58" height="60"><path fill="#00ac9e" d="M10.8 19.7H2.4c-.8 0-1.5.7-1.5 1.5v37.3c0 .8.7 1.5 1.5 1.5h8.4c.8 0 1.5-.7 1.5-1.5V21.2c0-.8-.7-1.5-1.5-1.5zM9.3 57H3.9V22.7h5.4V57zm45.4-23.2c.6.8.9 1.8.9 2.9 0 1.6-.7 3-1.9 4 .7.9 1.2 2 1.2 3.3 0 1.6-.7 3-1.9 4 .7.9 1.2 2 1.2 3.3 0 2.8-2.3 5.1-5.1 5.1H14.3v-3H49c1.2 0 2.1-1 2.1-2.1 0-1.2-1-2.1-2.1-2.1h-5.5c-.8 0-1.5-.7-1.5-1.5s.7-1.5 1.5-1.5h6.3c1.2 0 2.1-1 2.1-2.1 0-1.2-1-2.1-2.1-2.1h-6.3c-.8 0-1.5-.7-1.5-1.5s.7-1.5 1.5-1.5h7c1.2 0 2.1-1 2.1-2.1s-1-2.1-2.1-2.1h-8.2c-.8 0-1.5-.7-1.5-1.5s.7-1.5 1.5-1.5H52c1.2 0 2.1-1 2.1-2.1s-1-2.1-2.1-2.1H34.3c-.5 0-.9-.2-1.2-.6-.3-.4-.4-.8-.3-1.3l.1-.4c3-11.8 2.9-17.8 1.8-19.4-.7-1.1-3.2-3-4.6-2.7-1 .2-1.4 1.6-1.6 2.7v.2c-2 11-3.4 18.9-11 21.3-.2 0-.3.1-.5.1h-2.7v-3h2.5c5.6-2 6.9-8.8 8.7-18.9v-.2C26.2 1.7 28 .6 29.4.3c3.1-.7 6.6 2.3 7.7 3.9 1.9 2.8 1.6 9.7-1 20.3H52c2.8 0 5.1 2.3 5.1 5.1 0 1.7-1 3.3-2.4 4.2z"/></svg>