<svg xmlns="http://www.w3.org/2000/svg" width="62" height="62"><path fill="#00ac9e" stroke="#00ac9e" d="M60.3 7.383C52.173-.96 44.217-.004 40.33 3.903l-13.422 13.5-11.113-11.17c-.845-.85-2.3-.248-2.3.957l.014 7.177H6.354c-1.2 0-1.8 1.46-.952 2.31l11.113 11.17-13.423 13.5c-3.74 3.76-.667 10.72 3.3 14.7 4.944 4.968 11.5 6.46 14.637 3.317L58.27 21.93c2.793-2.853 1.57-7.222-1.176-10.193L60.4 8.416a.664.664 0 0 0-.099-1.033zm-1.363.568L43.2 23.758c-2.955-4.202-8.395-8.046-13.256-7.494L41.29 4.87C44.7 1.442 51.638.727 58.937 7.95zM43.404 34.937l-6.876 6.9c.845-7.48-8.598-16.945-16.015-16.095l6.876-6.9c1.213-1.218 3.17-1.577 5.514-1.007 8.093 1.965 14.685 12.895 10.5 17.102zM13.51 15.725c.742 0 1.346-.608 1.346-1.353l-.022-7.18L25.947 18.36l-8.47 8.512L6.354 15.725h7.155zm4.45 12.592c3.05-3.038 10.5-.393 14.84 5.9L22.66 44.4c-4.123-4.083-9.594-7.08-15.137-5.603l10.437-10.5zM7.356 55.07c-4-4.01-6.09-9.974-3.3-12.777 2.474-2.487 6.517-3.337 10.94-1.556l-6.244 6.276c-.596.598.225 1.543.896 1.025 1.615-1.25 6-1.213 8.922 1.7 1.69 1.676 2.7 3.783 2.706 5.634.015 5.022-7.145 6.516-13.92-.292zm4.376-9.118l4.588-4.6c1.788.92 3.765 2.342 5.856 4.507l.005.003.002.004a.681.681 0 0 0 .962 0L33.55 35.4c1.606 2.787 2.607 6.81.422 9.017l-11.35 11.407c.326-4.433-4.36-10.5-10.9-9.87zm45.553-24.965L45.942 32.385c.25-2.228-.445-4.888-1.973-7.458l12.163-12.224c2.218 2.42 3.4 6.025 1.152 8.284z"/></svg>