<svg xmlns="http://www.w3.org/2000/svg" width="45.655" height="37.044" viewBox="0 0 45.655 37.044">
    <defs>
        <style>
            .cls-1{fill:#fff}
        </style>
    </defs>
    <path id="Path_63" d="M51.535-83.459q-6.288 4.784-8.953 9.09a17.7 17.7 0 0 0-2.665 9.5 7.664 7.664 0 0 1 4.1-1.094 6.7 6.7 0 0 1 5.126 2.119 7.59 7.59 0 0 1 1.982 5.4A7.794 7.794 0 0 1 48.6-52.43a9.609 9.609 0 0 1-6.766 2.324q-9.705 0-9.705-12.849a23.571 23.571 0 0 1 .82-6.356 20.4 20.4 0 0 1 2.665-5.741 32.467 32.467 0 0 1 4.986-5.742 86.81 86.81 0 0 1 7.791-6.356zm-26.245 0q-6.29 4.784-8.953 9.09a17.7 17.7 0 0 0-2.665 9.5 7.664 7.664 0 0 1 4.1-1.094 6.7 6.7 0 0 1 5.128 2.119 7.59 7.59 0 0 1 1.982 5.4 7.794 7.794 0 0 1-2.529 6.014 9.609 9.609 0 0 1-6.766 2.324q-9.705 0-9.705-12.849a23.571 23.571 0 0 1 .82-6.356 20.4 20.4 0 0 1 2.665-5.741 32.467 32.467 0 0 1 4.989-5.741 86.81 86.81 0 0 1 7.791-6.356z" class="cls-1" data-name="Path 63" transform="translate(-5.88 87.15)"/>
</svg>
