<?xml version="1.0" encoding="utf-8"?>
<!-- Generator: Adobe Illustrator 16.0.0, SVG Export Plug-In . SVG Version: 6.00 Build 0)  -->
<!DOCTYPE svg PUBLIC "-//W3C//DTD SVG 1.1//EN" "http://www.w3.org/Graphics/SVG/1.1/DTD/svg11.dtd">
<svg version="1.1" id="Layer_1" xmlns="http://www.w3.org/2000/svg" xmlns:xlink="http://www.w3.org/1999/xlink" x="0px" y="0px"
	 width="96px" height="96px" viewBox="0 0 96 96" enable-background="new 0 0 96 96" xml:space="preserve">
<path fill="#942924" d="M46.085,72.21c-2.67,0.288-5.36,0.288-8.03-0.004c-2.666-0.418-5.276-1.129-7.785-2.12
	c-2.4-1.079-4.678-2.413-6.793-3.979c-1.992-1.614-3.809-3.432-5.423-5.424c-1.57-2.12-2.907-4.403-3.987-6.811
	c-0.989-2.498-1.696-5.099-2.11-7.753c-0.293-2.683-0.293-5.39,0-8.072c0.417-2.662,1.127-5.271,2.118-7.777
	c1.079-2.401,2.414-4.678,3.98-6.794c1.613-1.992,3.431-3.809,5.422-5.423c2.121-1.57,4.404-2.906,6.811-3.986
	c2.498-0.989,5.098-1.697,7.753-2.11c1.341-0.153,2.69-0.233,4.04-0.239c1.324,0,2.648,0.092,3.97,0.237
	c2.654,0.411,5.256,1.113,7.756,2.095c2.439,1.094,4.755,2.446,6.905,4.033c1.98,1.61,3.789,3.421,5.397,5.403
	c1.578,2.136,2.921,4.436,4.007,6.859c0.975,2.478,1.677,5.055,2.092,7.685c0.296,2.698,0.296,5.42,0,8.118
	c-0.411,2.622-1.11,5.191-2.084,7.66c-1.087,2.432-2.435,4.738-4.019,6.879c-0.792,0.988-1.635,1.934-2.524,2.832
	c-0.011,0.014-0.024,0.023-0.036,0.035l-0.005,0.006c-0.901,0.895-1.85,1.742-2.84,2.537c-2.136,1.585-4.44,2.931-6.869,4.014
	C51.334,71.093,48.736,71.797,46.085,72.21z M86.104,77.833l-10.438-10.44c0.837-1.099,1.622-2.236,2.353-3.408
	c1.26-2.041,2.236-4.19,3.154-6.396c0.752-1.8,1.356-3.658,1.807-5.557c1.025-4.307,1.436-8.848,1.035-13.262
	c-0.215-2.422-0.576-4.853-1.182-7.207c-0.605-2.363-1.484-4.61-2.45-6.846c-1.7-3.886-4.103-7.42-6.886-10.615
	c-2.773-3.174-6.152-5.928-9.756-8.105c-2.266-1.367-4.688-2.46-7.158-3.408c-2.084-0.799-4.239-1.4-6.436-1.797
	C47.5,0.312,44.786,0.01,42.08,0c-2.324,0-4.61,0.263-6.904,0.605c-1.768,0.263-3.514,0.655-5.225,1.172
	C26.23,2.9,22.578,4.56,19.316,6.69C12.822,10.937,7.334,16.953,4.082,24.043c-1.67,3.642-2.96,7.412-3.516,11.396
	C0.244,37.744-0.01,40.039,0,42.353c0.02,2.295,0.283,4.56,0.635,6.827c1.2,7.813,4.95,15.127,10.156,21.025
	c2.55,2.9,5.596,5.4,8.848,7.47c3.32,2.12,7.03,3.761,10.8,4.854c3.951,1.133,8.048,1.68,12.158,1.621
	c4.97-0.068,10.049-0.986,14.668-2.86c2.422-0.987,4.784-2.069,7.012-3.467c1.062-0.672,2.094-1.39,3.093-2.151l17.786,17.786
	c1.064,1.063,2.637,1.718,4.14,1.718c1.435,0,3.154-0.634,4.14-1.718c1.026-1.114,1.787-2.578,1.721-4.14
	c-0.07-1.553-0.598-3.019-1.721-4.141l-7.344-7.343L86.104,77.833z"/>
</svg>
