<svg xmlns="http://www.w3.org/2000/svg" width="20" height="20" viewBox="0 0 20 20">
    <path fill="#FFF" fill-rule="evenodd" d="M9.601 15.044c-.556.06-1.117.06-1.673-.001a7.63 7.63 0 0 1-1.622-.442 7.652 7.652 0 0 1-1.415-.829 7.672 7.672 0 0 1-1.13-1.13 7.648 7.648 0 0 1-.83-1.419 7.545 7.545 0 0 1-.44-1.615 7.744 7.744 0 0 1 0-1.682 7.61 7.61 0 0 1 .441-1.62c.225-.5.503-.974.83-1.415a7.672 7.672 0 0 1 1.13-1.13 7.645 7.645 0 0 1 1.418-.83 7.533 7.533 0 0 1 1.615-.44c.28-.03.56-.05.842-.05.276 0 .552.02.827.05a7.6 7.6 0 0 1 1.616.436c.508.228.99.51 1.438.84.413.336.79.712 1.125 1.126.329.445.608.924.835 1.429.202.517.35 1.052.435 1.6a7.74 7.74 0 0 1 0 1.692 7.534 7.534 0 0 1-.434 1.596 7.676 7.676 0 0 1-.837 1.433c-.166.205-.34.404-.526.59l-.007.007-.001.002a7.58 7.58 0 0 1-.592.528c-.445.33-.925.61-1.431.836-.52.205-1.06.35-1.614.438zm8.337 1.171l-2.174-2.175c.173-.23.34-.466.49-.71.262-.425.466-.873.657-1.332.157-.375.283-.764.376-1.158a8.65 8.65 0 0 0 .216-2.763 9.372 9.372 0 0 0-.246-1.502 9.595 9.595 0 0 0-.51-1.426c-.353-.81-.855-1.546-1.435-2.211a8.658 8.658 0 0 0-2.033-1.689 9.35 9.35 0 0 0-1.491-.71 7.435 7.435 0 0 0-1.34-.374A9.672 9.672 0 0 0 8.766 0c-.484 0-.96.055-1.439.126A7.647 7.647 0 0 0 6.24.37a8.733 8.733 0 0 0-2.216 1.024C2.671 2.279 1.528 3.532.85 5.009.503 5.768.234 6.553.118 7.383c-.067.48-.12.956-.118 1.44.004.479.059.95.132 1.423.25 1.627 1.032 3.151 2.116 4.38a8.664 8.664 0 0 0 1.844 1.556 8.72 8.72 0 0 0 4.785 1.35 8.497 8.497 0 0 0 3.055-.597 9.397 9.397 0 0 0 1.461-.722c.221-.139.436-.29.645-.448l.73.73 2.422 2.422.553.553c.222.222.55.358.863.358.299 0 .657-.132.862-.358.214-.232.372-.537.358-.862a1.27 1.27 0 0 0-.358-.863l-1.53-1.53z"/>
</svg>
