<svg xmlns="http://www.w3.org/2000/svg" width="26" height="27"><path fill="#942924" fill-rule="evenodd" d="M21.063 17.273a4.952 4.952 0 0 0-3.64 1.586L9.58 15.142a4.775 4.775 0 0 0 .295-1.642 4.79 4.79 0 0 0-.295-1.642l7.842-3.716a4.956 4.956 0 0 0 3.64 1.587C23.8 9.73 26 7.55 26 4.865S23.8 0 21.063 0s-4.937 2.178-4.937 4.865a4.71 4.71 0 0 0 .066.755l-8.35 3.955a4.962 4.962 0 0 0-2.907-.938C2.2 8.637 0 10.814 0 13.5s2.2 4.866 4.936 4.866a4.95 4.95 0 0 0 2.907-.94l8.348 3.956c-.04.247-.066.498-.066.754 0 2.688 2.2 4.865 4.937 4.865S26 24.823 26 22.135s-2.2-4.862-4.936-4.862"/></svg>