<svg xmlns="http://www.w3.org/2000/svg" width="26" height="27"><path fill="#fff" d="M21.063 17.273a4.95 4.95 0 0 0-3.64 1.586L9.58 15.143a4.77 4.77 0 0 0 .295-1.643 4.79 4.79 0 0 0-.295-1.642l7.842-3.716a4.96 4.96 0 0 0 3.641 1.587C23.8 9.73 26 7.55 26 4.865S23.8 0 21.063 0s-4.937 2.178-4.937 4.865c0 .257.026.508.065.755L7.843 9.575a4.96 4.96 0 0 0-2.907-.938C2.2 8.637 0 10.814 0 13.5s2.2 4.866 4.936 4.866a4.96 4.96 0 0 0 2.907-.94l8.35 3.956c-.04.247-.066.498-.066.754 0 2.688 2.2 4.865 4.938 4.865S26 24.823 26 22.135s-2.2-4.86-4.936-4.86"/></svg>