<?xml version="1.0" standalone="no"?>
<!DOCTYPE svg PUBLIC "-//W3C//DTD SVG 1.1//EN" "http://www.w3.org/Graphics/SVG/1.1/DTD/svg11.dtd" >
<svg xmlns="http://www.w3.org/2000/svg" xmlns:xlink="http://www.w3.org/1999/xlink" version="1.1">
<metadata>
Created by FontForge 20170731 at Mon Nov  7 00:24:35 2016
 By Aleksey,,,
Copyright (c) 2013 Type-O-Tones. v1.0 by Jose M. Uros. Barcelona. All rights reserved.
</metadata>
<defs>
<font id="Arboria-Light" horiz-adv-x="0" >
  <font-face 
    font-family="Arboria-Light"
    font-weight="400"
    font-stretch="normal"
    units-per-em="1000"
    panose-1="2 0 5 6 2 0 0 2 0 4"
    ascent="809"
    descent="-191"
    x-height="478"
    cap-height="648"
    bbox="-12 -158 916 694"
    underline-thickness="36"
    underline-position="-112"
    unicode-range="U+0020-FB02"
  />
<missing-glyph horiz-adv-x="280" 
 />
    <glyph glyph-name="fi" unicode="fi" horiz-adv-x="466" 
d="M70 0v442h-80v36h80v31q0 87 35 123t89 36q29 0 57 -10t41 -20l14 -11l-23 -26q-45 31 -89 31q-86 0 -86 -123v-31h175v-36h-175v-442h-38zM358 0v478h38v-478h-38zM347 611q0 13 9 22t22 9t22 -9t9 -22t-9 -22t-22 -9t-22 9t-9 22z" />
    <glyph glyph-name="fl" unicode="fl" horiz-adv-x="466" 
d="M70 0v442h-80v36h80v31q0 87 35 123t89 36q29 0 57 -10t41 -20l14 -11l-23 -26q-45 31 -89 31q-86 0 -86 -123v-31h175v-36h-175v-442h-38zM358 0v658h38v-658h-38z" />
    <glyph glyph-name=".notdef" horiz-adv-x="280" 
 />
    <glyph glyph-name=".null" 
 />
    <glyph glyph-name="nonmarkingreturn" horiz-adv-x="333" 
 />
    <glyph glyph-name="space" unicode=" " horiz-adv-x="220" 
 />
    <glyph glyph-name="quotesingle" unicode="'" horiz-adv-x="200" 
d="M80 449v199h40v-199h-40z" />
    <glyph glyph-name="parenleft" unicode="(" horiz-adv-x="264" 
d="M60 285q0 233 145 396l29 -29q-132 -145 -132 -367t132 -367l-29 -29q-145 163 -145 396z" />
    <glyph glyph-name="parenright" unicode=")" horiz-adv-x="264" 
d="M30 -82q132 145 132 367t-132 367l29 29q145 -163 145 -396t-145 -396z" />
    <glyph glyph-name="asterisk" unicode="*" horiz-adv-x="408" 
d="M184 305l5 148l-126 -78l-20 35l131 69l-131 70l20 35l126 -79l-5 149h40l-5 -149l126 79l20 -35l-131 -70l131 -69l-20 -35l-126 78l5 -148h-40z" />
    <glyph glyph-name="plus" unicode="+" horiz-adv-x="560" 
d="M260 38v198h-196v36h196v197h38v-197h197v-36h-197v-198h-38z" />
    <glyph glyph-name="comma" unicode="," horiz-adv-x="165" 
d="M35 -137l42 200h53l-53 -200h-42z" />
    <glyph glyph-name="hyphen" unicode="-" horiz-adv-x="411" 
d="M30 213v38h351v-38h-351z" />
    <glyph glyph-name="period" unicode="." horiz-adv-x="165" 
d="M43 29q0 17 11.5 28t27.5 11t27.5 -11t11.5 -28t-11.5 -28t-27.5 -11t-27.5 11t-11.5 28z" />
    <glyph glyph-name="zero" unicode="0" horiz-adv-x="560" 
d="M88 324q0 -129 54 -212.5t138 -83.5t138 83.5t54 212.5t-54 212.5t-138 83.5t-138 -83.5t-54 -212.5zM46 324q0 146 66 240t168 94t168 -94t66 -240t-66 -240t-168 -94t-168 94t-66 240z" />
    <glyph glyph-name="one" unicode="1" horiz-adv-x="560" 
d="M143 0v38h145v551l-141 -110l-24 30l171 139h34v-610h145v-38h-330z" />
    <glyph glyph-name="three" unicode="3" horiz-adv-x="560" 
d="M59 67l28 32q23 -33 70 -52.5t103 -19.5q84 0 137.5 50t53.5 127q0 70 -52 116t-127 46q-52 0 -93 -29l-18 27l248 246h-337v38h393v-38l-205 -207q104 0 168.5 -54.5t64.5 -144.5q0 -96 -65 -155t-168 -59q-141 0 -201 77z" />
    <glyph glyph-name="four" unicode="4" horiz-adv-x="560" 
d="M366 0v146h-301v38l274 464l33 -20l-263 -444h257v171h40v-171h89v-38h-89v-146h-40z" />
    <glyph glyph-name="five" unicode="5" horiz-adv-x="560" 
d="M75 57l23 37q2 -3 6.5 -7.5t21 -16t35 -20.5t48.5 -16t63 -7q81 0 130 50.5t49 117.5q0 70 -52.5 118.5t-126.5 48.5q-87 0 -153 -54l-32 20v320h375v-38h-335v-251q69 40 145 40q93 0 157 -58.5t64 -145.5q0 -84 -60 -144.5t-161 -60.5q-120 0 -197 67z" />
    <glyph glyph-name="six" unicode="6" horiz-adv-x="560" 
d="M50 219q0 85 66 160l247 279l28 -25l-175 -197q19 11 60 11q96 0 164.5 -65t68.5 -163q0 -95 -67.5 -162t-162.5 -67t-162 67t-67 162zM92 219q0 -79 54.5 -135.5t132.5 -56.5t133 56.5t55 135.5t-55 136t-133 57t-132.5 -57t-54.5 -136z" />
    <glyph glyph-name="eight" unicode="8" horiz-adv-x="560" 
d="M50 194q0 66 37.5 115.5t100.5 72.5q-35 20 -55.5 53.5t-20.5 73.5q0 64 48 106.5t120 42.5t120 -42.5t48 -106.5q0 -40 -21 -73.5t-56 -53.5q63 -24 101 -73.5t38 -114.5q0 -88 -65.5 -146t-164.5 -58q-100 0 -165 58t-65 146zM92 194q0 -70 53.5 -118.5t134.5 -48.5
q82 0 135 47t53 120q0 72 -54.5 119.5t-133.5 47.5t-133.5 -47.5t-54.5 -119.5zM154 509q0 -47 37 -79.5t89 -32.5t89 32.5t37 79.5q0 49 -35.5 80.5t-90.5 31.5t-90.5 -31.5t-35.5 -80.5z" />
    <glyph glyph-name="A" unicode="A" horiz-adv-x="686" 
d="M10 0l322 648h22l322 -648h-42l-70 141h-442l-70 -141h-42zM140 178h405l-148 300l-54 116q-27 -62 -54 -117z" />
    <glyph glyph-name="C" unicode="C" horiz-adv-x="650" 
d="M50 324q0 138 97.5 236t235.5 98q135 0 232 -94l-28 -28q-87 84 -203 84q-121 0 -206.5 -87t-85.5 -209t85.5 -209t206.5 -87q130 0 218 99l28 -29q-98 -108 -246 -108q-138 0 -236 98t-98 236z" />
    <glyph glyph-name="I" unicode="I" horiz-adv-x="200" 
d="M80 0v648h40v-648h-40z" />
    <glyph glyph-name="P" unicode="P" horiz-adv-x="652" 
d="M80 0v648h258q123 0 196 -68.5t73 -170.5t-73 -170t-197 -68h-217v-171h-40zM120 209h226q96 0 157.5 58t61.5 142q0 85 -61.5 143t-156.5 58h-227v-401z" />
    <glyph glyph-name="T" unicode="T" horiz-adv-x="588" 
d="M274 0v610h-254v38h548v-38h-254v-610h-40z" />
    <glyph glyph-name="U" unicode="U" horiz-adv-x="662" 
d="M331 -10q-110 0 -185.5 71t-75.5 185v402h40v-405q0 -94 64 -155t157 -61t157 61t64 155v405h40v-402q0 -114 -75.5 -185t-185.5 -71z" />
    <glyph glyph-name="W" unicode="W" horiz-adv-x="926" 
d="M239 -5l-229 653h41l181 -518l21 -65q11 41 19 65l172 518h38l171 -518l20 -65l21 65l182 518h40l-229 -653h-29l-174 525l-21 71q-9 -34 -21 -71l-174 -525h-29z" />
    <glyph glyph-name="bracketleft" unicode="[" horiz-adv-x="247" 
d="M60 -99v793h162v-36h-122v-721h122v-36h-162z" />
    <glyph glyph-name="backslash" unicode="\" horiz-adv-x="539" 
d="M492 -19l-498 712h46l498 -712h-46z" />
    <glyph glyph-name="bracketright" unicode="]" horiz-adv-x="247" 
d="M25 -99v36h122v721h-122v36h162v-793h-162z" />
    <glyph glyph-name="asciicircum" unicode="^" horiz-adv-x="530" 
d="M64 338l189 310h24l189 -310h-42l-159 259l-159 -259h-42z" />
    <glyph glyph-name="underscore" unicode="_" horiz-adv-x="472" 
d="M-3 -95v36h478v-36h-478z" />
    <glyph glyph-name="grave" unicode="`" horiz-adv-x="300" 
d="M171 563l-83 116h53l72 -116h-42z" />
    <glyph glyph-name="a" unicode="a" horiz-adv-x="587" 
d="M45 239q0 103 69.5 176t167.5 73q65 0 116.5 -32.5t80.5 -89.5v112h38v-478h-38v112q-29 -57 -80.5 -89.5t-116.5 -32.5q-98 0 -167.5 73t-69.5 176zM85 239q0 -88 57 -150.5t140 -62.5q82 0 139.5 61t57.5 152q0 88 -57 150.5t-140 62.5t-140 -62.5t-57 -150.5z" />
    <glyph glyph-name="b" unicode="b" horiz-adv-x="587" 
d="M70 0v658h38v-292q28 57 80 89.5t117 32.5q98 0 167.5 -73t69.5 -176t-69.5 -176t-167.5 -73q-66 0 -117.5 32.5t-79.5 89.5v-112h-38zM108 239q0 -88 57 -150.5t140 -62.5t140 62.5t57 150.5t-57 150.5t-140 62.5t-140 -62.5t-57 -150.5z" />
    <glyph glyph-name="c" unicode="c" horiz-adv-x="508" 
d="M45 239q0 103 73 176t176 73q99 0 172 -70l-26 -26q-62 60 -146 60q-87 0 -148 -62.5t-61 -150.5t61 -150.5t148 -62.5q94 0 158 71l26 -25q-75 -82 -184 -82q-103 0 -176 73t-73 176z" />
    <glyph glyph-name="d" unicode="d" horiz-adv-x="587" 
d="M45 239q0 103 69.5 176t167.5 73q65 0 116.5 -32.5t80.5 -89.5v292h38v-658h-38v112q-29 -57 -80.5 -89.5t-116.5 -32.5q-98 0 -167.5 73t-69.5 176zM85 239q0 -88 57 -150.5t140 -62.5q82 0 139.5 60.5t57.5 152.5q0 88 -57 150.5t-140 62.5t-140 -62.5t-57 -150.5z" />
    <glyph glyph-name="e" unicode="e" horiz-adv-x="552" 
d="M85 258h381q-6 81 -60 137.5t-128 56.5q-75 0 -130.5 -56.5t-62.5 -137.5zM45 239q0 103 68.5 176t164.5 73q94 0 161.5 -72.5t67.5 -172.5l-1 -21h-421q7 -83 65.5 -139.5t139.5 -56.5q95 0 158 71l26 -25q-77 -82 -184 -82q-101 0 -173 73t-72 176z" />
    <glyph glyph-name="f" unicode="f" horiz-adv-x="288" 
d="M70 0v442h-80v36h80v31q0 87 35 123t89 36q29 0 57 -10t41 -20l14 -11l-23 -26q-45 31 -89 31q-86 0 -86 -123v-31h175v-36h-175v-442h-38z" />
    <glyph glyph-name="g" unicode="g" horiz-adv-x="587" 
d="M45 254q0 101 69 167.5t168 66.5q65 0 117 -29t80 -82v101h38v-372q0 -70 -24 -121.5t-54 -76t-69.5 -38t-57 -15.5t-30.5 -2q-109 0 -184 82l26 25q63 -71 158 -71q8 0 21.5 1t47.5 12.5t59.5 32t47 65.5t21.5 106v24q-28 -53 -79.5 -81.5t-117.5 -28.5q-99 0 -168 66.5
t-69 167.5zM85 254q0 -87 56.5 -142.5t140.5 -55.5t140.5 55.5t56.5 142.5t-56.5 142.5t-140.5 55.5t-140.5 -55.5t-56.5 -142.5z" />
    <glyph glyph-name="h" unicode="h" horiz-adv-x="520" 
d="M70 0v658h38v-267q53 97 172 97q82 0 131 -46.5t49 -129.5v-312h-38v301q0 151 -147 151q-74 0 -120.5 -49t-46.5 -112v-291h-38z" />
    <glyph glyph-name="i" unicode="i" horiz-adv-x="178" 
d="M70 0v478h38v-478h-38zM59 611q0 13 9 22t22 9t22 -9t9 -22t-9 -22t-22 -9t-22 9t-9 22z" />
    <glyph glyph-name="j" unicode="j" horiz-adv-x="178" 
d="M0 -158l-12 35q82 52 82 198v403h38v-402q0 -176 -108 -234zM59 611q0 13 9 22t22 9t22 -9t9 -22t-9 -22t-22 -9t-22 9t-9 22z" />
    <glyph glyph-name="k" unicode="k" horiz-adv-x="479" 
d="M70 0v658h38v-489l282 309h53l-192 -211l223 -267h-55l-195 241l-116 -130v-111h-38z" />
    <glyph glyph-name="l" unicode="l" horiz-adv-x="178" 
d="M70 0v658h38v-658h-38z" />
    <glyph glyph-name="m" unicode="m" horiz-adv-x="834" 
d="M70 0v478h38v-84q52 94 163 94q122 0 158 -100q27 50 73.5 75t101.5 25q81 0 125.5 -46t44.5 -130v-312h-38v301q0 74 -32 112.5t-105 38.5q-64 0 -111 -43t-47 -115v-294h-38v301q0 74 -32 112.5t-105 38.5q-62 0 -110 -47t-48 -117v-288h-38z" />
    <glyph glyph-name="n" unicode="n" horiz-adv-x="520" 
d="M70 0v478h38v-87q53 97 172 97q82 0 131 -46.5t49 -129.5v-312h-38v301q0 151 -147 151q-66 0 -116.5 -47t-50.5 -117v-288h-38z" />
    <glyph glyph-name="o" unicode="o" horiz-adv-x="588" 
d="M45 239q0 103 73 176t176 73t176 -73t73 -176t-73 -176t-176 -73t-176 73t-73 176zM85 239q0 -88 61 -150.5t148 -62.5t148 62.5t61 150.5t-61 150.5t-148 62.5t-148 -62.5t-61 -150.5z" />
    <glyph glyph-name="p" unicode="p" horiz-adv-x="587" 
d="M70 -137v615h38v-112q28 57 80 89.5t117 32.5q98 0 167.5 -73t69.5 -176t-69.5 -176t-167.5 -73q-66 0 -117.5 32.5t-79.5 89.5v-249h-38zM108 239q0 -88 57 -150.5t140 -62.5t140 62.5t57 150.5t-57 150.5t-140 62.5t-140 -62.5t-57 -150.5z" />
    <glyph glyph-name="q" unicode="q" horiz-adv-x="587" 
d="M45 239q0 103 69.5 176t167.5 73q65 0 116.5 -32.5t80.5 -89.5v112h38v-615h-38v249q-29 -57 -80.5 -89.5t-116.5 -32.5q-98 0 -167.5 73t-69.5 176zM85 239q0 -88 57 -150.5t140 -62.5t140 62.5t57 150.5q0 90 -57.5 151.5t-139.5 61.5q-83 0 -140 -62.5t-57 -150.5z
" />
    <glyph glyph-name="r" unicode="r" horiz-adv-x="325" 
d="M70 0v478h38v-110q55 120 197 120v-43q-35 0 -67.5 -10.5t-63 -33.5t-48.5 -67t-18 -103v-231h-38z" />
    <glyph glyph-name="s" unicode="s" horiz-adv-x="458" 
d="M45 70l25 28q59 -72 155 -72q67 0 108 29.5t41 72.5q0 23 -11 40.5t-34 29t-42.5 18t-52.5 14.5q-36 9 -51.5 13t-44 15.5t-40.5 23t-23 32t-11 46.5q0 56 49.5 92t111.5 36q89 0 158 -57l-24 -27q-58 48 -131 48q-51 0 -87.5 -27t-36.5 -65q0 -18 8.5 -32t19 -22.5
t33 -17t35.5 -11.5t42 -10q33 -8 51.5 -13.5t44.5 -17t40 -24.5t24.5 -34t10.5 -48q0 -65 -54.5 -102.5t-131.5 -37.5q-111 0 -182 80z" />
    <glyph glyph-name="t" unicode="t" horiz-adv-x="346" 
d="M88 149v293h-73v36h73v119h38v-119h185v-36h-185v-293q0 -123 86 -123q23 0 45.5 8t32.5 16l11 7l17 -31q-45 -36 -106 -36q-54 0 -89 36t-35 123z" />
    <glyph glyph-name="u" unicode="u" horiz-adv-x="510" 
d="M60 166v312h38v-301q0 -151 147 -151q65 0 111 46.5t46 117.5v288h38v-478h-38v81q-50 -91 -162 -91q-82 0 -131 46.5t-49 129.5z" />
    <glyph glyph-name="v" unicode="v" horiz-adv-x="492" 
d="M232 -5l-227 483h42l174 -378l25 -56l25 55l174 379h42l-227 -483h-28z" />
    <glyph glyph-name="w" unicode="w" horiz-adv-x="698" 
d="M176 -5l-171 483h38l134 -378l15 -47q6 23 14 47l124 378h38l124 -378l14 -47q7 23 16 47l133 378h38l-171 -483h-34l-125 381l-14 48q-7 -26 -14 -48l-125 -381h-34z" />
    <glyph glyph-name="x" unicode="x" horiz-adv-x="442" 
d="M5 0l194 240l-194 238h46l118 -146l52 -67l53 68l117 145h46l-194 -240l194 -238h-46l-118 146l-52 67l-52 -67l-118 -146h-46z" />
    <glyph glyph-name="y" unicode="y" horiz-adv-x="515" 
d="M110 -147v36q43 0 70 18.5t56 81.5l11 24l-232 465h43l174 -352l34 -74l34 76l158 350h42l-230 -504q-19 -42 -38.5 -67.5t-41.5 -36.5t-38.5 -14t-41.5 -3z" />
    <glyph glyph-name="z" unicode="z" horiz-adv-x="453" 
d="M30 0v36l285 342l56 64h-331v36h374v-36l-284 -341l-57 -65h350v-36h-393z" />
    <glyph glyph-name="quoteright" unicode="&#x2019;" horiz-adv-x="165" 
d="M35 448l42 200h53l-53 -200h-42z" />
    <glyph glyph-name="quotesinglbase" unicode="&#x201a;" horiz-adv-x="165" 
d="M35 -137l42 200h53l-53 -200h-42z" />
    <glyph glyph-name="quotedblleft" unicode="&#x201c;" horiz-adv-x="283" 
d="M35 448l53 200h42l-42 -200h-53zM153 448l53 200h42l-42 -200h-53z" />
    <glyph glyph-name="quotedblright" unicode="&#x201d;" horiz-adv-x="283" 
d="M35 448l42 200h53l-53 -200h-42zM153 448l42 200h53l-53 -200h-42z" />
    <glyph glyph-name="exclam" 
 />
    <glyph glyph-name="quotedbl" 
 />
    <glyph glyph-name="numbersign" 
 />
    <glyph glyph-name="dollar" 
 />
    <glyph glyph-name="percent" 
 />
    <glyph glyph-name="ampersand" 
 />
    <glyph glyph-name="slash" 
 />
    <glyph glyph-name="two" 
 />
    <glyph glyph-name="seven" 
 />
    <glyph glyph-name="nine" 
 />
    <glyph glyph-name="colon" 
 />
    <glyph glyph-name="semicolon" 
 />
    <glyph glyph-name="less" 
 />
    <glyph glyph-name="equal" 
 />
    <glyph glyph-name="greater" 
 />
    <glyph glyph-name="question" 
 />
    <glyph glyph-name="at" 
 />
    <glyph glyph-name="B" 
 />
    <glyph glyph-name="D" 
 />
    <glyph glyph-name="E" 
 />
    <glyph glyph-name="F" 
 />
    <glyph glyph-name="G" 
 />
    <glyph glyph-name="H" 
 />
    <glyph glyph-name="J" 
 />
    <glyph glyph-name="K" 
 />
    <glyph glyph-name="L" 
 />
    <glyph glyph-name="M" 
 />
    <glyph glyph-name="N" 
 />
    <glyph glyph-name="O" 
 />
    <glyph glyph-name="Q" 
 />
    <glyph glyph-name="R" 
 />
    <glyph glyph-name="S" 
 />
    <glyph glyph-name="V" 
 />
    <glyph glyph-name="X" 
 />
    <glyph glyph-name="Y" 
 />
    <glyph glyph-name="Z" 
 />
    <glyph glyph-name="braceleft" 
 />
    <glyph glyph-name="bar" 
 />
    <glyph glyph-name="braceright" 
 />
    <glyph glyph-name="asciitilde" 
 />
    <glyph glyph-name="nbspace" 
 />
    <glyph glyph-name="exclamdown" 
 />
    <glyph glyph-name="cent" 
 />
    <glyph glyph-name="sterling" 
 />
    <glyph glyph-name="currency" 
 />
    <glyph glyph-name="yen" 
 />
    <glyph glyph-name="brokenbar" 
 />
    <glyph glyph-name="section" 
 />
    <glyph glyph-name="dieresis" 
 />
    <glyph glyph-name="copyright" 
 />
    <glyph glyph-name="ordfeminine" 
 />
    <glyph glyph-name="guillemotleft" 
 />
    <glyph glyph-name="logicalnot" 
 />
    <glyph glyph-name="registered" 
 />
    <glyph glyph-name="macron" 
 />
    <glyph glyph-name="degree" 
 />
    <glyph glyph-name="plusminus" 
 />
    <glyph glyph-name="twosuperior" 
 />
    <glyph glyph-name="threesuperior" 
 />
    <glyph glyph-name="acute" 
 />
    <glyph glyph-name="mu" 
 />
    <glyph glyph-name="paragraph" 
 />
    <glyph glyph-name="periodcentered" 
 />
    <glyph glyph-name="cedilla" 
 />
    <glyph glyph-name="onesuperior" 
 />
    <glyph glyph-name="ordmasculine" 
 />
    <glyph glyph-name="guillemotright" 
 />
    <glyph glyph-name="onequarter" 
 />
    <glyph glyph-name="onehalf" 
 />
    <glyph glyph-name="threequarters" 
 />
    <glyph glyph-name="questiondown" 
 />
    <glyph glyph-name="Agrave" 
 />
    <glyph glyph-name="Aacute" 
 />
    <glyph glyph-name="Acircumflex" 
 />
    <glyph glyph-name="Atilde" 
 />
    <glyph glyph-name="Adieresis" 
 />
    <glyph glyph-name="Aring" 
 />
    <glyph glyph-name="AE" 
 />
    <glyph glyph-name="Ccedilla" 
 />
    <glyph glyph-name="Egrave" 
 />
    <glyph glyph-name="Eacute" 
 />
    <glyph glyph-name="Ecircumflex" 
 />
    <glyph glyph-name="Edieresis" 
 />
    <glyph glyph-name="Igrave" 
 />
    <glyph glyph-name="Iacute" 
 />
    <glyph glyph-name="Icircumflex" 
 />
    <glyph glyph-name="Idieresis" 
 />
    <glyph glyph-name="Eth" 
 />
    <glyph glyph-name="Ntilde" 
 />
    <glyph glyph-name="Ograve" 
 />
    <glyph glyph-name="Oacute" 
 />
    <glyph glyph-name="Ocircumflex" 
 />
    <glyph glyph-name="Otilde" 
 />
    <glyph glyph-name="Odieresis" 
 />
    <glyph glyph-name="multiply" 
 />
    <glyph glyph-name="Oslash" 
 />
    <glyph glyph-name="Ugrave" 
 />
    <glyph glyph-name="Uacute" 
 />
    <glyph glyph-name="Ucircumflex" 
 />
    <glyph glyph-name="Udieresis" 
 />
    <glyph glyph-name="Yacute" 
 />
    <glyph glyph-name="Thorn" 
 />
    <glyph glyph-name="germandbls" 
 />
    <glyph glyph-name="agrave" 
 />
    <glyph glyph-name="aacute" 
 />
    <glyph glyph-name="acircumflex" 
 />
    <glyph glyph-name="atilde" 
 />
    <glyph glyph-name="adieresis" 
 />
    <glyph glyph-name="aring" 
 />
    <glyph glyph-name="ae" 
 />
    <glyph glyph-name="ccedilla" 
 />
    <glyph glyph-name="egrave" 
 />
    <glyph glyph-name="eacute" 
 />
    <glyph glyph-name="ecircumflex" 
 />
    <glyph glyph-name="edieresis" 
 />
    <glyph glyph-name="igrave" 
 />
    <glyph glyph-name="iacute" 
 />
    <glyph glyph-name="icircumflex" 
 />
    <glyph glyph-name="idieresis" 
 />
    <glyph glyph-name="eth" 
 />
    <glyph glyph-name="ntilde" 
 />
    <glyph glyph-name="ograve" 
 />
    <glyph glyph-name="oacute" 
 />
    <glyph glyph-name="ocircumflex" 
 />
    <glyph glyph-name="otilde" 
 />
    <glyph glyph-name="odieresis" 
 />
    <glyph glyph-name="divide" 
 />
    <glyph glyph-name="oslash" 
 />
    <glyph glyph-name="ugrave" 
 />
    <glyph glyph-name="uacute" 
 />
    <glyph glyph-name="ucircumflex" 
 />
    <glyph glyph-name="udieresis" 
 />
    <glyph glyph-name="yacute" 
 />
    <glyph glyph-name="thorn" 
 />
    <glyph glyph-name="ydieresis" 
 />
    <glyph glyph-name="Amacron" 
 />
    <glyph glyph-name="amacron" 
 />
    <glyph glyph-name="Abreve" 
 />
    <glyph glyph-name="abreve" 
 />
    <glyph glyph-name="Aogonek" 
 />
    <glyph glyph-name="aogonek" 
 />
    <glyph glyph-name="Cacute" 
 />
    <glyph glyph-name="cacute" 
 />
    <glyph glyph-name="Ccircumflex" 
 />
    <glyph glyph-name="ccircumflex" 
 />
    <glyph glyph-name="Cdotaccent" 
 />
    <glyph glyph-name="cdotaccent" 
 />
    <glyph glyph-name="Ccaron" 
 />
    <glyph glyph-name="ccaron" 
 />
    <glyph glyph-name="Dcaron" 
 />
    <glyph glyph-name="dcaron" 
 />
    <glyph glyph-name="Dcroat" 
 />
    <glyph glyph-name="dcroat" 
 />
    <glyph glyph-name="Emacron" 
 />
    <glyph glyph-name="emacron" 
 />
    <glyph glyph-name="Ebreve" 
 />
    <glyph glyph-name="ebreve" 
 />
    <glyph glyph-name="Edotaccent" 
 />
    <glyph glyph-name="edotaccent" 
 />
    <glyph glyph-name="Eogonek" 
 />
    <glyph glyph-name="eogonek" 
 />
    <glyph glyph-name="Ecaron" 
 />
    <glyph glyph-name="ecaron" 
 />
    <glyph glyph-name="Gcircumflex" 
 />
    <glyph glyph-name="gcircumflex" 
 />
    <glyph glyph-name="Gbreve" 
 />
    <glyph glyph-name="gbreve" 
 />
    <glyph glyph-name="Gdotaccent" 
 />
    <glyph glyph-name="gdotaccent" 
 />
    <glyph glyph-name="Gcommaaccent" 
 />
    <glyph glyph-name="gcommaaccent" 
 />
    <glyph glyph-name="Hcircumflex" 
 />
    <glyph glyph-name="hcircumflex" 
 />
    <glyph glyph-name="Hbar" 
 />
    <glyph glyph-name="hbar" 
 />
    <glyph glyph-name="Itilde" 
 />
    <glyph glyph-name="itilde" 
 />
    <glyph glyph-name="Imacron" 
 />
    <glyph glyph-name="imacron" 
 />
    <glyph glyph-name="Ibreve" 
 />
    <glyph glyph-name="ibreve" 
 />
    <glyph glyph-name="Iogonek" 
 />
    <glyph glyph-name="iogonek" 
 />
    <glyph glyph-name="Idotaccent" 
 />
    <glyph glyph-name="dotlessi" 
 />
    <glyph glyph-name="Jcircumflex" 
 />
    <glyph glyph-name="jcircumflex" 
 />
    <glyph glyph-name="Kcommaaccent" 
 />
    <glyph glyph-name="kcommaaccent" 
 />
    <glyph glyph-name="Lacute" 
 />
    <glyph glyph-name="lacute" 
 />
    <glyph glyph-name="Lcommaaccent" 
 />
    <glyph glyph-name="lcommaaccent" 
 />
    <glyph glyph-name="Lcaron" 
 />
    <glyph glyph-name="lcaron" 
 />
    <glyph glyph-name="Lslash" 
 />
    <glyph glyph-name="lslash" 
 />
    <glyph glyph-name="Nacute" 
 />
    <glyph glyph-name="nacute" 
 />
    <glyph glyph-name="Ncommaaccent" 
 />
    <glyph glyph-name="ncommaaccent" 
 />
    <glyph glyph-name="Ncaron" 
 />
    <glyph glyph-name="ncaron" 
 />
    <glyph glyph-name="Eng" 
 />
    <glyph glyph-name="eng" 
 />
    <glyph glyph-name="Omacron" 
 />
    <glyph glyph-name="omacron" 
 />
    <glyph glyph-name="Obreve" 
 />
    <glyph glyph-name="obreve" 
 />
    <glyph glyph-name="Ohungarumlaut" 
 />
    <glyph glyph-name="ohungarumlaut" 
 />
    <glyph glyph-name="OE" 
 />
    <glyph glyph-name="oe" 
 />
    <glyph glyph-name="Racute" 
 />
    <glyph glyph-name="racute" 
 />
    <glyph glyph-name="Rcommaaccent" 
 />
    <glyph glyph-name="rcommaaccent" 
 />
    <glyph glyph-name="Rcaron" 
 />
    <glyph glyph-name="rcaron" 
 />
    <glyph glyph-name="Sacute" 
 />
    <glyph glyph-name="sacute" 
 />
    <glyph glyph-name="Scircumflex" 
 />
    <glyph glyph-name="scircumflex" 
 />
    <glyph glyph-name="Scedilla" 
 />
    <glyph glyph-name="scedilla" 
 />
    <glyph glyph-name="Scaron" 
 />
    <glyph glyph-name="scaron" 
 />
    <glyph glyph-name="Tcommaaccent" 
 />
    <glyph glyph-name="tcommaaccent" 
 />
    <glyph glyph-name="Tcaron" 
 />
    <glyph glyph-name="tcaron" 
 />
    <glyph glyph-name="Tbar" 
 />
    <glyph glyph-name="tbar" 
 />
    <glyph glyph-name="Utilde" 
 />
    <glyph glyph-name="utilde" 
 />
    <glyph glyph-name="Umacron" 
 />
    <glyph glyph-name="umacron" 
 />
    <glyph glyph-name="Ubreve" 
 />
    <glyph glyph-name="ubreve" 
 />
    <glyph glyph-name="Uring" 
 />
    <glyph glyph-name="uring" 
 />
    <glyph glyph-name="Uhungarumlaut" 
 />
    <glyph glyph-name="uhungarumlaut" 
 />
    <glyph glyph-name="Uogonek" 
 />
    <glyph glyph-name="uogonek" 
 />
    <glyph glyph-name="Wcircumflex" 
 />
    <glyph glyph-name="wcircumflex" 
 />
    <glyph glyph-name="Ycircumflex" 
 />
    <glyph glyph-name="ycircumflex" 
 />
    <glyph glyph-name="Ydieresis" 
 />
    <glyph glyph-name="Zacute" 
 />
    <glyph glyph-name="zacute" 
 />
    <glyph glyph-name="Zdotaccent" 
 />
    <glyph glyph-name="zdotaccent" 
 />
    <glyph glyph-name="Zcaron" 
 />
    <glyph glyph-name="zcaron" 
 />
    <glyph glyph-name="florin" 
 />
    <glyph glyph-name="Aringacute" 
 />
    <glyph glyph-name="aringacute" 
 />
    <glyph glyph-name="AEacute" 
 />
    <glyph glyph-name="aeacute" 
 />
    <glyph glyph-name="Oslashacute" 
 />
    <glyph glyph-name="oslashacute" 
 />
    <glyph glyph-name="Scommaaccent" 
 />
    <glyph glyph-name="scommaaccent" 
 />
    <glyph glyph-name="circumflex" 
 />
    <glyph glyph-name="caron" 
 />
    <glyph glyph-name="breve" 
 />
    <glyph glyph-name="dotaccent" 
 />
    <glyph glyph-name="ring" 
 />
    <glyph glyph-name="ogonek" 
 />
    <glyph glyph-name="tilde" 
 />
    <glyph glyph-name="hungarumlaut" 
 />
    <glyph glyph-name="pi" 
 />
    <glyph glyph-name="Wgrave" 
 />
    <glyph glyph-name="wgrave" 
 />
    <glyph glyph-name="Wacute" 
 />
    <glyph glyph-name="wacute" 
 />
    <glyph glyph-name="Wdieresis" 
 />
    <glyph glyph-name="wdieresis" 
 />
    <glyph glyph-name="Ygrave" 
 />
    <glyph glyph-name="ygrave" 
 />
    <glyph glyph-name="endash" 
 />
    <glyph glyph-name="emdash" 
 />
    <glyph glyph-name="quoteleft" 
 />
    <glyph glyph-name="quotedblbase" 
 />
    <glyph glyph-name="dagger" 
 />
    <glyph glyph-name="daggerdbl" 
 />
    <glyph glyph-name="bullet" 
 />
    <glyph glyph-name="ellipsis" 
 />
    <glyph glyph-name="perthousand" 
 />
    <glyph glyph-name="guilsinglleft" 
 />
    <glyph glyph-name="guilsinglright" 
 />
    <glyph glyph-name="fraction" 
 />
    <glyph glyph-name="zerosuperior" 
 />
    <glyph glyph-name="foursuperior" 
 />
    <glyph glyph-name="fivesuperior" 
 />
    <glyph glyph-name="sixsuperior" 
 />
    <glyph glyph-name="sevensuperior" 
 />
    <glyph glyph-name="eightsuperior" 
 />
    <glyph glyph-name="ninesuperior" 
 />
    <glyph glyph-name="n.sups" 
 />
    <glyph glyph-name="zeroinferior" 
 />
    <glyph glyph-name="oneinferior" 
 />
    <glyph glyph-name="twoinferior" 
 />
    <glyph glyph-name="threeinferior" 
 />
    <glyph glyph-name="fourinferior" 
 />
    <glyph glyph-name="fiveinferior" 
 />
    <glyph glyph-name="sixinferior" 
 />
    <glyph glyph-name="seveninferior" 
 />
    <glyph glyph-name="eightinferior" 
 />
    <glyph glyph-name="nineinferior" 
 />
    <glyph glyph-name="Euro" 
 />
    <glyph glyph-name="trademark" 
 />
    <glyph glyph-name="minus" 
 />
    <glyph glyph-name="approxequal" 
 />
    <glyph glyph-name="notequal" 
 />
    <glyph glyph-name="lessequal" 
 />
    <glyph glyph-name="greaterequal" 
 />
    <glyph glyph-name="commainferior" 
 />
    <glyph glyph-name="commasuperior" 
 />
    <glyph glyph-name="periodinferior" 
 />
    <glyph glyph-name="periodsuperior" 
 />
    <glyph glyph-name="apple" 
 />
    <glyph glyph-name="a_alt" 
 />
    <glyph glyph-name="one.onum" 
 />
    <glyph glyph-name="two.onum" 
 />
    <glyph glyph-name="three.onum" 
 />
    <glyph glyph-name="four.onum" 
 />
    <glyph glyph-name="five.onum" 
 />
    <glyph glyph-name="six.onum" 
 />
    <glyph glyph-name="seven.onum" 
 />
    <glyph glyph-name="eight.onum" 
 />
    <glyph glyph-name="nine.onum" 
 />
    <glyph glyph-name="zero.onum" 
 />
    <glyph glyph-name="zero.pnum" 
 />
    <glyph glyph-name="one.pnum" 
 />
    <glyph glyph-name="two.pnum" 
 />
    <glyph glyph-name="three.pnum" 
 />
    <glyph glyph-name="four.pnum" 
 />
    <glyph glyph-name="five.pnum" 
 />
    <glyph glyph-name="six.pnum" 
 />
    <glyph glyph-name="seven.pnum" 
 />
    <glyph glyph-name="eight.pnum" 
 />
    <glyph glyph-name="nine.pnum" 
 />
    <glyph glyph-name="zero.onumtab" 
 />
    <glyph glyph-name="one.onumtab" 
 />
    <glyph glyph-name="two.onumtab" 
 />
    <glyph glyph-name="three.onumtab" 
 />
    <glyph glyph-name="four.onumtab" 
 />
    <glyph glyph-name="five.onumtab" 
 />
    <glyph glyph-name="six.onumtab" 
 />
    <glyph glyph-name="seven.onumtab" 
 />
    <glyph glyph-name="eight.onumtab" 
 />
    <glyph glyph-name="nine.onumtab" 
 />
    <glyph glyph-name="aacute_alt" 
 />
    <glyph glyph-name="agrave_alt" 
 />
    <glyph glyph-name="acircumflex_alt" 
 />
    <glyph glyph-name="adieresis_alt" 
 />
    <glyph glyph-name="atilde_alt" 
 />
    <glyph glyph-name="aring_alt" 
 />
    <glyph glyph-name="amacron_alt" 
 />
    <glyph glyph-name="abreve_alt" 
 />
    <glyph glyph-name="aringacute_alt" 
 />
    <glyph glyph-name="aogonek_alt" 
 />
    <glyph glyph-name="questiondown.cap" 
 />
    <glyph glyph-name="exclamdown.cap" 
 />
    <glyph glyph-name="hyphen.cap" 
 />
    <glyph glyph-name="endash.cap" 
 />
    <glyph glyph-name="emdash.cap" 
 />
    <glyph glyph-name="periodcentered.cap" 
 />
    <glyph glyph-name="parenleft.cap" 
 />
    <glyph glyph-name="parenright.cap" 
 />
    <glyph glyph-name="bracketleft.cap" 
 />
    <glyph glyph-name="bracketright.cap" 
 />
    <glyph glyph-name="braceleft.cap" 
 />
    <glyph glyph-name="braceright.cap" 
 />
    <glyph glyph-name="zero.slash" 
 />
    <glyph glyph-name="a.sups" 
 />
    <glyph glyph-name="b.sups" 
 />
    <glyph glyph-name="c.sups" 
 />
    <glyph glyph-name="d.sups" 
 />
    <glyph glyph-name="e.sups" 
 />
    <glyph glyph-name="f.sups" 
 />
    <glyph glyph-name="g.sups" 
 />
    <glyph glyph-name="h.sups" 
 />
    <glyph glyph-name="i.sups" 
 />
    <glyph glyph-name="j.sups" 
 />
    <glyph glyph-name="k.sups" 
 />
    <glyph glyph-name="l.sups" 
 />
    <glyph glyph-name="m.sups" 
 />
    <glyph glyph-name="o.sups" 
 />
    <glyph glyph-name="p.sups" 
 />
    <glyph glyph-name="q.sups" 
 />
    <glyph glyph-name="r.sups" 
 />
    <glyph glyph-name="s.sups" 
 />
    <glyph glyph-name="t.sups" 
 />
    <glyph glyph-name="u.sups" 
 />
    <glyph glyph-name="v.sups" 
 />
    <glyph glyph-name="w.sups" 
 />
    <glyph glyph-name="x.sups" 
 />
    <glyph glyph-name="y.sups" 
 />
    <glyph glyph-name="z.sups" 
 />
    <glyph glyph-name="commaaccentcomb" 
 />
    <glyph glyph-name="zero.dnom" 
 />
    <glyph glyph-name="one.dnom" 
 />
    <glyph glyph-name="two.dnom" 
 />
    <glyph glyph-name="three.dnom" 
 />
    <glyph glyph-name="four.dnom" 
 />
    <glyph glyph-name="five.dnom" 
 />
    <glyph glyph-name="six.dnom" 
 />
    <glyph glyph-name="seven.dnom" 
 />
    <glyph glyph-name="eight.dnom" 
 />
    <glyph glyph-name="nine.dnom" 
 />
    <glyph glyph-name="at.cap" 
 />
    <glyph glyph-name="zero.numerator" 
 />
    <glyph glyph-name="one.numerator" 
 />
    <glyph glyph-name="two.numerator" 
 />
    <glyph glyph-name="three.numerator" 
 />
    <glyph glyph-name="four.numerator" 
 />
    <glyph glyph-name="five.numerator" 
 />
    <glyph glyph-name="six.numerator" 
 />
    <glyph glyph-name="seven.numerator" 
 />
    <glyph glyph-name="eight.numerator" 
 />
    <glyph glyph-name="nine.numerator" 
 />
    <glyph glyph-name="comma.dnom" 
 />
    <glyph glyph-name="period.dnom" 
 />
    <glyph glyph-name="period.numerator" 
 />
    <glyph glyph-name="comma.numerator" 
 />
    <glyph glyph-name="A.small" 
 />
    <glyph glyph-name="B.small" 
 />
    <glyph glyph-name="C.small" 
 />
    <glyph glyph-name="D.small" 
 />
    <glyph glyph-name="E.small" 
 />
    <glyph glyph-name="F.small" 
 />
    <glyph glyph-name="G.small" 
 />
    <glyph glyph-name="H.small" 
 />
    <glyph glyph-name="I.small" 
 />
    <glyph glyph-name="J.small" 
 />
    <glyph glyph-name="K.small" 
 />
    <glyph glyph-name="L.small" 
 />
    <glyph glyph-name="M.small" 
 />
    <glyph glyph-name="N.small" 
 />
    <glyph glyph-name="O.small" 
 />
    <glyph glyph-name="P.small" 
 />
    <glyph glyph-name="Q.small" 
 />
    <glyph glyph-name="R.small" 
 />
    <glyph glyph-name="S.small" 
 />
    <glyph glyph-name="T.small" 
 />
    <glyph glyph-name="U.small" 
 />
    <glyph glyph-name="V.small" 
 />
    <glyph glyph-name="W.small" 
 />
    <glyph glyph-name="X.small" 
 />
    <glyph glyph-name="Y.small" 
 />
    <glyph glyph-name="Z.small" 
 />
    <glyph glyph-name="Agrave.small" 
 />
    <glyph glyph-name="Aacute.small" 
 />
    <glyph glyph-name="Acircumflex.small" 
 />
    <glyph glyph-name="Atilde.small" 
 />
    <glyph glyph-name="Adieresis.small" 
 />
    <glyph glyph-name="Amacron.small" 
 />
    <glyph glyph-name="Abreve.small" 
 />
    <glyph glyph-name="Aring.small" 
 />
    <glyph glyph-name="Aringacute.small" 
 />
    <glyph glyph-name="Aogonek.small" 
 />
    <glyph glyph-name="AE.small" 
 />
    <glyph glyph-name="AEacute.small" 
 />
    <glyph glyph-name="Cacute.small" 
 />
    <glyph glyph-name="Ccircumflex.small" 
 />
    <glyph glyph-name="Ccaron.small" 
 />
    <glyph glyph-name="Cdotaccent.small" 
 />
    <glyph glyph-name="Ccedilla.small" 
 />
    <glyph glyph-name="Dcaron.small" 
 />
    <glyph glyph-name="Dcroat.small" 
 />
    <glyph glyph-name="Egrave.small" 
 />
    <glyph glyph-name="Eacute.small" 
 />
    <glyph glyph-name="Ecircumflex.small" 
 />
    <glyph glyph-name="Ecaron.small" 
 />
    <glyph glyph-name="Edieresis.small" 
 />
    <glyph glyph-name="Emacron.small" 
 />
    <glyph glyph-name="Ebreve.small" 
 />
    <glyph glyph-name="Edotaccent.small" 
 />
    <glyph glyph-name="Eogonek.small" 
 />
    <glyph glyph-name="Gcircumflex.small" 
 />
    <glyph glyph-name="Gbreve.small" 
 />
    <glyph glyph-name="Gdotaccent.small" 
 />
    <glyph glyph-name="Gcommaaccent.small" 
 />
    <glyph glyph-name="Hcircumflex.small" 
 />
    <glyph glyph-name="Hbar.small" 
 />
    <glyph glyph-name="Igrave.small" 
 />
    <glyph glyph-name="Iacute.small" 
 />
    <glyph glyph-name="Icircumflex.small" 
 />
    <glyph glyph-name="Itilde.small" 
 />
    <glyph glyph-name="Idieresis.small" 
 />
    <glyph glyph-name="Imacron.small" 
 />
    <glyph glyph-name="Ibreve.small" 
 />
    <glyph glyph-name="Idotaccent.small" 
 />
    <glyph glyph-name="Iogonek.small" 
 />
    <glyph glyph-name="Jcircumflex.small" 
 />
    <glyph glyph-name="Kcommaaccent.small" 
 />
    <glyph glyph-name="Lacute.small" 
 />
    <glyph glyph-name="Lcaron.small" 
 />
    <glyph glyph-name="Lcommaaccent.small" 
 />
    <glyph glyph-name="Lslash.small" 
 />
    <glyph glyph-name="Nacute.small" 
 />
    <glyph glyph-name="Ncaron.small" 
 />
    <glyph glyph-name="Ntilde.small" 
 />
    <glyph glyph-name="Ncommaaccent.small" 
 />
    <glyph glyph-name="Ograve.small" 
 />
    <glyph glyph-name="Oacute.small" 
 />
    <glyph glyph-name="Ocircumflex.small" 
 />
    <glyph glyph-name="Otilde.small" 
 />
    <glyph glyph-name="Odieresis.small" 
 />
    <glyph glyph-name="Omacron.small" 
 />
    <glyph glyph-name="Obreve.small" 
 />
    <glyph glyph-name="Ohungarumlaut.small" 
 />
    <glyph glyph-name="Oslash.small" 
 />
    <glyph glyph-name="Oslashacute.small" 
 />
    <glyph glyph-name="OE.small" 
 />
    <glyph glyph-name="Racute.small" 
 />
    <glyph glyph-name="Rcaron.small" 
 />
    <glyph glyph-name="Rcommaaccent.small" 
 />
    <glyph glyph-name="Sacute.small" 
 />
    <glyph glyph-name="Scircumflex.small" 
 />
    <glyph glyph-name="Scaron.small" 
 />
    <glyph glyph-name="Scedilla.small" 
 />
    <glyph glyph-name="Scommaaccent.small" 
 />
    <glyph glyph-name="germandbls.small" 
 />
    <glyph glyph-name="Tcaron.small" 
 />
    <glyph glyph-name="Tcommaaccent.small" 
 />
    <glyph glyph-name="Tbar.small" 
 />
    <glyph glyph-name="Ugrave.small" 
 />
    <glyph glyph-name="Uacute.small" 
 />
    <glyph glyph-name="Ucircumflex.small" 
 />
    <glyph glyph-name="Utilde.small" 
 />
    <glyph glyph-name="Udieresis.small" 
 />
    <glyph glyph-name="Umacron.small" 
 />
    <glyph glyph-name="Ubreve.small" 
 />
    <glyph glyph-name="Uring.small" 
 />
    <glyph glyph-name="Uhungarumlaut.small" 
 />
    <glyph glyph-name="Uogonek.small" 
 />
    <glyph glyph-name="Wgrave.small" 
 />
    <glyph glyph-name="Wacute.small" 
 />
    <glyph glyph-name="Wcircumflex.small" 
 />
    <glyph glyph-name="Wdieresis.small" 
 />
    <glyph glyph-name="Ygrave.small" 
 />
    <glyph glyph-name="Yacute.small" 
 />
    <glyph glyph-name="Ycircumflex.small" 
 />
    <glyph glyph-name="Ydieresis.small" 
 />
    <glyph glyph-name="Zacute.small" 
 />
    <glyph glyph-name="Zcaron.small" 
 />
    <glyph glyph-name="Zdotaccent.small" 
 />
    <glyph glyph-name="Eng.small" 
 />
    <glyph glyph-name="Eth.small" 
 />
    <glyph glyph-name="Thorn.small" 
 />
    <glyph glyph-name="cent.oldstyle" 
 />
    <glyph glyph-name="sterling.oldstyle" 
 />
    <glyph glyph-name="florin.oldstyle" 
 />
    <glyph glyph-name="yen.oldstyle" 
 />
    <glyph glyph-name="Euro.oldstyle" 
 />
    <glyph glyph-name="dollar.oldstyle" 
 />
    </font>
</defs>
</svg>
