<svg width="227" height="322" fill="none" xmlns="http://www.w3.org/2000/svg">
    <g clip-path="url(#a)">
        <path d="M214.93 123.77c-2.86.49-5.34 1.83-7.7 3.45-13.54 9.33-27.75 17.54-42.35 25.08-1.77.91-3.57 1.8-5.6 2.02-2.07.22-3.02-.64-2.99-2.71.03-1.97.76-3.75 1.56-5.49 2.3-4.98 5.65-9.24 9.18-13.4 8.08-9.51 15.72-19.34 22.78-29.65 5.66-8.27 12.27-15.85 18.38-23.8 1.87-2.43 3.33-5 3.35-8.19.03-4.22-1.55-7.72-4.64-10.57-1.69-1.56-3.69-2.16-5.91-1.86-3.08.42-5.45 2.22-7.64 4.25-2.92 2.71-5.38 5.85-7.91 8.9-2.19 2.65-4.26 5.41-6.35 8.14-3.16 4.12-6.13 8.39-9.46 12.37-6.75 8.06-14.04 15.64-21.32 23.23-3.04 3.17-6.03 6.41-9.41 9.23-2.24 1.87-4.62 1.07-5.66-1.68-.82-2.17-.33-4.18.55-6.12 4.73-10.45 8.87-21.13 12.7-31.93 4.13-11.66 8.04-23.41 12.5-34.95 2.86-7.39 5.94-14.69 8.95-22.02 1.11-2.71 1.65-5.52 1.32-8.4-.42-3.65-2.65-6.11-5.77-7.83-2.71-1.5-5.52-1.96-8.43-.61-1.97.92-3.49 2.38-4.78 4.12-2.22 2.96-3.44 6.42-4.91 9.75-2.39 5.38-4.67 10.82-7.36 16.06-6.97 13.58-13.42 27.39-18.4 41.84-1.93 5.59-3.9 11.16-6.74 16.37-.82 1.52-1.75 2.97-3.07 4.11-1.52 1.31-2.98 1-3.9-.78-.73-1.41-1.02-2.98-1.11-4.5-.33-5.95.11-11.89.76-17.8.58-5.27 1.42-10.52 2.04-15.79.64-5.47 1.34-10.94 2.09-16.4.57-4.19 1.15-8.38 1.48-12.59.2-2.5.51-4.97.85-7.44.57-4.13 1.18-8.25 1.1-12.43 0-1.28.09-2.57-.02-3.83-.11-1.29-.38-2.58-.65-3.85-1.43-6.62-6.61-8.9-12.03-7.84-3.47.68-5.34 3.3-6.69 6.33-1.62 3.65-2.24 7.56-2.89 11.46-1.63 9.8-3.22 19.62-4.91 29.41-1.43 8.3-2.99 16.58-4.44 24.87-1.78 10.14-3.41 20.31-5.76 30.35-1.59 6.77-3.33 13.49-6.26 19.83-1.79 3.88-4.51 6.97-8.02 9.34-1.9 1.28-3.24.71-4.02-1.45-1.06-2.93-1.39-6-1.8-9.04-.73-5.37-1.33-10.77-1.93-16.16-.53-4.7-1.32-9.36-2.71-13.88-2.22-7.21-5.94-13.51-11.7-18.48-2.06-1.78-4.39-3.19-7.23-3.04-5.5.3-6.64 2.79-5.84 7.07.48 2.59 1.22 5.12 1.55 7.75.63 5.04.48 10.12.62 15.18.16 5.98.29 11.95.62 17.92.07 1.21.15 2.44.35 3.66.41 2.42.82 4.84 1.01 7.28.27 3.63-.05 7.25-.56 10.85-.75 5.25-1.54 10.48-.87 15.82.54 4.32 1.19 8.63 2.06 12.89 1.04 5.08 2.25 10.12 3.24 15.21 1.3 6.62 2.3 13.29 3.88 19.85 1.09 4.54 2.08 9.12 4.16 13.34.39.78.45 1.48.23 2.29-.78 2.86-1.84 5.61-2.91 8.37-6.16 15.9-12.92 31.55-19.6 47.23C13.31 290.02 6.64 305.52 0 321.03h80.8c4.62-10.83 9.24-21.65 13.87-32.48 3.6-8.4 6.87-16.95 10.99-25.12 2.36-4.68 4.99-9.22 8.62-13.06 4.34-4.59 8.73-9.13 12.91-13.86 3.94-4.46 7.89-8.92 11.08-13.99 3.79-6.02 7.67-11.98 11.75-17.81 2.16-3.09 4.81-5.77 7.12-8.73 3.05-3.92 5.42-8.29 7.76-12.66.42-.79.93-1.43 1.68-1.96 10.46-7.43 21.05-14.66 31.97-21.41 7.27-4.49 14.44-9.18 20.89-14.85 2.99-2.63 5.32-5.74 6.31-9.69 1.83-7.23-3.45-12.91-10.82-11.64z" fill="#F4F7F9"/>
    </g>
    <defs>
        <clipPath id="a">
            <path fill="#fff" d="M0 0h226.12v321.03H0z"/>
        </clipPath>
    </defs>
</svg>
