<svg width="254" height="120" fill="none" xmlns="http://www.w3.org/2000/svg">
    <path fill-rule="evenodd" clip-rule="evenodd" d="M9.705 21.019c.857 10.712 10.216 18.698 20.9 17.837 10.687-.86 18.65-10.244 17.792-20.956C47.54 7.19 38.18-.798 27.497.064 16.81.924 8.847 10.306 9.705 21.02z" fill="#73AD89"/>
    <path fill-rule="evenodd" clip-rule="evenodd" d="M50.125 31.488a1.366 1.366 0 0 0 .461-2.603l-14.852-6.833a1.366 1.366 0 0 0-1.137 2.482l14.853 6.833c.22.102.451.139.675.121z" fill="#8B8D90"/>
    <path fill-rule="evenodd" clip-rule="evenodd" d="M37.349 39.293c.891 11.128 10.612 19.425 21.712 18.53 11.099-.895 19.372-10.641 18.48-21.77C76.65 24.927 66.93 16.63 55.83 17.526c-11.099.894-19.374 10.64-18.48 21.768z" fill="#C0433C"/>
    <path fill-rule="evenodd" clip-rule="evenodd" d="M37.527 39.279c.882 11.01 10.535 19.249 21.52 18.365 10.982-.886 19.199-10.564 18.317-21.575-.884-11.014-10.537-19.251-21.521-18.365-10.98.884-19.2 10.564-18.316 21.575zm-.36.03c-.897-11.21 7.467-21.063 18.648-21.964 11.181-.902 21.008 7.484 21.905 18.694.9 11.208-7.465 21.062-18.646 21.964-11.18.9-21.007-7.487-21.907-18.695z" fill="#CAD369"/>
    <path fill-rule="evenodd" clip-rule="evenodd" d="M25.6 70.396c.384.033.781-.098 1.077-.392l27.077-26.966a1.37 1.37 0 0 0 .008-1.932 1.36 1.36 0 0 0-1.927-.006L24.756 68.066a1.366 1.366 0 0 0 .845 2.33z" fill="#8B8D90"/>
    <mask id="a" style="mask-type:alpha" maskUnits="userSpaceOnUse" x="0" y="47" width="42" height="43">
        <path fill-rule="evenodd" clip-rule="evenodd" d="M0 47.317h41.642v41.749H0V47.317z" fill="#fff"/>
    </mask>
    <g mask="url(#a)">
        <path fill-rule="evenodd" clip-rule="evenodd" d="M1.594 60.196c-4.405 10.646.633 22.855 11.251 27.272 10.618 4.416 22.796-.635 27.203-11.28 4.405-10.647-.632-22.856-11.25-27.273-10.62-4.416-22.799.635-27.204 11.28z" fill="#CAD369"/>
    </g>
    <path fill-rule="evenodd" clip-rule="evenodd" d="M51.927 99.904a1.363 1.363 0 0 0 1.4-.385 1.37 1.37 0 0 0-.082-1.93L28.066 74.416a1.362 1.362 0 0 0-1.925.082 1.37 1.37 0 0 0 .084 1.93L51.4 99.603c.158.143.335.242.526.3z" fill="#8B8D90"/>
    <path fill-rule="evenodd" clip-rule="evenodd" d="M46.053 97.865c-3.326 8.04.477 17.262 8.497 20.597 8.02 3.335 17.22-.478 20.546-8.519 3.327-8.041-.479-17.262-8.499-20.597-8.018-3.336-17.217.478-20.544 8.519z" fill="#73AD89"/>
    <path fill-rule="evenodd" clip-rule="evenodd" d="m102.564 41.184-1.059-3.027c-.622-1.83-1.099-3.505-1.43-5.024a69.406 69.406 0 0 1-1.526 5.086l-1.028 2.965h5.043zm.466-14.073 8.341 22.342h-6.037l-1.432-4.087h-7.719l-1.432 4.087h-5.974l8.339-22.342h5.914zM128.115 33.258v16.195h-5.322v-2.184c-1.016 1.749-2.698 2.62-5.042 2.62-2.055 0-3.601-.674-4.636-2.027-.728-.937-1.092-2.424-1.092-4.463v-10.14h5.292v8.643c0 1.393.135 2.29.405 2.684.415.645 1.12.968 2.116.968 1.225 0 2.095-.51 2.614-1.53.228-.479.343-1.351.343-2.622v-8.144h5.322zM140.566 33.258v3.496h-3.829v6.676c0 1.499.674 2.248 2.023 2.248.79 0 1.411-.156 1.866-.468l.937 3.808c-1.018.435-2.502.653-4.452.653-2.408 0-4.016-.519-4.824-1.559a3.489 3.489 0 0 1-.685-1.499c-.103-.54-.158-1.434-.158-2.683v-7.176h-2.705v-3.496h2.705v-3.433l5.293-2.777v6.21h3.829zM144.237 26.518c.664 0 1.234.234 1.711.703.477.468.716 1.046.716 1.73 0 .666-.239 1.238-.716 1.716a2.325 2.325 0 0 1-1.711.718c-.687 0-1.26-.238-1.729-.718a2.368 2.368 0 0 1-.699-1.715c0-.685.232-1.263.699-1.731.469-.469 1.042-.703 1.729-.703zm-2.648 22.935h5.291V33.26h-5.291v16.194zM163.44 37.814h-4.888c-.082-.624-.327-1.066-.73-1.327-.405-.258-1.065-.389-1.976-.389-1.413 0-2.115.436-2.115 1.31 0 .459.221.79.667 1 .446.208 1.478.466 3.097.78 2.344.457 3.989 1.066 4.933 1.825.944.759 1.417 1.856 1.417 3.292 0 1.872-.779 3.308-2.334 4.305-1.37.853-3.187 1.279-5.448 1.279-2.864 0-4.98-.676-6.35-2.028-.664-.664-1.092-1.189-1.291-1.575-.196-.385-.327-1.015-.389-1.887h5.199c.082.747.337 1.274.761 1.575.425.302 1.135.453 2.132.453 1.66 0 2.489-.55 2.489-1.655 0-.479-.196-.826-.589-1.045-.394-.218-1.33-.493-2.803-.827-2.301-.498-3.868-.978-4.699-1.434-1.326-.75-1.992-1.956-1.992-3.62 0-1.623.645-2.866 1.929-3.73 1.287-.863 3.115-1.294 5.478-1.294 2.926 0 5.012.697 6.256 2.09.748.812 1.162 1.778 1.246 2.902zM170.723 33.258v2.155c1.203-1.727 2.863-2.592 4.981-2.592 2.135 0 3.652.865 4.543 2.592 1.306-1.727 3.017-2.592 5.135-2.592 1.867 0 3.307.584 4.326 1.747.872 1.042 1.308 2.414 1.308 4.12v10.765h-5.291V40.06c0-1.935-.748-2.901-2.241-2.901-1.018 0-1.744.415-2.178 1.247-.23.437-.342 1.155-.342 2.154v8.892h-5.293v-9.61c0-1.79-.715-2.684-2.147-2.684-1.742 0-2.614 1.134-2.614 3.402v8.892h-5.291V33.258h5.104zM108.011 63.372h-5.542c-.082-1.83-1.275-2.746-3.578-2.746-2.013 0-3.02.656-3.02 1.965 0 .603.27 1.04.81 1.31.456.23 1.92.655 4.39 1.28 2.344.603 4.045 1.24 5.104 1.903 1.824 1.124 2.739 2.808 2.739 5.056 0 2.454-.966 4.349-2.895 5.68-1.682 1.165-3.891 1.746-6.63 1.746-3.32 0-5.851-.8-7.593-2.402-1.536-1.394-2.325-3.287-2.367-5.68h5.851c.125 2.372 1.567 3.556 4.327 3.556 2.262 0 3.393-.757 3.393-2.277 0-.707-.298-1.232-.887-1.575-.592-.344-2.06-.847-4.406-1.514-2.841-.81-4.75-1.632-5.724-2.465-1.143-.978-1.713-2.391-1.713-4.243 0-2.205.913-3.942 2.738-5.21 1.599-1.104 3.642-1.656 6.132-1.656 2.967 0 5.229.718 6.786 2.153 1.347 1.249 2.044 2.955 2.085 5.119zM126.467 72.64c-.312 2.308-1.265 4.057-2.864 5.241-1.391 1.04-3.134 1.56-5.228 1.56-2.739 0-4.898-.873-6.474-2.62-1.371-1.518-2.054-3.444-2.054-5.772 0-2.809.882-5.004 2.643-6.585 1.558-1.393 3.53-2.09 5.914-2.09 2.428 0 4.37.644 5.822 1.934 1.287 1.143 1.992 2.6 2.116 4.367h-5.135c-.27-1.621-1.174-2.433-2.709-2.433-2.179 0-3.267 1.592-3.267 4.773 0 2.977 1.057 4.464 3.173 4.464 1.682 0 2.669-.947 2.959-2.84h5.104zM130.793 56.07c.664 0 1.235.234 1.711.702.477.468.717 1.046.717 1.731 0 .666-.24 1.238-.717 1.716a2.323 2.323 0 0 1-1.711.718c-.687 0-1.259-.238-1.728-.718a2.368 2.368 0 0 1-.699-1.716c0-.685.232-1.263.699-1.73.469-.47 1.041-.703 1.728-.703zm-2.647 22.935h5.291V62.81h-5.291v16.194zM147.225 69.113c-.27-2.102-1.38-3.151-3.33-3.151-1.972 0-3.113 1.05-3.424 3.151h6.754zm4.886 4.93c-.249.958-.726 1.84-1.433 2.652-1.598 1.831-3.807 2.746-6.628 2.746-2.552 0-4.617-.706-6.194-2.121-1.763-1.58-2.645-3.671-2.645-6.272 0-2.725.913-4.909 2.739-6.554 1.576-1.413 3.537-2.121 5.882-2.121 2.842 0 5.032.936 6.568 2.808 1.347 1.645 2.022 3.798 2.022 6.46v.5h-12.014c.043 1.164.384 2.074 1.026 2.73.644.655 1.516.983 2.616.983 1.349 0 2.375-.603 3.082-1.81h4.979zM159.3 62.81v2.154c1.286-1.727 3.05-2.591 5.291-2.591 2.158 0 3.735.718 4.73 2.152.644.958.967 2.434.967 4.432v10.047h-5.324v-9.172c0-.853-.083-1.49-.249-1.905-.333-.81-1.069-1.216-2.211-1.216-1.242 0-2.114.478-2.612 1.434-.271.5-.405 1.24-.405 2.218v8.641h-5.291V62.81h5.104zM188.557 72.64c-.311 2.308-1.265 4.057-2.863 5.241-1.392 1.04-3.134 1.56-5.229 1.56-2.738 0-4.897-.873-6.474-2.62-1.37-1.518-2.053-3.444-2.053-5.772 0-2.809.881-5.004 2.643-6.585 1.557-1.393 3.529-2.09 5.914-2.09 2.427 0 4.37.644 5.822 1.934 1.286 1.143 1.991 2.6 2.116 4.367h-5.135c-.271-1.621-1.174-2.433-2.71-2.433-2.178 0-3.266 1.592-3.266 4.773 0 2.977 1.057 4.464 3.173 4.464 1.681 0 2.668-.947 2.958-2.84h5.104zM201.318 69.113c-.27-2.102-1.38-3.151-3.33-3.151-1.972 0-3.113 1.05-3.424 3.151h6.754zm4.886 4.93c-.249.958-.726 1.84-1.433 2.652-1.598 1.831-3.807 2.746-6.628 2.746-2.552 0-4.617-.706-6.194-2.121-1.763-1.58-2.645-3.671-2.645-6.272 0-2.725.913-4.909 2.739-6.554 1.576-1.413 3.537-2.121 5.882-2.121 2.842 0 5.032.936 6.568 2.808 1.347 1.645 2.022 3.798 2.022 6.46v.5h-12.014c.043 1.164.384 2.074 1.026 2.73.644.655 1.516.983 2.616.983 1.349 0 2.375-.603 3.082-1.81h4.979zM107.419 86.214v4.805H96.774v4.37h9.215v4.555h-9.215v8.612h-5.819V86.214h16.464zM116.445 95.794c-.997 0-1.763.406-2.305 1.217-.539.812-.809 1.954-.809 3.431 0 3.121 1.059 4.682 3.174 4.682 2.118 0 3.175-1.571 3.175-4.713 0-3.078-1.078-4.617-3.235-4.617zm.06 13.198c-2.717 0-4.876-.893-6.472-2.683-1.392-1.559-2.085-3.515-2.085-5.867 0-2.703.892-4.855 2.677-6.457 1.555-1.374 3.506-2.06 5.851-2.06 2.739 0 4.906.885 6.504 2.65 1.37 1.521 2.053 3.465 2.053 5.836 0 2.727-.891 4.891-2.676 6.491-1.555 1.394-3.506 2.09-5.852 2.09zM142.805 92.361v16.195h-5.322v-2.184c-1.016 1.748-2.697 2.621-5.041 2.621-2.056 0-3.601-.676-4.637-2.028-.728-.937-1.092-2.424-1.092-4.463v-10.14h5.293v8.643c0 1.393.134 2.289.405 2.683.414.646 1.119.968 2.116.968 1.224 0 2.094-.509 2.614-1.53.228-.478.342-1.35.342-2.621v-8.144h5.322zM150.616 92.361v2.155c1.287-1.727 3.051-2.592 5.291-2.592 2.159 0 3.736.718 4.73 2.153.645.958.968 2.433.968 4.432v10.047h-5.324v-9.173c0-.853-.084-1.489-.249-1.905-.333-.81-1.069-1.215-2.211-1.215-1.242 0-2.114.478-2.613 1.434-.27.5-.405 1.24-.405 2.217v8.642h-5.29V92.361h5.103zM171.875 96.043c-1.016 0-1.801.38-2.35 1.138-.549.761-.825 1.827-.825 3.201 0 2.849 1.059 4.274 3.175 4.274 1.016 0 1.81-.379 2.382-1.138.571-.761.855-1.805.855-3.136 0-1.353-.29-2.415-.872-3.184-.58-.77-1.369-1.155-2.365-1.155zm8.341-9.83v22.344h-5.322v-1.903c-.935 1.559-2.398 2.338-4.388 2.338-2.324 0-4.152-.882-5.479-2.652-1.141-1.559-1.709-3.556-1.709-5.99 0-2.726.714-4.857 2.145-6.397 1.246-1.374 2.832-2.059 4.761-2.059 2.015 0 3.57.779 4.67 2.34v-8.021h5.322zM192.789 101.161l-2.428.53c-1.265.291-2.106.582-2.52.875-.417.291-.623.728-.623 1.309 0 1.271.716 1.905 2.147 1.905 1.203 0 2.137-.427 2.803-1.28.372-.457.57-1.185.59-2.184l.031-1.155zm5.695 7.396H193.1a5.71 5.71 0 0 1-.28-1.53c-.995 1.312-2.758 1.965-5.291 1.965-1.888 0-3.34-.497-4.356-1.496-.892-.875-1.34-2.028-1.34-3.465 0-1.977.871-3.37 2.615-4.18.747-.334 2.283-.718 4.605-1.155l3.673-.687v-.966c-.042-1.187-.862-1.78-2.458-1.78-.872 0-1.509.152-1.914.453-.404.302-.669.837-.794 1.608h-5.01c.187-3.601 2.78-5.398 7.78-5.398 2.657 0 4.649.478 5.976 1.434.623.478 1.047 1.013 1.277 1.606.226.593.343 1.493.343 2.7 0 .208-.012.852-.033 1.935v.342l-.031 2.683v1.468c0 .25-.01.646-.032 1.186v.685c0 1.168.218 2.03.654 2.592zM210 92.361v3.495h-3.829v6.677c0 1.499.674 2.248 2.023 2.248.79 0 1.411-.156 1.866-.468l.937 3.807c-1.018.436-2.502.654-4.452.654-2.408 0-4.016-.519-4.824-1.559a3.489 3.489 0 0 1-.685-1.499c-.103-.541-.158-1.434-.158-2.683v-7.177h-2.705v-3.495h2.705v-3.433l5.293-2.777v6.21H210zM213.672 85.621c.664 0 1.235.234 1.712.703.476.468.716 1.046.716 1.73 0 .666-.24 1.238-.716 1.716a2.327 2.327 0 0 1-1.712.718c-.687 0-1.259-.238-1.728-.718a2.367 2.367 0 0 1-.699-1.715c0-.685.232-1.263.699-1.731.469-.469 1.041-.703 1.728-.703zm-2.647 22.935h5.291V92.362h-5.291v16.194zM226.59 95.794c-.997 0-1.764.406-2.305 1.217-.539.812-.81 1.954-.81 3.431 0 3.121 1.059 4.682 3.175 4.682 2.118 0 3.175-1.571 3.175-4.713 0-3.078-1.079-4.617-3.235-4.617zm.06 13.198c-2.718 0-4.876-.893-6.472-2.683-1.392-1.559-2.085-3.515-2.085-5.867 0-2.703.891-4.855 2.676-6.457 1.556-1.374 3.506-2.06 5.852-2.06 2.738 0 4.905.885 6.503 2.65 1.371 1.521 2.054 3.465 2.054 5.836 0 2.727-.892 4.891-2.677 6.491-1.555 1.394-3.506 2.09-5.851 2.09z" fill="#fff"/>
    <mask id="b" style="mask-type:alpha" maskUnits="userSpaceOnUse" x="236" y="91" width="18" height="18">
        <path fill-rule="evenodd" clip-rule="evenodd" d="M236.984 91.924h16.091v16.632h-16.091V91.924z" fill="#fff"/>
    </mask>
    <g mask="url(#b)">
        <path fill-rule="evenodd" clip-rule="evenodd" d="M242.088 92.361v2.155c1.286-1.727 3.05-2.592 5.291-2.592 2.158 0 3.735.718 4.73 2.153.644.958.967 2.433.967 4.432v10.047h-5.324v-9.173c0-.853-.083-1.489-.249-1.905-.333-.81-1.069-1.215-2.211-1.215-1.242 0-2.114.478-2.612 1.434-.271.5-.405 1.24-.405 2.217v8.642h-5.291V92.361h5.104z" fill="#fff"/>
    </g>
</svg>
