<svg xmlns="http://www.w3.org/2000/svg" width="151.304" height="87.031">
    <defs>
        <style>
            .cls-1{fill:#e1016c}.cls-3{fill:none}.cls-4{fill:#ea8cbe}.cls-7,.cls-8{fill:#0a3cab;stroke:#0a3cab}.cls-7{stroke-width:.5px}.cls-8{stroke-miterlimit:10}.cls-9{fill:#a3a5c4}
        </style>
    </defs>
    <g id="Logo_Header_2" data-name="Logo Header 2" transform="translate(-53.915 -91.538)">
        <g id="Group_2515" data-name="Group 2515" transform="translate(71.631 123.574)">
            <path id="Path_11293" data-name="Path 11293" class="cls-1" d="M78.535 136.059v.011-.01z" transform="translate(-78.535 -136.059)"/>
        </g>
        <g id="Group_2516" data-name="Group 2516" transform="translate(70.597 123.37)">
            <path id="Path_11294" data-name="Path 11294" class="cls-1" d="m77.1 135.776 1.034.2-.885-.185z" transform="translate(-77.098 -135.776)"/>
        </g>
        <g id="Group_2517" data-name="Group 2517" transform="translate(69.93 125.71)">
            <path id="Path_11295" data-name="Path 11295" d="M76.171 139.027a.141.141 0 0 1 .014.017z" transform="translate(-76.171 -139.027)" style="fill:#f266b0"/>
        </g>
        <g id="Group_2518" data-name="Group 2518" transform="translate(82.242 106.055)">
            <path id="Path_11296" data-name="Path 11296" class="cls-3" d="m93.3 113.932-.016.013c4.391-2.208 7.3-2.523 9.211-1.931-3.882-1.276-9.195 1.918-9.195 1.918z" transform="translate(-93.282 -111.713)"/>
        </g>
        <g id="Group_2519" data-name="Group 2519" transform="translate(94.441 109.043)">
            <path id="Path_11297" data-name="Path 11297" class="cls-3" d="M110.235 115.865a3.902 3.902 0 0 1 .002.004z" transform="translate(-110.235 -115.865)"/>
        </g>
        <g id="Group_2520" data-name="Group 2520" transform="translate(91.56 106.392)">
            <path id="Path_11298" data-name="Path 11298" class="cls-3" d="M106.494 112.28a6.446 6.446 0 0 0-.263-.1c.091.031.176.066.263.1z" transform="translate(-106.231 -112.181)"/>
        </g>
        <g id="Group_2521" data-name="Group 2521" transform="translate(91.453 106.356)">
            <path id="Path_11299" data-name="Path 11299" class="cls-4" d="M106.189 112.167c-.036-.012-.071-.025-.107-.036.036.012.072.023.107.036z" transform="translate(-106.082 -112.131)"/>
        </g>
        <g id="Group_2522" data-name="Group 2522" transform="translate(91.823 106.491)">
            <path id="Path_11300" data-name="Path 11300" class="cls-4" d="M106.6 112.319a5.031 5.031 0 0 1 2.618 2.552 4.822 4.822 0 0 0-2.618-2.552z" transform="translate(-106.597 -112.319)"/>
        </g>
        <g id="Group_2523" data-name="Group 2523" transform="translate(69.151 91.538)">
            <ellipse id="Ellipse_787" data-name="Ellipse 787" class="cls-1" cx="7.556" cy="5.059" rx="7.556" ry="5.059" transform="rotate(-60 11.334 6.543)"/>
        </g>
        <g id="Group_2524" data-name="Group 2524" transform="translate(89.626 124.079)">
            <path id="Path_11301" data-name="Path 11301" class="cls-3" d="m104.32 136.76-.776 1.487c.199-.366.484-.914.776-1.487z" transform="translate(-103.544 -136.76)"/>
        </g>
        <g id="Group_2525" data-name="Group 2525" transform="translate(90.403 124.075)">
            <path id="Path_11302" data-name="Path 11302" class="cls-1" d="M104.625 136.755z" transform="translate(-104.623 -136.755)"/>
        </g>
        <g id="Group_2526" data-name="Group 2526" transform="translate(53.915 106.094)">
            <path id="Path_11303" data-name="Path 11303" class="cls-1" d="M100.732 130.161a.552.552 0 0 0-.065-.1.543.543 0 0 0-.077-.065.609.609 0 0 0-.784.065l-1.32 1.32c-.5.1-.231-.424-.231-.424l2.313-2.313a.608.608 0 0 0-.861-.86l-2.015 2.016c-.766.246-.411-.388-.411-.388l2.4-3.393a.608.608 0 1 0-.993-.7l-2.14 3.027c-1.271 1.043-1.256-.435-1.256-.435l2.357-3.336a.608.608 0 1 0-.993-.7l-2.84 4.018a.582.582 0 0 0-.053.121l-.015.011c-1.721 1.293-.527-1.1-.525-1.1l1.089-2.055a.608.608 0 1 0-1.075-.57l-1.6 3.026-.413.779a.549.549 0 0 0-.032.106c-.225.447-.507 1-.781 1.538a80.38 80.38 0 0 1-.776 1.487l-2.435 1.877-2.352 1.818c-1.854 1.248-7.559 2-9.128 1.961-1.405-.032-5.149-.007-5.914 0v-.005l-2.85.529a.484.484 0 0 1-.563-.387l-.031-.165a.484.484 0 0 1 .387-.563l3.021-.561c1.5-.1.8-.491.8-.491H65.8a.565.565 0 0 1-.563-.563v-.272a.565.565 0 0 1 .563-.563h3.24c.117 0 .218-.011.311-.019h.06l.026-.006c1.107-.136.465-.664.465-.664h-5.027a.684.684 0 1 1 0-1.369h4.918a.645.645 0 0 0 .084-.078.175.175 0 0 0 .037-.046.23.23 0 0 0 .03-.264.139.139 0 0 0-.014-.017.6.6 0 0 0-.05-.055 1.04 1.04 0 0 0-.616-.269h-3.423a.606.606 0 0 1-.6-.6v-.077a.605.605 0 0 1 .6-.6H70.8c.948-.01.846-.462.83-.517v-.011l-1.034-.2.149.019c-.048-.006-.089-.022-.136-.029l-1.734-.363a.679.679 0 0 1-.525-.8.68.68 0 0 1 .8-.525l3.478.728a.645.645 0 0 1 .133.057 43.291 43.291 0 0 0 7.487.385 17.144 17.144 0 0 0 5.2-1.045c11.319-5.388 9.529-11.442 9.077-12.564a7.802 7.802 0 0 0-.084-.189 5.031 5.031 0 0 0-2.618-2.552c-.087-.034-.172-.069-.263-.1-.035-.013-.071-.024-.107-.036-1.913-.591-4.82-.277-9.211 1.931-4.091 3.495-6.857 2.786-7.923 2.268s-.113-.065-.312-.169a2.015 2.015 0 0 1-.181-.126l-.232-.083c-2.881-1.409-13.683-5.726-18.651 5.725-.1.208-.19.421-.276.641l-.016.037a11.293 11.293 0 0 0 .456 9.075s2.275 6.791 13.9 14.087l6.768 4.621s1.621 1.7 5.755-2.27l9-8.025 4.394-3.934 4.132-3.7 1.525-1.366s.357-.337.151-.596z" transform="translate(-53.915 -111.767)"/>
        </g>
        <g id="Group_2527" data-name="Group 2527" transform="translate(85.423 111.908)">
            <path id="Path_11304" data-name="Path 11304" d="M130.027 119.846 97.7 155.214h11.6l10.458-13.5h7.606l-3.993 13.5h8.936l8.747-35.368zm-.951 17.494h-5.895l8.937-11.219z" transform="translate(-97.702 -119.846)" style="fill:#0a3cab"/>
        </g>
        <g id="Group_2529" data-name="Group 2529" transform="translate(101.788 101.053)">
            <path id="Path_11306" data-name="Path 11306" class="cls-7" d="m125.909 110.538 1.076-5.291h.683l-.444 2.2h2.663l.444-2.2h.688l-1.073 5.291h-.687l.5-2.493H127.1l-.508 2.493z" transform="translate(-125.909 -105.157)"/>
            <path id="Path_11307" data-name="Path 11307" class="cls-7" d="m135.531 109.7.617.064a1.928 1.928 0 0 1-.611.9 1.661 1.661 0 0 1-1.141.426 1.5 1.5 0 0 1-.759-.2 1.275 1.275 0 0 1-.526-.572 1.951 1.951 0 0 1-.18-.856 2.786 2.786 0 0 1 .282-1.218 2.055 2.055 0 0 1 .731-.877 1.764 1.764 0 0 1 .97-.287 1.385 1.385 0 0 1 1.064.426 1.635 1.635 0 0 1 .4 1.162 3.509 3.509 0 0 1-.049.578h-2.74a1.569 1.569 0 0 0-.014.2 1.236 1.236 0 0 0 .24.821.742.742 0 0 0 .587.284 1.111 1.111 0 0 0 .641-.22 1.418 1.418 0 0 0 .488-.631zm-1.843-.949h2.089v-.144a1.083 1.083 0 0 0-.238-.753.793.793 0 0 0-.613-.261 1.108 1.108 0 0 0-.741.288 1.741 1.741 0 0 0-.497.866z" transform="translate(-127.678 -105.619)"/>
            <path id="Path_11308" data-name="Path 11308" class="cls-7" d="m138.023 110.538 1.072-5.291h.634l-1.072 5.291z" transform="translate(-128.961 -105.157)"/>
            <path id="Path_11309" data-name="Path 11309" class="cls-7" d="m139.8 112.469 1.076-5.3h.585l-.108.534a2.347 2.347 0 0 1 .584-.486 1.15 1.15 0 0 1 .545-.135 1.125 1.125 0 0 1 .884.4 1.677 1.677 0 0 1 .35 1.142 2.968 2.968 0 0 1-.193 1.091 2.455 2.455 0 0 1-.473.793 2.018 2.018 0 0 1-.568.44 1.327 1.327 0 0 1-.589.141 1.136 1.136 0 0 1-1.037-.7l-.42 2.083zm1.255-3.036a2.013 2.013 0 0 0 .059.6.8.8 0 0 0 .287.379.769.769 0 0 0 .463.144 1 1 0 0 0 .883-.634 2.724 2.724 0 0 0 .337-1.293 1.13 1.13 0 0 0-.226-.753.711.711 0 0 0-.563-.265.823.823 0 0 0-.449.132 1.34 1.34 0 0 0-.383.393 2.365 2.365 0 0 0-.293.64 2.31 2.31 0 0 0-.112.657z" transform="translate(-129.409 -105.619)"/>
            <path id="Path_11310" data-name="Path 11310" class="cls-7" d="m145.523 110.538.778-3.832h.634l-.777 3.832zm.925-4.551.151-.74h.631l-.15.74z" transform="translate(-130.85 -105.157)"/>
            <path id="Path_11311" data-name="Path 11311" class="cls-7" d="m147.687 111 .778-3.832h.575l-.137.668a3.054 3.054 0 0 1 .7-.574 1.36 1.36 0 0 1 .666-.181.97.97 0 0 1 .71.253.9.9 0 0 1 .257.675 3.809 3.809 0 0 1-.091.671l-.472 2.32h-.634l.494-2.428a2.849 2.849 0 0 0 .074-.524.405.405 0 0 0-.128-.31.524.524 0 0 0-.37-.119 1.226 1.226 0 0 0-.868.361 2.328 2.328 0 0 0-.559 1.237l-.361 1.783z" transform="translate(-131.395 -105.619)"/>
            <path id="Path_11312" data-name="Path 11312" class="cls-7" d="m152.969 111.346.642.061a.686.686 0 0 0 .052.336.4.4 0 0 0 .189.173 1.063 1.063 0 0 0 .445.08 1.015 1.015 0 0 0 .827-.307 2.394 2.394 0 0 0 .3-.9l.063-.31a1.45 1.45 0 0 1-1.051.516 1.212 1.212 0 0 1-.945-.428 1.759 1.759 0 0 1-.38-1.21 2.411 2.411 0 0 1 .3-1.187 2.269 2.269 0 0 1 .713-.817 1.511 1.511 0 0 1 .851-.277 1.234 1.234 0 0 1 1.128.714l.127-.628h.581l-.75 3.7a3.159 3.159 0 0 1-.322.952 1.372 1.372 0 0 1-.556.529 1.746 1.746 0 0 1-.822.187 2.242 2.242 0 0 1-.772-.119.974.974 0 0 1-.484-.349.9.9 0 0 1-.159-.524 1.23 1.23 0 0 1 .023-.192zm.792-2.042a1.813 1.813 0 0 0 .073.592.922.922 0 0 0 .3.424.7.7 0 0 0 .432.146 1.047 1.047 0 0 0 .621-.225 1.563 1.563 0 0 0 .5-.7 2.424 2.424 0 0 0 .191-.9 1.076 1.076 0 0 0-.254-.752.818.818 0 0 0-.629-.28.87.87 0 0 0-.448.128 1.357 1.357 0 0 0-.4.39 1.884 1.884 0 0 0-.284.626 2.372 2.372 0 0 0-.102.547z" transform="translate(-132.721 -105.619)"/>
            <path id="Path_11313" data-name="Path 11313" class="cls-7" d="m161.116 110.538 1.077-5.291h2.144a2.042 2.042 0 0 1 .836.132 1.056 1.056 0 0 1 .461.451 1.417 1.417 0 0 1 .183.717 1.868 1.868 0 0 1-.13.667 1.767 1.767 0 0 1-.328.56 1.574 1.574 0 0 1-.4.332 1.709 1.709 0 0 1-.434.166 4.254 4.254 0 0 1-1 .119h-1.287l-.435 2.147zm1.244-2.746h1.132a2.39 2.39 0 0 0 .967-.146 1.155 1.155 0 0 0 .494-.446 1.189 1.189 0 0 0 .186-.635.822.822 0 0 0-.1-.424.586.586 0 0 0-.277-.242 2.008 2.008 0 0 0-.687-.077h-1.315z" transform="translate(-134.778 -105.157)"/>
            <path id="Path_11314" data-name="Path 11314" class="cls-7" d="m170.2 109.7.617.064a1.935 1.935 0 0 1-.612.9 1.659 1.659 0 0 1-1.14.426 1.5 1.5 0 0 1-.759-.2 1.27 1.27 0 0 1-.525-.572 1.951 1.951 0 0 1-.181-.856 2.787 2.787 0 0 1 .283-1.218 2.054 2.054 0 0 1 .73-.877 1.766 1.766 0 0 1 .97-.287 1.385 1.385 0 0 1 1.064.426 1.635 1.635 0 0 1 .4 1.162 3.586 3.586 0 0 1-.049.578h-2.741a1.715 1.715 0 0 0-.014.2 1.24 1.24 0 0 0 .24.821.742.742 0 0 0 .587.284 1.109 1.109 0 0 0 .641-.22 1.425 1.425 0 0 0 .489-.631zm-1.843-.949h2.089v-.144a1.079 1.079 0 0 0-.238-.753.79.79 0 0 0-.613-.261 1.109 1.109 0 0 0-.742.288 1.752 1.752 0 0 0-.496.866z" transform="translate(-136.411 -105.619)"/>
            <path id="Path_11315" data-name="Path 11315" class="cls-7" d="M172.908 109.545a2.722 2.722 0 0 1 .642-1.858 1.75 1.75 0 0 1 1.387-.607 1.427 1.427 0 0 1 1.085.433 1.627 1.627 0 0 1 .411 1.169 2.927 2.927 0 0 1-.259 1.229 1.969 1.969 0 0 1-.738.872 1.856 1.856 0 0 1-1.007.3 1.636 1.636 0 0 1-.791-.191 1.3 1.3 0 0 1-.544-.541 1.687 1.687 0 0 1-.186-.806zm.634-.065a1.188 1.188 0 0 0 .252.821.827.827 0 0 0 .641.28 1.017 1.017 0 0 0 .4-.085 1.149 1.149 0 0 0 .371-.258 1.715 1.715 0 0 0 .293-.395 2.642 2.642 0 0 0 .3-1.164 1.178 1.178 0 0 0-.254-.806.821.821 0 0 0-.64-.287 1.044 1.044 0 0 0-.543.146 1.467 1.467 0 0 0-.443.428 1.932 1.932 0 0 0-.291.655 2.786 2.786 0 0 0-.086.665z" transform="translate(-137.748 -105.619)"/>
            <path id="Path_11316" data-name="Path 11316" class="cls-7" d="m177.676 112.469 1.076-5.3h.586l-.109.534a2.373 2.373 0 0 1 .583-.486 1.155 1.155 0 0 1 .545-.135 1.126 1.126 0 0 1 .883.4 1.68 1.68 0 0 1 .349 1.142 2.983 2.983 0 0 1-.192 1.091 2.455 2.455 0 0 1-.473.793 2.019 2.019 0 0 1-.568.44 1.33 1.33 0 0 1-.589.141 1.137 1.137 0 0 1-1.038-.7l-.42 2.083zm1.255-3.036a2.013 2.013 0 0 0 .059.6.8.8 0 0 0 .287.379.767.767 0 0 0 .463.144 1 1 0 0 0 .882-.634 2.725 2.725 0 0 0 .337-1.293 1.13 1.13 0 0 0-.226-.753.711.711 0 0 0-.563-.265.821.821 0 0 0-.449.132 1.35 1.35 0 0 0-.384.393 2.34 2.34 0 0 0-.293.64 2.285 2.285 0 0 0-.113.657z" transform="translate(-138.949 -105.619)"/>
            <path id="Path_11317" data-name="Path 11317" class="cls-7" d="m183.363 110.538 1.073-5.291h.634l-1.07 5.291z" transform="translate(-140.382 -105.157)"/>
            <path id="Path_11318" data-name="Path 11318" class="cls-7" d="m188.338 109.7.616.064a1.927 1.927 0 0 1-.611.9 1.661 1.661 0 0 1-1.141.426 1.5 1.5 0 0 1-.759-.2 1.27 1.27 0 0 1-.525-.572 1.941 1.941 0 0 1-.182-.856 2.787 2.787 0 0 1 .283-1.218 2.055 2.055 0 0 1 .731-.877 1.764 1.764 0 0 1 .97-.287 1.385 1.385 0 0 1 1.064.426 1.635 1.635 0 0 1 .4 1.162 3.587 3.587 0 0 1-.049.578h-2.741a1.885 1.885 0 0 0-.013.2 1.236 1.236 0 0 0 .24.821.741.741 0 0 0 .587.284 1.113 1.113 0 0 0 .642-.22 1.425 1.425 0 0 0 .488-.631zm-1.843-.949h2.089v-.144a1.079 1.079 0 0 0-.238-.753.792.792 0 0 0-.613-.261 1.109 1.109 0 0 0-.741.288 1.746 1.746 0 0 0-.497.866z" transform="translate(-140.98 -105.619)"/>
            <path id="Path_11319" data-name="Path 11319" class="cls-7" d="m191.13 112.07.15-.74h.72l-.154.74z" transform="translate(-142.339 -106.69)"/>
            <path id="Path_11320" data-name="Path 11320" class="cls-7" d="m200.455 108.645.681.1a2.887 2.887 0 0 1-.94 1.386 2.23 2.23 0 0 1-1.385.469 1.93 1.93 0 0 1-1.483-.588 2.383 2.383 0 0 1-.549-1.685 3.416 3.416 0 0 1 .835-2.364 2.372 2.372 0 0 1 1.846-.833 1.913 1.913 0 0 1 1.323.451 1.813 1.813 0 0 1 .587 1.212l-.641.061a1.449 1.449 0 0 0-.419-.857 1.183 1.183 0 0 0-.818-.284 1.768 1.768 0 0 0-1.525.863 3.07 3.07 0 0 0-.5 1.765 1.791 1.791 0 0 0 .389 1.245 1.3 1.3 0 0 0 1.013.43 1.475 1.475 0 0 0 .964-.358 2.026 2.026 0 0 0 .622-1.013z" transform="translate(-143.762 -105.127)"/>
            <path id="Path_11321" data-name="Path 11321" class="cls-7" d="m203.154 110.538 1.073-5.291h.634l-.41 2.032a2.675 2.675 0 0 1 .659-.507 1.382 1.382 0 0 1 .627-.153.983.983 0 0 1 .719.251.886.886 0 0 1 .255.662 4.364 4.364 0 0 1-.112.744l-.459 2.262h-.634l.473-2.321a4.6 4.6 0 0 0 .1-.634.4.4 0 0 0-.126-.307.514.514 0 0 0-.365-.119 1.263 1.263 0 0 0-.655.186 1.309 1.309 0 0 0-.488.509 3.948 3.948 0 0 0-.325 1.041l-.333 1.646z" transform="translate(-145.368 -105.157)"/>
            <path id="Path_11322" data-name="Path 11322" class="cls-7" d="M211.026 110.523a2.488 2.488 0 0 1-.635.428 1.579 1.579 0 0 1-.652.135 1.129 1.129 0 0 1-.83-.312 1.08 1.08 0 0 1-.315-.8 1.109 1.109 0 0 1 .518-.965 1.62 1.62 0 0 1 .575-.215 6.237 6.237 0 0 1 .812-.069 2.792 2.792 0 0 0 .857-.13 1.711 1.711 0 0 0 .073-.444.433.433 0 0 0-.161-.358 1 1 0 0 0-.645-.18 1.092 1.092 0 0 0-.654.183 1.03 1.03 0 0 0-.37.518l-.641-.058a1.718 1.718 0 0 1 .622-.873 1.81 1.81 0 0 1 1.074-.3 1.648 1.648 0 0 1 1.094.34.811.811 0 0 1 .308.657 3.412 3.412 0 0 1-.088.711l-.207.953a3.63 3.63 0 0 0-.1.739 2.581 2.581 0 0 0 .077.52h-.638a2.419 2.419 0 0 1-.074-.48zm.234-1.465a1.513 1.513 0 0 1-.286.083c-.1.019-.272.04-.509.061a3.8 3.8 0 0 0-.781.128.638.638 0 0 0-.459.622.6.6 0 0 0 .184.451.724.724 0 0 0 .524.177 1.181 1.181 0 0 0 .606-.171 1.23 1.23 0 0 0 .459-.479 2.822 2.822 0 0 0 .262-.872z" transform="translate(-146.738 -105.619)"/>
            <path id="Path_11323" data-name="Path 11323" class="cls-7" d="m213.825 111 .778-3.832h.575l-.137.668a3.038 3.038 0 0 1 .7-.574 1.357 1.357 0 0 1 .665-.181.972.972 0 0 1 .711.253.9.9 0 0 1 .257.675 3.863 3.863 0 0 1-.09.671l-.473 2.32h-.634l.494-2.428a2.915 2.915 0 0 0 .074-.524.405.405 0 0 0-.128-.31.525.525 0 0 0-.37-.119 1.225 1.225 0 0 0-.868.361 2.346 2.346 0 0 0-.56 1.237l-.36 1.783z" transform="translate(-148.056 -105.619)"/>
            <path id="Path_11324" data-name="Path 11324" class="cls-7" d="m219.108 111.346.642.061a.694.694 0 0 0 .052.336.4.4 0 0 0 .189.173 1.065 1.065 0 0 0 .445.08 1.012 1.012 0 0 0 .827-.307 2.365 2.365 0 0 0 .305-.9l.063-.31a1.451 1.451 0 0 1-1.051.516 1.212 1.212 0 0 1-.945-.428 1.763 1.763 0 0 1-.379-1.21 2.4 2.4 0 0 1 .3-1.187 2.284 2.284 0 0 1 .713-.817 1.51 1.51 0 0 1 .852-.277 1.236 1.236 0 0 1 1.128.714l.126-.628h.581l-.75 3.7a3.115 3.115 0 0 1-.323.952 1.36 1.36 0 0 1-.555.529 1.745 1.745 0 0 1-.821.187 2.251 2.251 0 0 1-.774-.119.975.975 0 0 1-.483-.349.9.9 0 0 1-.159-.524 1.231 1.231 0 0 1 .017-.192zm.792-2.042a1.789 1.789 0 0 0 .074.592.916.916 0 0 0 .3.424.705.705 0 0 0 .433.146 1.046 1.046 0 0 0 .62-.225 1.557 1.557 0 0 0 .5-.7 2.41 2.41 0 0 0 .192-.9 1.073 1.073 0 0 0-.254-.752.816.816 0 0 0-.629-.28.87.87 0 0 0-.448.128 1.348 1.348 0 0 0-.4.39 1.9 1.9 0 0 0-.284.626 2.372 2.372 0 0 0-.104.547z" transform="translate(-149.382 -105.619)"/>
            <path id="Path_11325" data-name="Path 11325" class="cls-7" d="m224.465 110.538.778-3.832h.634l-.778 3.832zm.925-4.551.15-.74h.631l-.151.74z" transform="translate(-150.736 -105.157)"/>
            <path id="Path_11326" data-name="Path 11326" class="cls-7" d="m226.628 111 .778-3.832h.575l-.137.668a3.038 3.038 0 0 1 .7-.574 1.355 1.355 0 0 1 .665-.181.969.969 0 0 1 .71.253.9.9 0 0 1 .257.675 3.861 3.861 0 0 1-.09.671l-.472 2.32h-.634l.494-2.428a2.9 2.9 0 0 0 .073-.524.4.4 0 0 0-.127-.31.527.527 0 0 0-.37-.119 1.224 1.224 0 0 0-.867.361 2.334 2.334 0 0 0-.56 1.237l-.361 1.783z" transform="translate(-151.281 -105.619)"/>
            <path id="Path_11327" data-name="Path 11327" class="cls-7" d="m231.911 111.346.642.061a.694.694 0 0 0 .052.336.4.4 0 0 0 .189.173 1.062 1.062 0 0 0 .445.08 1.013 1.013 0 0 0 .827-.307 2.379 2.379 0 0 0 .305-.9l.063-.31a1.451 1.451 0 0 1-1.051.516 1.212 1.212 0 0 1-.945-.428 1.759 1.759 0 0 1-.38-1.21 2.4 2.4 0 0 1 .3-1.187 2.277 2.277 0 0 1 .713-.817 1.51 1.51 0 0 1 .852-.277 1.234 1.234 0 0 1 1.127.714l.126-.628h.582l-.75 3.7a3.137 3.137 0 0 1-.323.952 1.37 1.37 0 0 1-.555.529 1.749 1.749 0 0 1-.822.187 2.249 2.249 0 0 1-.773-.119.975.975 0 0 1-.483-.349.9.9 0 0 1-.159-.524 1.148 1.148 0 0 1 .018-.192zm.792-2.042a1.812 1.812 0 0 0 .073.592.923.923 0 0 0 .3.424.705.705 0 0 0 .433.146 1.047 1.047 0 0 0 .62-.225 1.563 1.563 0 0 0 .5-.7 2.41 2.41 0 0 0 .192-.9 1.073 1.073 0 0 0-.254-.752.818.818 0 0 0-.629-.28.87.87 0 0 0-.448.128 1.339 1.339 0 0 0-.4.39 1.9 1.9 0 0 0-.284.626 2.371 2.371 0 0 0-.106.547z" transform="translate(-152.607 -105.619)"/>
            <path id="Path_11328" data-name="Path 11328" class="cls-7" d="m240.03 110.538 1.073-5.291h.687l-.95 4.691h2.668l-.123.6z" transform="translate(-154.657 -105.157)"/>
            <path id="Path_11329" data-name="Path 11329" class="cls-7" d="m245.268 110.538.778-3.832h.634l-.778 3.832zm.925-4.551.15-.74h.631l-.151.74z" transform="translate(-155.976 -105.157)"/>
            <path id="Path_11330" data-name="Path 11330" class="cls-7" d="m248.482 111.028-.61-3.832h.616l.319 2.111q.053.347.129 1.13.183-.407.466-.934l1.244-2.306h.67l-2.131 3.832z" transform="translate(-156.632 -105.648)"/>
            <path id="Path_11331" data-name="Path 11331" class="cls-7" d="m255.007 109.7.616.064a1.927 1.927 0 0 1-.611.9 1.661 1.661 0 0 1-1.141.426 1.5 1.5 0 0 1-.759-.2 1.27 1.27 0 0 1-.525-.572 1.941 1.941 0 0 1-.182-.856 2.786 2.786 0 0 1 .283-1.218 2.049 2.049 0 0 1 .731-.877 1.764 1.764 0 0 1 .97-.287 1.387 1.387 0 0 1 1.064.426 1.635 1.635 0 0 1 .4 1.162 3.592 3.592 0 0 1-.049.578h-2.741a1.881 1.881 0 0 0-.013.2 1.236 1.236 0 0 0 .24.821.741.741 0 0 0 .587.284 1.113 1.113 0 0 0 .642-.22 1.424 1.424 0 0 0 .488-.631zm-1.843-.949h2.089v-.144a1.079 1.079 0 0 0-.238-.753.792.792 0 0 0-.613-.261 1.109 1.109 0 0 0-.741.288 1.747 1.747 0 0 0-.497.866z" transform="translate(-157.774 -105.619)"/>
            <path id="Path_11332" data-name="Path 11332" class="cls-7" d="m257.644 109.689.634-.04a1.215 1.215 0 0 0 .085.48.682.682 0 0 0 .31.325 1.064 1.064 0 0 0 .527.126.979.979 0 0 0 .631-.174.516.516 0 0 0 .21-.408.5.5 0 0 0-.126-.321 1.961 1.961 0 0 0-.633-.373 5.849 5.849 0 0 1-.643-.313 1.057 1.057 0 0 1-.354-.348.887.887 0 0 1-.12-.461 1.023 1.023 0 0 1 .351-.779 1.387 1.387 0 0 1 .981-.325 1.531 1.531 0 0 1 1.067.334 1.175 1.175 0 0 1 .38.878l-.62.043a.741.741 0 0 0-.239-.548.914.914 0 0 0-.634-.2.766.766 0 0 0-.512.155.441.441 0 0 0-.183.336.409.409 0 0 0 .158.317 2.6 2.6 0 0 0 .542.289 3.622 3.622 0 0 1 .919.512.989.989 0 0 1 .3.729 1.051 1.051 0 0 1-.17.559 1.183 1.183 0 0 1-.519.439 1.911 1.911 0 0 1-.821.164 1.818 1.818 0 0 1-1.1-.328 1.177 1.177 0 0 1-.421-1.068z" transform="translate(-159.093 -105.619)"/>
            <path id="Path_11333" data-name="Path 11333" class="cls-7" d="m262.595 112.07.15-.74h.719l-.154.74z" transform="translate(-160.341 -106.69)"/>
        </g>
        <g id="Group_2530" data-name="Group 2530" transform="translate(130.515 112.046)">
            <path id="Path_11334" data-name="Path 11334" class="cls-8" d="m164.724 126.97 1.79.257a3.41 3.41 0 0 1-1.308 1.616 3.642 3.642 0 0 1-2.008.554 2.964 2.964 0 0 1-2.066-.691 2.438 2.438 0 0 1-.764-1.9 3.96 3.96 0 0 1 .462-1.868 3.317 3.317 0 0 1 1.392-1.385 4.209 4.209 0 0 1 2.041-.505 3.048 3.048 0 0 1 1.924.56 2.05 2.05 0 0 1 .813 1.472l-1.751.165a1.007 1.007 0 0 0-1.1-.988 1.6 1.6 0 0 0-.994.354 2.221 2.221 0 0 0-.709 1.059 4.029 4.029 0 0 0-.247 1.323 1.112 1.112 0 0 0 .3.828 1.007 1.007 0 0 0 .738.291 1.47 1.47 0 0 0 .853-.286 1.852 1.852 0 0 0 .634-.856z" transform="translate(-160.368 -120.882)"/>
            <path id="Path_11335" data-name="Path 11335" class="cls-8" d="M170.531 126.735a3.509 3.509 0 0 1 1.069-2.687 3.937 3.937 0 0 1 2.806-1 3.466 3.466 0 0 1 2.355.74 2.509 2.509 0 0 1 .846 1.99 3.507 3.507 0 0 1-1.058 2.547 3.8 3.8 0 0 1-2.837 1.074 4.044 4.044 0 0 1-1.706-.342 2.4 2.4 0 0 1-1.11-.971 2.642 2.642 0 0 1-.365-1.351zm5.248-1.171a1.209 1.209 0 0 0-.381-.934 1.4 1.4 0 0 0-.985-.35 1.777 1.777 0 0 0-1.058.328 2.114 2.114 0 0 0-.718.953 3.055 3.055 0 0 0-.257 1.151 1.368 1.368 0 0 0 .4 1.034 1.388 1.388 0 0 0 1 .383 1.632 1.632 0 0 0 1.27-.577 2.874 2.874 0 0 0 .729-1.988z" transform="translate(-163.218 -120.882)"/>
            <path id="Path_11336" data-name="Path 11336" class="cls-8" d="M182.654 123.188h1.732l-.173.737a3.214 3.214 0 0 1 2.13-.879 2.091 2.091 0 0 1 1.187.286 1.265 1.265 0 0 1 .532.788 2.7 2.7 0 0 1 1.014-.766 3.217 3.217 0 0 1 1.373-.308 1.9 1.9 0 0 1 1.27.389 1.284 1.284 0 0 1 .455 1.028 5.635 5.635 0 0 1-.179 1.084l-.873 3.707h-1.841l.873-3.707a7.648 7.648 0 0 0 .16-.788.5.5 0 0 0-.171-.4.769.769 0 0 0-.51-.145 1.576 1.576 0 0 0-1.225.645 4.089 4.089 0 0 0-.667 1.639l-.648 2.753h-1.841l.86-3.667a4.893 4.893 0 0 0 .148-.822.492.492 0 0 0-.183-.394.754.754 0 0 0-.5-.155 1.391 1.391 0 0 0-.622.16 1.789 1.789 0 0 0-.561.44 2.483 2.483 0 0 0-.414.72q-.077.205-.25.931l-.654 2.787h-1.846z" transform="translate(-166.218 -120.882)"/>
            <path id="Path_11337" data-name="Path 11337" class="cls-8" d="M198.889 123.188h1.733l-.173.737a3.214 3.214 0 0 1 2.13-.879 2.1 2.1 0 0 1 1.187.286 1.261 1.261 0 0 1 .532.788 2.7 2.7 0 0 1 1.014-.766 3.219 3.219 0 0 1 1.373-.308 1.9 1.9 0 0 1 1.27.389 1.284 1.284 0 0 1 .456 1.028 5.633 5.633 0 0 1-.179 1.084l-.873 3.707h-1.841l.873-3.707a7.425 7.425 0 0 0 .16-.788.5.5 0 0 0-.17-.4.772.772 0 0 0-.51-.145 1.575 1.575 0 0 0-1.225.645 4.08 4.08 0 0 0-.667 1.639l-.648 2.753h-1.841l.859-3.667a4.817 4.817 0 0 0 .148-.822.492.492 0 0 0-.183-.394.754.754 0 0 0-.5-.155 1.391 1.391 0 0 0-.622.16 1.774 1.774 0 0 0-.561.44 2.485 2.485 0 0 0-.414.72q-.077.205-.25.931l-.654 2.787h-1.842z" transform="translate(-170.771 -120.882)"/>
            <path id="Path_11338" data-name="Path 11338" class="cls-8" d="M215.347 123.244h1.841l-.84 3.593a5.047 5.047 0 0 0-.154.805.579.579 0 0 0 .219.451.819.819 0 0 0 .558.189 1.45 1.45 0 0 0 .481-.083 2.157 2.157 0 0 0 .487-.251 2.49 2.49 0 0 0 .449-.386 2.407 2.407 0 0 0 .372-.571 4.871 4.871 0 0 0 .263-.856l.68-2.891h1.841l-1.425 6.066H218.4l.193-.822a3.709 3.709 0 0 1-2.457.965 1.918 1.918 0 0 1-1.322-.428 1.463 1.463 0 0 1-.481-1.148 7 7 0 0 1 .218-1.251z" transform="translate(-175.502 -120.937)"/>
            <path id="Path_11339" data-name="Path 11339" class="cls-8" d="M226.394 123.188h1.745l-.18.789a4.886 4.886 0 0 1 1.223-.717 3.352 3.352 0 0 1 1.2-.214 1.929 1.929 0 0 1 1.325.428 1.443 1.443 0 0 1 .484 1.137 6.543 6.543 0 0 1-.212 1.211l-.8 3.432h-1.841l.808-3.444a6.782 6.782 0 0 0 .18-.92.617.617 0 0 0-.209-.494.861.861 0 0 0-.58-.18 1.755 1.755 0 0 0-.9.3 2.187 2.187 0 0 0-.776.8 6.189 6.189 0 0 0-.462 1.445l-.584 2.49h-1.845z" transform="translate(-178.484 -120.882)"/>
            <path id="Path_11340" data-name="Path 11340" class="cls-8" d="M237.512 122.345h1.841l-1.424 6.066h-1.841zm.539-2.307h1.841l-.346 1.484H237.7z" transform="translate(-181.602 -120.038)"/>
            <path id="Path_11341" data-name="Path 11341" class="cls-8" d="m241.8 123.642.282-1.217h.9l.225-.971 2.111-1.13-.494 2.1h1.123l-.283 1.217h-1.129l-.6 2.542a7.113 7.113 0 0 0-.16.788.352.352 0 0 0 .135.294.82.82 0 0 0 .487.106q.122 0 .61-.04l-.289 1.217a5.514 5.514 0 0 1-.976.086 2.378 2.378 0 0 1-1.418-.334 1.1 1.1 0 0 1-.443-.928 7.776 7.776 0 0 1 .237-1.291l.571-2.439z" transform="translate(-183.205 -120.118)"/>
            <path id="Path_11342" data-name="Path 11342" class="cls-8" d="M247.639 123.244h1.835l.462 3.021q.174 1.166.192 1.633a12.486 12.486 0 0 1 .988-1.964l1.63-2.69h1.954l-4.209 6.66a9.182 9.182 0 0 1-.817 1.159 2.136 2.136 0 0 1-.719.52 2.469 2.469 0 0 1-1.011.189 5.492 5.492 0 0 1-1.315-.183l.16-1.223a2.574 2.574 0 0 0 .648.086q.846 0 1.392-1.142z" transform="translate(-184.557 -120.937)"/>
        </g>
        <g id="Group_2531" data-name="Group 2531" transform="translate(123.605 124.197)">
            <path id="Path_11343" data-name="Path 11343" class="cls-8" d="m161 156.031 4.207.708a9.252 9.252 0 0 1-3.076 4.456 7.65 7.65 0 0 1-4.72 1.527 6.349 6.349 0 0 1-4.856-1.905 7.335 7.335 0 0 1-1.795-5.242 12.451 12.451 0 0 1 1.086-5.148 8.577 8.577 0 0 1 3.272-3.817 8.748 8.748 0 0 1 4.8-1.394 6.453 6.453 0 0 1 4.524 1.543 5.954 5.954 0 0 1 1.9 4.062l-4.116.457a3.318 3.318 0 0 0-.822-2.063 2.4 2.4 0 0 0-1.756-.661 3.438 3.438 0 0 0-2.337.976 6.226 6.226 0 0 0-1.667 2.92 12.8 12.8 0 0 0-.581 3.645 3.392 3.392 0 0 0 .694 2.283 2.2 2.2 0 0 0 1.734.8 3.14 3.14 0 0 0 2.006-.787 5.105 5.105 0 0 0 1.503-2.36z" transform="translate(-150.764 -139.249)"/>
            <path id="Path_11344" data-name="Path 11344" class="cls-8" d="m175.283 146.857.663-3.352h2.111l.527-2.677 4.961-3.117-1.161 5.794h2.639l-.663 3.352h-2.655l-1.4 7.006q-.377 1.905-.377 2.173a1.047 1.047 0 0 0 .317.811 1.712 1.712 0 0 0 1.146.291q.286 0 1.433-.11l-.679 3.353a11.075 11.075 0 0 1-2.292.236 4.961 4.961 0 0 1-3.333-.921 3.239 3.239 0 0 1-1.04-2.558 24.874 24.874 0 0 1 .558-3.558l1.341-6.723z" transform="translate(-157.64 -137.145)"/>
            <path id="Path_11345" data-name="Path 11345" class="cls-8" d="M191.414 143.284h4.328L192.394 160h-4.327zm1.267-6.36h4.328l-.815 4.093h-4.327z" transform="translate(-161.225 -136.924)"/>
            <path id="Path_11346" data-name="Path 11346" class="cls-8" d="M200.87 155.385a10.59 10.59 0 0 1 2.511-7.407 8.489 8.489 0 0 1 6.6-2.763 7.378 7.378 0 0 1 5.534 2.039 7.513 7.513 0 0 1 1.991 5.486 10.561 10.561 0 0 1-2.489 7.022 8.985 8.985 0 0 1-10.676 2.015 6.027 6.027 0 0 1-2.608-2.676 8.247 8.247 0 0 1-.863-3.716zm12.335-3.227a3.638 3.638 0 0 0-.9-2.575 3.015 3.015 0 0 0-2.315-.968 3.777 3.777 0 0 0-2.488.905 5.839 5.839 0 0 0-1.69 2.629 9.692 9.692 0 0 0-.6 3.173 4.143 4.143 0 0 0 .935 2.85 3.013 3.013 0 0 0 2.353 1.054 3.625 3.625 0 0 0 2.986-1.59 8.761 8.761 0 0 0 1.714-5.478z" transform="translate(-164.815 -139.249)"/>
            <path id="Path_11347" data-name="Path 11347" class="cls-8" d="M229.637 145.609h4.1l-.422 2.172a11.239 11.239 0 0 1 2.873-1.976 6.873 6.873 0 0 1 2.812-.591 4.127 4.127 0 0 1 3.114 1.181 4.327 4.327 0 0 1 1.138 3.133 20.637 20.637 0 0 1-.5 3.337l-1.885 9.462h-4.328l1.9-9.493a21.707 21.707 0 0 0 .422-2.535 1.855 1.855 0 0 0-.49-1.361 1.831 1.831 0 0 0-1.364-.5 3.734 3.734 0 0 0-2.112.834 5.737 5.737 0 0 0-1.824 2.2 19.286 19.286 0 0 0-1.086 3.983l-1.372 6.864h-4.328z" transform="translate(-171.943 -139.249)"/>
        </g>
        <g id="Group_2532" data-name="Group 2532" transform="translate(65.721 154.732)">
            <path id="Path_11348" data-name="Path 11348" class="cls-1" d="m75.348 184.859 1.6.263a4.455 4.455 0 0 1-1.41 2.156 3.434 3.434 0 0 1-2.2.745 2.777 2.777 0 0 1-2.22-.925 3.991 3.991 0 0 1-.8-2.684 6.263 6.263 0 0 1 .536-2.613 4.159 4.159 0 0 1 1.486-1.813 3.677 3.677 0 0 1 2.069-.628 2.85 2.85 0 0 1 2.033.728 3.072 3.072 0 0 1 .913 1.985l-1.525.16a1.81 1.81 0 0 0-.489-1.059 1.378 1.378 0 0 0-.964-.328 2 2 0 0 0-1.233.434 2.928 2.928 0 0 0-.916 1.356 5.25 5.25 0 0 0-.343 1.842 2.4 2.4 0 0 0 .446 1.554 1.377 1.377 0 0 0 1.112.548 1.717 1.717 0 0 0 1.132-.434 2.6 2.6 0 0 0 .773-1.287z" transform="translate(-70.322 -179.359)"/>
            <path id="Path_11349" data-name="Path 11349" class="cls-1" d="M81.9 187.93h-1.519L82 179.557h1.515l-.581 2.982a3.922 3.922 0 0 1 .956-.625 2.365 2.365 0 0 1 .951-.192 1.407 1.407 0 0 1 1.077.423 1.557 1.557 0 0 1 .4 1.108 6.663 6.663 0 0 1-.148 1.131l-.686 3.546h-1.518l.7-3.615a5.5 5.5 0 0 0 .111-.754.675.675 0 0 0-.174-.485.626.626 0 0 0-.476-.183 1.135 1.135 0 0 0-.728.286 2.437 2.437 0 0 0-.692.925 8.752 8.752 0 0 0-.349 1.421z" transform="translate(-73.143 -179.415)"/>
            <path id="Path_11350" data-name="Path 11350" class="cls-1" d="m91.689 184.427-1.479-.137a2.4 2.4 0 0 1 .884-1.268 2.782 2.782 0 0 1 1.671-.458 2.316 2.316 0 0 1 1.6.472 1.5 1.5 0 0 1 .518 1.151 4.02 4.02 0 0 1-.045.583q-.044.308-.314 1.622a8.935 8.935 0 0 0-.222 1.519 3.379 3.379 0 0 0 .127.862h-1.474a3.4 3.4 0 0 1-.111-.685 2.359 2.359 0 0 1-.765.614 1.945 1.945 0 0 1-.871.214 1.492 1.492 0 0 1-1.151-.494 1.8 1.8 0 0 1-.455-1.271 1.919 1.919 0 0 1 .5-1.387 2.762 2.762 0 0 1 1.782-.628 6.569 6.569 0 0 0 1.446-.235 2.179 2.179 0 0 0 .095-.548.57.57 0 0 0-.2-.44.843.843 0 0 0-.581-.177 1.031 1.031 0 0 0-.642.181.9.9 0 0 0-.313.51zm1.441 1.52a2.959 2.959 0 0 1-.365.074 3.263 3.263 0 0 0-1.489.434.682.682 0 0 0-.248.554.662.662 0 0 0 .692.679 1.252 1.252 0 0 0 .646-.18 1.177 1.177 0 0 0 .454-.463 3.356 3.356 0 0 0 .267-.882z" transform="translate(-75.729 -180.258)"/>
            <path id="Path_11351" data-name="Path 11351" class="cls-1" d="M98.942 182.709h1.415l-.227 1.176q.792-1.319 1.716-1.32a1.65 1.65 0 0 1 .7.177l-.581 1.343a1.182 1.182 0 0 0-.438-.081 1.285 1.285 0 0 0-.794.321 2.119 2.119 0 0 0-.631.853 9.014 9.014 0 0 0-.448 1.694l-.37 1.9H97.77z" transform="translate(-78.019 -180.258)"/>
            <path id="Path_11352" data-name="Path 11352" class="cls-1" d="m103.72 187.93 1.62-8.373h1.51l-1.615 8.373z" transform="translate(-79.688 -179.415)"/>
            <path id="Path_11353" data-name="Path 11353" class="cls-1" d="M108.217 186.255a3.931 3.931 0 0 1 .879-2.687 2.924 2.924 0 0 1 2.31-1 2.533 2.533 0 0 1 1.938.74 2.785 2.785 0 0 1 .7 1.99 3.917 3.917 0 0 1-.871 2.547 3.067 3.067 0 0 1-3.738.732 2.16 2.16 0 0 1-.913-.971 3.079 3.079 0 0 1-.305-1.351zm4.319-1.171a1.353 1.353 0 0 0-.314-.934 1.04 1.04 0 0 0-.811-.351 1.294 1.294 0 0 0-.871.328 2.118 2.118 0 0 0-.591.954 3.613 3.613 0 0 0-.211 1.151 1.538 1.538 0 0 0 .327 1.034 1.041 1.041 0 0 0 .824.383 1.259 1.259 0 0 0 1.046-.577 3.257 3.257 0 0 0 .601-1.988z" transform="translate(-80.949 -180.258)"/>
            <path id="Path_11354" data-name="Path 11354" class="cls-1" d="m117.616 183.162.232-1.216h.739l.185-.971 1.736-1.13-.407 2.1h.925l-.232 1.216h-.93l-.491 2.541q-.132.692-.132.789a.387.387 0 0 0 .111.294.582.582 0 0 0 .4.106c.066 0 .234-.014.5-.04l-.237 1.216a3.709 3.709 0 0 1-.8.086 1.7 1.7 0 0 1-1.167-.333 1.2 1.2 0 0 1-.364-.928 9.362 9.362 0 0 1 .2-1.291l.47-2.439z" transform="translate(-83.585 -179.495)"/>
            <path id="Path_11355" data-name="Path 11355" class="cls-1" d="m122.62 183.162.232-1.216h.739l.185-.971 1.736-1.13-.407 2.1h.925l-.232 1.216h-.93l-.491 2.541q-.132.692-.132.789a.387.387 0 0 0 .111.294.581.581 0 0 0 .4.106c.067 0 .235-.014.5-.04l-.237 1.216a3.709 3.709 0 0 1-.8.086 1.7 1.7 0 0 1-1.167-.333 1.2 1.2 0 0 1-.364-.928 9.437 9.437 0 0 1 .195-1.291l.471-2.439z" transform="translate(-84.988 -179.495)"/>
            <path id="Path_11356" data-name="Path 11356" class="cls-1" d="M132.631 186.249h-3.8c0 .065-.005.114-.005.148a1.446 1.446 0 0 0 .319.977.989.989 0 0 0 .779.371 1.3 1.3 0 0 0 1.177-.845l1.357.245a3.024 3.024 0 0 1-1.058 1.328 2.618 2.618 0 0 1-1.487.443 2.374 2.374 0 0 1-1.837-.774 2.914 2.914 0 0 1-.707-2.047 3.94 3.94 0 0 1 .639-2.216 2.809 2.809 0 0 1 2.487-1.314 2.075 2.075 0 0 1 1.636.689 2.82 2.82 0 0 1 .607 1.928 4.962 4.962 0 0 1-.107 1.067zm-1.278-1c0-.073.006-.127.006-.166a1.555 1.555 0 0 0-.28-1.011.925.925 0 0 0-.75-.337 1.147 1.147 0 0 0-.842.383 2.11 2.11 0 0 0-.5 1.131z" transform="translate(-86.319 -180.258)"/>
            <path id="Path_11357" data-name="Path 11357" class="cls-1" d="M143.932 186.08h-3.068l-.929 1.85H138.3l4.377-8.373h1.769l1.256 8.373h-1.51zm-.2-1.394-.449-3.37-1.869 3.37z" transform="translate(-89.384 -179.415)"/>
            <path id="Path_11358" data-name="Path 11358" class="cls-1" d="M150.975 182.709h1.415l-.227 1.176q.792-1.319 1.715-1.32a1.65 1.65 0 0 1 .7.177l-.578 1.343a1.187 1.187 0 0 0-.438-.081 1.285 1.285 0 0 0-.794.321 2.113 2.113 0 0 0-.631.853 9.058 9.058 0 0 0-.449 1.694l-.369 1.9H149.8z" transform="translate(-92.611 -180.258)"/>
            <path id="Path_11359" data-name="Path 11359" class="cls-1" d="M161.3 186.249h-3.8c0 .065-.005.114-.005.148a1.449 1.449 0 0 0 .319.977.993.993 0 0 0 .779.371 1.3 1.3 0 0 0 1.178-.845l1.357.245a3.021 3.021 0 0 1-1.059 1.328 2.614 2.614 0 0 1-1.486.443 2.37 2.37 0 0 1-1.836-.774 2.911 2.911 0 0 1-.708-2.047 3.941 3.941 0 0 1 .639-2.216 2.809 2.809 0 0 1 2.486-1.314 2.075 2.075 0 0 1 1.637.689 2.816 2.816 0 0 1 .607 1.928 4.967 4.967 0 0 1-.108 1.067zm-1.279-1c0-.073.006-.127.006-.166a1.551 1.551 0 0 0-.28-1.011.921.921 0 0 0-.749-.337 1.148 1.148 0 0 0-.842.383 2.1 2.1 0 0 0-.5 1.131z" transform="translate(-94.36 -180.258)"/>
            <path id="Path_11360" data-name="Path 11360" class="cls-1" d="m166.284 184.427-1.479-.137a2.4 2.4 0 0 1 .885-1.268 2.782 2.782 0 0 1 1.671-.458 2.318 2.318 0 0 1 1.6.472 1.5 1.5 0 0 1 .517 1.151 4.016 4.016 0 0 1-.045.583q-.044.308-.314 1.622a8.963 8.963 0 0 0-.221 1.519 3.376 3.376 0 0 0 .126.862h-1.472a3.4 3.4 0 0 1-.112-.685 2.351 2.351 0 0 1-.765.614 1.945 1.945 0 0 1-.871.214 1.5 1.5 0 0 1-1.151-.494 1.8 1.8 0 0 1-.454-1.271 1.919 1.919 0 0 1 .5-1.387 2.765 2.765 0 0 1 1.782-.628 6.569 6.569 0 0 0 1.446-.235 2.155 2.155 0 0 0 .1-.548.57.57 0 0 0-.2-.44.843.843 0 0 0-.581-.177 1.031 1.031 0 0 0-.642.181.9.9 0 0 0-.32.51zm1.441 1.52a2.944 2.944 0 0 1-.364.074 3.256 3.256 0 0 0-1.489.434.679.679 0 0 0-.248.554.661.661 0 0 0 .692.679 1.252 1.252 0 0 0 .646-.18 1.177 1.177 0 0 0 .454-.463 3.3 3.3 0 0 0 .267-.882z" transform="translate(-96.648 -180.258)"/>
            <path id="Path_11361" data-name="Path 11361" class="cls-1" d="m176.642 187.93 1.621-8.373h5.416l-.275 1.4h-3.822l-.391 2.01h3.748l-.269 1.4h-3.748l-.686 3.564z" transform="translate(-100.137 -179.415)"/>
            <path id="Path_11362" data-name="Path 11362" class="cls-1" d="M187.124 182.765h1.515l-.691 3.592a6.081 6.081 0 0 0-.127.805.633.633 0 0 0 .179.451.606.606 0 0 0 .46.189 1 1 0 0 0 .4-.083 1.679 1.679 0 0 0 .4-.25 2.21 2.21 0 0 0 .37-.386 2.543 2.543 0 0 0 .307-.571 5.792 5.792 0 0 0 .216-.857l.56-2.889h1.515l-1.172 6.065h-1.415l.158-.822a2.778 2.778 0 0 1-2.022.964 1.41 1.41 0 0 1-1.088-.427 1.629 1.629 0 0 1-.4-1.148 8.4 8.4 0 0 1 .179-1.251z" transform="translate(-102.843 -180.314)"/>
            <path id="Path_11363" data-name="Path 11363" class="cls-1" d="M196.215 182.709h1.436l-.148.787a3.919 3.919 0 0 1 1.006-.717 2.341 2.341 0 0 1 .985-.214 1.418 1.418 0 0 1 1.089.429 1.6 1.6 0 0 1 .4 1.136 7.681 7.681 0 0 1-.174 1.211l-.66 3.432h-1.515l.666-3.444a8.09 8.09 0 0 0 .148-.919.686.686 0 0 0-.171-.494.629.629 0 0 0-.478-.181 1.283 1.283 0 0 0-.739.3 2.073 2.073 0 0 0-.639.8 7.223 7.223 0 0 0-.38 1.445l-.481 2.49h-1.515z" transform="translate(-105.297 -180.258)"/>
            <path id="Path_11364" data-name="Path 11364" class="cls-1" d="M209.452 187.93h-1.436l.126-.657a2.769 2.769 0 0 1-.81.615 2.106 2.106 0 0 1-.9.185 1.758 1.758 0 0 1-1.412-.642 2.887 2.887 0 0 1-.541-1.9 4.749 4.749 0 0 1 .76-2.632 2.3 2.3 0 0 1 2.011-1.177 1.839 1.839 0 0 1 1.7.971l.607-3.136h1.515zm-3.5-2.467a1.548 1.548 0 0 0 .3 1.017.94.94 0 0 0 .747.365 1.159 1.159 0 0 0 .769-.305 2.084 2.084 0 0 0 .571-.934 3.737 3.737 0 0 0 .214-1.205 1.643 1.643 0 0 0-.327-1.063.956.956 0 0 0-.755-.405 1.256 1.256 0 0 0-1.093.8 3.616 3.616 0 0 0-.426 1.73z" transform="translate(-107.943 -179.415)"/>
            <path id="Path_11365" data-name="Path 11365" class="cls-1" d="M213.583 188.995h1.525l-.253 1.307a3.053 3.053 0 0 1-.694 1.6 1.756 1.756 0 0 1-1.238.489l.147-.76a1.1 1.1 0 0 0 .589-.329 1.572 1.572 0 0 0 .309-.728h-.7z" transform="translate(-110.311 -182.061)"/>
            <path id="Path_11366" data-name="Path 11366" class="cls-1" d="m221.639 187.93 1.621-8.373h1.589l-1.615 8.373z" transform="translate(-112.756 -179.415)"/>
            <path id="Path_11367" data-name="Path 11367" class="cls-1" d="M227.1 182.709h1.436l-.148.787a3.928 3.928 0 0 1 1.005-.717 2.346 2.346 0 0 1 .986-.214 1.418 1.418 0 0 1 1.089.429 1.6 1.6 0 0 1 .4 1.136 7.68 7.68 0 0 1-.174 1.211l-.66 3.432h-1.515l.666-3.444a8.082 8.082 0 0 0 .148-.919.686.686 0 0 0-.171-.494.629.629 0 0 0-.478-.181 1.284 1.284 0 0 0-.74.3 2.071 2.071 0 0 0-.638.8 7.2 7.2 0 0 0-.381 1.445l-.481 2.49h-1.515z" transform="translate(-113.957 -180.258)"/>
            <path id="Path_11368" data-name="Path 11368" class="cls-1" d="m238.959 186.489 1.473.258a3.357 3.357 0 0 1-1.077 1.616 2.616 2.616 0 0 1-1.652.553 2.185 2.185 0 0 1-1.7-.691 2.722 2.722 0 0 1-.628-1.9 4.658 4.658 0 0 1 .38-1.867 3.087 3.087 0 0 1 1.146-1.385 2.99 2.99 0 0 1 1.679-.506 2.1 2.1 0 0 1 2.249 2.034l-1.441.166a1.225 1.225 0 0 0-.287-.748.822.822 0 0 0-.616-.24 1.18 1.18 0 0 0-.817.354 2.269 2.269 0 0 0-.584 1.06 4.791 4.791 0 0 0-.2 1.322 1.255 1.255 0 0 0 .243.828.757.757 0 0 0 .607.291 1.076 1.076 0 0 0 .7-.285 1.852 1.852 0 0 0 .525-.86z" transform="translate(-116.607 -180.258)"/>
            <path id="Path_11369" data-name="Path 11369" class="cls-1" d="M243.795 188.995h1.5l-.307 1.582h-1.5z" transform="translate(-118.883 -182.061)"/>
        </g>
        <g id="Group_2534" data-name="Group 2534" transform="translate(67.169 167.85)">
            <g id="Group_2533" data-name="Group 2533">
                <path id="Rectangle_102" data-name="Rectangle 102" class="cls-9" d="M0 0h123.405v.72H0z"/>
            </g>
        </g>
        <g id="Group_2536" data-name="Group 2536" transform="translate(67.169 177.85)">
            <g id="Group_2535" data-name="Group 2535">
                <path id="Rectangle_103" data-name="Rectangle 103" class="cls-9" d="M0 0h123.405v.72H0z"/>
            </g>
        </g>
        <g id="Group_2537" data-name="Group 2537" transform="translate(81.176 170.85)">
            <path id="Path_11370" data-name="Path 11370" class="cls-7" d="M102.754 201.734a2.382 2.382 0 0 1 .66-1.787 2.337 2.337 0 0 1 1.706-.646 2.5 2.5 0 0 1 1.233.3 2.043 2.043 0 0 1 .838.846 2.57 2.57 0 0 1 .289 1.23 2.54 2.54 0 0 1-.3 1.248 2 2 0 0 1-.86.833 2.607 2.607 0 0 1-1.2.283 2.478 2.478 0 0 1-1.248-.314 2.066 2.066 0 0 1-.833-.853 2.435 2.435 0 0 1-.285-1.14zm.674.009a1.756 1.756 0 0 0 .48 1.3 1.767 1.767 0 0 0 2.421 0 1.86 1.86 0 0 0 .477-1.367 2.2 2.2 0 0 0-.2-.976 1.483 1.483 0 0 0-.6-.647 1.709 1.709 0 0 0-.881-.23 1.74 1.74 0 0 0-1.2.443 1.886 1.886 0 0 0-.497 1.477z" transform="translate(-102.754 -199.301)"/>
            <path id="Path_11371" data-name="Path 11371" class="cls-7" d="M109.255 203.98v-4.585h3.334v.541h-2.68v1.42h2.319v.54h-2.319v2.083z" transform="translate(-103.652 -199.314)"/>
            <path id="Path_11372" data-name="Path 11372" class="cls-7" d="M116.312 203.98v-4.585h.984l1.17 3.246q.162.454.236.678c.056-.166.143-.411.263-.734l1.183-3.19h.88v4.585h-.628v-3.837l-1.436 3.837h-.59l-1.429-3.9v3.9z" transform="translate(-104.628 -199.314)"/>
            <path id="Path_11373" data-name="Path 11373" class="cls-7" d="M123.025 203.98v-4.585h3.575v.541h-2.92v1.4h2.735v.538h-2.735v1.561h3.034v.541z" transform="translate(-105.555 -199.314)"/>
            <path id="Path_11374" data-name="Path 11374" class="cls-7" d="m131.848 202.359.654.153a2.025 2.025 0 0 1-.74 1.14 2.15 2.15 0 0 1-1.306.393 2.5 2.5 0 0 1-1.3-.3 1.918 1.918 0 0 1-.762-.874 2.923 2.923 0 0 1-.261-1.229 2.544 2.544 0 0 1 .295-1.25 1.946 1.946 0 0 1 .839-.809 2.608 2.608 0 0 1 1.2-.277 2.135 2.135 0 0 1 1.247.35 1.82 1.82 0 0 1 .7.985l-.644.141a1.267 1.267 0 0 0-1.322-.957 1.688 1.688 0 0 0-.952.253 1.346 1.346 0 0 0-.538.68 2.559 2.559 0 0 0-.155.881 2.6 2.6 0 0 0 .184 1.02 1.293 1.293 0 0 0 .571.652 1.693 1.693 0 0 0 .839.215 1.392 1.392 0 0 0 1.446-1.167z" transform="translate(-106.261 -199.302)"/>
            <path id="Path_11375" data-name="Path 11375" class="cls-7" d="M134.107 203.98v-4.585h.653v2.273l2.454-2.273h.887l-2.074 1.858 2.164 2.727h-.863l-1.76-2.321-.809.732v1.589z" transform="translate(-107.087 -199.314)"/>
            <path id="Path_11376" data-name="Path 11376" class="cls-7" d="M139.45 203.98v-4.585h.654v4.044h2.434v.541z" transform="translate(-107.825 -199.314)"/>
            <path id="Path_11377" data-name="Path 11377" class="cls-7" d="M143.952 203.98v-4.585h3.574v.541h-2.92v1.4h2.734v.538h-2.734v1.561h3.034v.541z" transform="translate(-108.447 -199.314)"/>
            <path id="Path_11378" data-name="Path 11378" class="cls-7" d="M149.273 203.98v-4.585h.671l2.6 3.6v-3.6h.627v4.585h-.671l-2.6-3.6v3.6z" transform="translate(-109.182 -199.314)"/>
            <path id="Path_11379" data-name="Path 11379" class="cls-7" d="M155.035 203.98v-4.585h1.854a2.465 2.465 0 0 1 .908.139 1.148 1.148 0 0 1 .535.429 1.065 1.065 0 0 1 .2.605.973.973 0 0 1-.173.553 1.2 1.2 0 0 1-.519.42 1.3 1.3 0 0 1 .69.415 1.064 1.064 0 0 1 .24.695 1.251 1.251 0 0 1-.147.6 1.162 1.162 0 0 1-.363.427 1.588 1.588 0 0 1-.54.227 3.559 3.559 0 0 1-.8.077zm.654-2.658h1.068a2.582 2.582 0 0 0 .625-.053.7.7 0 0 0 .375-.228.622.622 0 0 0 .127-.4.7.7 0 0 0-.118-.4.6.6 0 0 0-.336-.237 3.011 3.011 0 0 0-.752-.065h-.988zm0 2.117h1.23a2.9 2.9 0 0 0 .446-.022 1.137 1.137 0 0 0 .377-.124.7.7 0 0 0 .249-.255.749.749 0 0 0 .1-.386.723.723 0 0 0-.141-.446.745.745 0 0 0-.392-.265 2.6 2.6 0 0 0-.724-.077h-1.142z" transform="translate(-109.978 -199.314)"/>
            <path id="Path_11380" data-name="Path 11380" class="cls-7" d="M163.654 199.395h.654v2.649a2.909 2.909 0 0 1-.169 1.1 1.368 1.368 0 0 1-.608.662 2.287 2.287 0 0 1-1.154.255 2.528 2.528 0 0 1-1.137-.222 1.306 1.306 0 0 1-.63-.642 2.87 2.87 0 0 1-.189-1.15v-2.649h.654v2.646a2.418 2.418 0 0 0 .119.88.87.87 0 0 0 .412.437 1.523 1.523 0 0 0 .713.153 1.427 1.427 0 0 0 1.029-.3 1.654 1.654 0 0 0 .306-1.166z" transform="translate(-110.723 -199.314)"/>
            <path id="Path_11381" data-name="Path 11381" class="cls-7" d="M166.206 203.98v-4.585h2.194a3.106 3.106 0 0 1 1 .124 1.079 1.079 0 0 1 .55.436 1.232 1.232 0 0 1 .206.691 1.109 1.109 0 0 1-.34.822 1.8 1.8 0 0 1-1.052.426 1.753 1.753 0 0 1 .395.228 3.236 3.236 0 0 1 .543.609l.859 1.249h-.822l-.654-.954q-.287-.412-.472-.632a1.42 1.42 0 0 0-.333-.307 1.018 1.018 0 0 0-.3-.121 2.1 2.1 0 0 0-.365-.022h-.758v2.036zm.654-2.561h1.406a2.252 2.252 0 0 0 .7-.086.735.735 0 0 0 .384-.275.71.71 0 0 0 .131-.411.664.664 0 0 0-.254-.535 1.258 1.258 0 0 0-.8-.209h-1.567z" transform="translate(-111.522 -199.314)"/>
            <path id="Path_11382" data-name="Path 11382" class="cls-7" d="M174.267 202.17v-.539h2.093v1.7a3.773 3.773 0 0 1-.994.537 3.163 3.163 0 0 1-1.052.18 2.992 2.992 0 0 1-1.323-.29 1.986 1.986 0 0 1-.9-.837 2.475 2.475 0 0 1-.3-1.223 2.659 2.659 0 0 1 .3-1.249 1.919 1.919 0 0 1 .869-.862 2.886 2.886 0 0 1 1.3-.281 2.775 2.775 0 0 1 .969.16 1.606 1.606 0 0 1 .68.45 1.927 1.927 0 0 1 .374.75l-.59.15a1.628 1.628 0 0 0-.276-.55 1.129 1.129 0 0 0-.472-.321 1.851 1.851 0 0 0-.681-.121 2.148 2.148 0 0 0-.776.127 1.461 1.461 0 0 0-.527.333 1.577 1.577 0 0 0-.312.454 2.245 2.245 0 0 0-.189.922 2.1 2.1 0 0 0 .228 1.026 1.408 1.408 0 0 0 .663.613 2.184 2.184 0 0 0 .924.2 2.334 2.334 0 0 0 .829-.153 2.174 2.174 0 0 0 .614-.323v-.853z" transform="translate(-112.294 -199.302)"/>
            <path id="Path_11383" data-name="Path 11383" class="cls-7" d="m183.933 202.359.654.153a2.024 2.024 0 0 1-.739 1.14 2.152 2.152 0 0 1-1.307.393 2.5 2.5 0 0 1-1.3-.3 1.921 1.921 0 0 1-.761-.874 2.91 2.91 0 0 1-.261-1.229 2.535 2.535 0 0 1 .295-1.25 1.944 1.944 0 0 1 .839-.809 2.61 2.61 0 0 1 1.2-.277 2.138 2.138 0 0 1 1.248.35 1.824 1.824 0 0 1 .7.985l-.645.141a1.267 1.267 0 0 0-1.322-.957 1.687 1.687 0 0 0-.951.253 1.347 1.347 0 0 0-.538.68 2.559 2.559 0 0 0-.155.881 2.6 2.6 0 0 0 .184 1.02 1.3 1.3 0 0 0 .571.652 1.7 1.7 0 0 0 .839.215 1.391 1.391 0 0 0 1.446-1.167z" transform="translate(-113.459 -199.302)"/>
            <path id="Path_11384" data-name="Path 11384" class="cls-7" d="M185.992 201.734a2.379 2.379 0 0 1 .661-1.787 2.336 2.336 0 0 1 1.706-.646 2.508 2.508 0 0 1 1.234.3 2.047 2.047 0 0 1 .838.846 2.59 2.59 0 0 1 .288 1.23 2.54 2.54 0 0 1-.3 1.248 2 2 0 0 1-.859.833 2.609 2.609 0 0 1-1.2.283 2.481 2.481 0 0 1-1.249-.314 2.066 2.066 0 0 1-.832-.853 2.445 2.445 0 0 1-.287-1.14zm.675.009a1.755 1.755 0 0 0 .479 1.3 1.768 1.768 0 0 0 2.422 0 1.863 1.863 0 0 0 .476-1.367 2.2 2.2 0 0 0-.2-.976 1.486 1.486 0 0 0-.6-.647 1.712 1.712 0 0 0-.882-.23 1.737 1.737 0 0 0-1.194.443 1.883 1.883 0 0 0-.501 1.477z" transform="translate(-114.256 -199.301)"/>
            <path id="Path_11385" data-name="Path 11385" class="cls-7" d="M195.7 199.395h.654v2.649a2.91 2.91 0 0 1-.169 1.1 1.369 1.369 0 0 1-.608.662 2.287 2.287 0 0 1-1.154.255 2.528 2.528 0 0 1-1.137-.222 1.306 1.306 0 0 1-.63-.642 2.871 2.871 0 0 1-.189-1.15v-2.649h.654v2.646a2.417 2.417 0 0 0 .119.88.87.87 0 0 0 .412.437 1.523 1.523 0 0 0 .713.153 1.424 1.424 0 0 0 1.028-.3 1.649 1.649 0 0 0 .307-1.166z" transform="translate(-115.151 -199.314)"/>
            <path id="Path_11386" data-name="Path 11386" class="cls-7" d="M198.233 203.98v-4.585h.67l2.6 3.6v-3.6h.627v4.585h-.67l-2.6-3.6v3.6z" transform="translate(-115.948 -199.314)"/>
            <path id="Path_11387" data-name="Path 11387" class="cls-7" d="M205.224 203.98v-4.044h-1.629v-.541h3.918v.541h-1.636v4.044z" transform="translate(-116.689 -199.314)"/>
            <path id="Path_11388" data-name="Path 11388" class="cls-7" d="M210.229 203.98v-1.942l-1.9-2.643h.8l.975 1.382q.27.388.5.776.222-.359.54-.81l.957-1.348h.763l-1.973 2.643v1.942z" transform="translate(-117.342 -199.314)"/>
        </g>
    </g>
</svg>
