<svg width="21" height="16" viewBox="0 0 21 16" fill="none" xmlns="http://www.w3.org/2000/svg">
<path d="M18.7183 1H2.70733C1.76709 1 1 1.76625 1 2.70733V14.0895C1 15.0274 1.76367 15.7969 2.70733 15.7969H18.7183C19.6562 15.7969 20.4256 15.0332 20.4256 14.0895V2.70733C20.4256 1.76944 19.662 1 18.7183 1ZM18.4825 2.13822L10.749 9.87179L2.9486 2.13822H18.4825ZM2.13822 13.8539V2.93759L7.61986 8.37222L2.13822 13.8539ZM2.94306 14.6587L8.42814 9.17357L10.3501 11.079C10.5726 11.2996 10.9316 11.2989 11.1532 11.0773L13.0272 9.20327L18.4826 14.6587H2.94306ZM19.2874 13.8538L13.832 8.39844L19.2874 2.94302V13.8538Z" fill="white" stroke="white" stroke-width="0.3"/>
</svg>
