<?xml version="1.0" encoding="utf-8"?>
<!-- Generator: Adobe Illustrator 25.4.1, SVG Export Plug-In . SVG Version: 6.00 Build 0)  -->
<svg version="1.1" id="Layer_1" xmlns="http://www.w3.org/2000/svg" xmlns:xlink="http://www.w3.org/1999/xlink" x="0px" y="0px"
	 viewBox="0 0 144 380" style="enable-background:new 0 0 144 380;" xml:space="preserve">
<style type="text/css">
	.st0{fill:#FFFFFF;}
	.st1{fill:#C2C457;}
</style>
<g>
	<path class="st0" d="M36.6,176.8C32.6,94.3,66.7,24.6,84.3,0H0v379h141C133,373,41.6,279.9,36.6,176.8z"/>
	<path class="st1" d="M45.4,91c-0.5,1.6-0.8,3.5-1.4,5.6C32.5,143.1,40.1,227,68.1,281.5c23.2,45.2,60,84.2,75.5,98h-67
		c-7.8-12.3-25.6-45.7-34-80.5c-10.5-43.5-12-81.5-11.5-123.5c0.4-29.9,7.8-62.2,12.8-79C44.4,94.7,44.8,92.8,45.4,91z"/>
</g>
</svg>
