<svg xmlns="http://www.w3.org/2000/svg" width="16.324" height="16.324">
    <g data-name="Group 4077">
        <path data-name="Path 11196" d="m81.955 1638.6-2.671-2.671a.952.952 0 0 0-1.347 0l-1.342 1.342a1.018 1.018 0 0 1-1.264.145 15.882 15.882 0 0 1-4.937-4.931 1.018 1.018 0 0 1 .149-1.259l1.346-1.346a.952.952 0 0 0 0-1.347l-2.671-2.671a.953.953 0 0 0-1.347 0l-1.582 1.583a1.284 1.284 0 0 0-.3 1.349 21.937 21.937 0 0 0 13.035 13.035 1.285 1.285 0 0 0 1.349-.3l1.583-1.583a.952.952 0 0 0-.001-1.346z" transform="translate(-65.91 -1625.581)" style="fill:#fff"/>
    </g>
</svg>
