<svg width="14" height="14" fill="none" xmlns="http://www.w3.org/2000/svg">
    <path fill-rule="evenodd" clip-rule="evenodd" d="M9.903 9.919a.477.477 0 0 0-.136-.663C7.03 7.457 3.739 8.473 3.6 8.516a.478.478 0 1 0 .29.912c.03-.009 3-.916 5.347.627a.48.48 0 0 0 .665-.136zm.657-1.747a.477.477 0 0 0-.134-.663c-2.999-1.983-6.81-.968-6.972-.923a.478.478 0 1 0 .255.922c.035-.01 3.557-.94 6.186.798a.48.48 0 0 0 .665-.134zm1.268-1.827a.478.478 0 0 0-.181-.651c-4.365-2.457-8.79-1.004-8.976-.94a.478.478 0 1 0 .308.905c.042-.014 4.215-1.373 8.195.868a.479.479 0 0 0 .654-.182zm2.156.622c0 3.849-3.13 6.968-6.992 6.968S0 10.815 0 6.967 3.13 0 6.992 0c3.861 0 6.992 3.12 6.992 6.967z" fill="#fff"/>
</svg>
