<svg width="179" height="180" fill="none" xmlns="http://www.w3.org/2000/svg">
    <ellipse cx="89.5" cy="89.682" rx="89.5" ry="89.682" fill="#9FD2AC"/>
    <mask id="a" style="mask-type:alpha" maskUnits="userSpaceOnUse" x="0" y="0" width="179" height="180">
        <ellipse cx="89.5" cy="89.682" rx="89.5" ry="89.682" fill="#fff"/>
    </mask>
    <g mask="url(#a)" fill-rule="evenodd" clip-rule="evenodd" fill="#61A380">
        <path d="M92.5 86.675c-9.78 0-16.928-13.164-17.282-25.043.018-.014.032-.029.05-.043 3.768-3.486 6.486-7.971 7.873-12.986.032.018.074.043.14.086.084.054.19.121.34.204.946.521 1.983 1.021 3.264 1.582 2.004.871 4.207 1.607 6.55 2.182 4.053.996 8.385 1.321 12.721.95.109.571.407 1.129.718 1.65.592.996 1.352 1.91 2.088 2.8.263.314.525.632.778.946.038.615.056 1.175.056 1.715 0 12.253-7.398 25.957-17.296 25.957zm20.385-26.097c-.063-.389-.161-.839-.417-1.21a1.354 1.354 0 0 0-.648-.518l.021-.15c.305-4.093-.515-8.443-2.312-12.254-.546-1.157-1.289-2.193-2.15-3.125l-.028-.028c-1.906-2.047-4.371-3.582-6.515-4.779-3.72-2.075-7.688-2.775-11.688-2.06-4.49.792-7.236 2.36-8.178 4.657a.974.974 0 0 0-.641-.058c-1.08.247-2.007.961-2.564 1.965a.906.906 0 0 0-.347.414c-.326.75-.687 1.514-1.054 2.296-1.888 4.025-4.018 8.572-2.855 13.061-.36 0-.735.222-.977.579-.26.375-.357.843-.417 1.21-.298 1.854-.017 3.975.834 6.308.16.443.368.939.75 1.264.255.214.602.318.913.271 2.186 9.582 8.662 19.761 17.888 19.761 9.229 0 15.705-10.178 17.888-19.76a1.209 1.209 0 0 0 .914-.271c.381-.326.588-.822.749-1.265.851-2.332 1.132-4.454.834-6.308zM126.211 125.953c-.566 1.434-1.118 2.527-2.44 2.809-.024.398-.263.75-.914.985-.974.356-2.489.321-2.714-.32a.557.557 0 0 1-.018-.296c.117-.615 1.08-1.391 1.913-1.697.552-.199.925-.143 1.192.053.854-.057 1.195-.612 1.754-2.029.563-1.426 1.023-8.815 1.153-11.541l1.319.064c-.049 1.025-.499 10.082-1.245 11.972zm-18.993.869c-.524-.456-.622-.869-.503-1.25-1.135-.74-1.265-1.964-1.29-3.505-.007-.612.236-1.819.591-3.232.826-3.292 2.254-7.719 2.475-8.402l1.255.416c-1.216 3.751-3.02 9.826-2.999 11.197.021 1.53.144 2.167.925 2.534.316-.089.685-.008 1.132.38.784.68 1.501 2.032 1.066 2.545-.124.146-.328.21-.574.21-.622 0-1.515-.402-2.078-.893zm13.083-30.259c.285 2.819.341 4.83.004 6.471.348.149.594.434.65.761 3.966 1.153 7.64 4.545 6.722 9.577l-.105-.021-1.526-.285c.766-4.188-2.451-6.926-5.977-7.78-3.857-.932-8.617.2-9.982 4.887l-.13-.039-1.459-.438c1.428-4.897 6.072-6.776 10.425-6.303a.995.995 0 0 1 .538-.399c.372-1.647.299-3.733-.028-6.79l-.735-.296c-7.609-3.025-14.852-4.726-14.852-4.726-3.406.139-5.91 15.46-8.055 24.998L94.07 95h.727v-3.818h-3.593v3.819h.728l-1.601 21.172c-1.934-9.563-4.21-24.856-7.558-24.99 0 0-7.345 1.694-15.08 4.7-.214 3.527-.534 15.824 4.828 22.696a4.093 4.093 0 0 1 1.891-.477c2.324 0 4.212 1.908 4.212 4.264 0 2.352-1.888 4.26-4.212 4.26s-4.208-1.908-4.208-4.26c0-1.054.39-2.004 1.012-2.748-5.435-6.94-5.453-18.549-5.228-23.048-8.076 3.336-16.025 8.065-15.987 13.77v26.846c.295 2.021.816 3.423 1.751 4.366.935.947 2.285 1.434 4.24 1.63h74.017c3.914-.391 5.397-1.954 5.992-5.996V110.34c.038-5.709-7.771-10.442-15.699-13.777z"/>
        <path d="M181 120.461v57.721H88.012L51 141.305c.941.938 2.3 1.421 4.268 1.615h74.506c3.939-.388 5.433-1.936 6.031-5.942V110.38c.039-5.656-7.821-10.346-15.802-13.65l.004-.007-.879-.35-.739-.292c-7.659-2.997-14.95-4.683-14.95-4.683-3.429.138-5.949 15.318-8.107 24.768l-1.735-20.984h.733v-3.784H92.52v-2.923c9.326 0 15.87-10.05 18.075-19.51a1.234 1.234 0 0 0 .923-.268c.386-.321.595-.812.758-1.249.86-2.302 1.143-4.397.842-6.227-.064-.384-.162-.829-.421-1.196a1.364 1.364 0 0 0-.655-.51l.021-.149c.308-4.041-.52-8.336-2.335-12.098-.553-1.143-1.303-2.166-2.173-3.086L181 120.461z" fill-opacity=".16"/>
    </g>
</svg>
