<svg xmlns="http://www.w3.org/2000/svg" width="157" height="165" viewBox="0 0 157 165">
    <g>
        <path fill="#f0f0f0" d="M0 0H157V165H0z" transform="translate(-970 -422) translate(970 422)"/>
        <path fill="#ccc" fill-rule="evenodd" d="M118.69 101.748c-.492-8.854-10.042-14.635-15.607-17.266l-3.938-1.643-7.82-3.263c-3.56-1.393-8.2-3.4-8.2-3.4A26.136 26.136 0 0 0 76 70.137v-6.963c3.56-4.488 3.25-10.677 3.25-10.677l.775.31c2.011 2.165 2.476-.93 2.476-.93a22.108 22.108 0 0 0 2.167-6.963c0-1.238 1.7-6.035 1.7-6.035.62-3.4-3.1-2.785-3.1-2.785 4.8-7.119 0-19.343 0-19.343A22.787 22.787 0 0 0 74.3 5.919C65.167.35 53.093 2.051 53.093 2.051l.62-.774C54.02.35 60.676.04 60.676.04 49.223-.425 46.9 3.366 46.9 3.366 46.437 2.67 49.068.04 49.068.04c-7.12 4.024-6.19 6.654-6.19 6.654-3.716-.734-7.314 3.288-7.314 3.288L38 9.17c-4.18 1.857-3.947 6.847-3.947 6.847l1.7-1.433a10.424 10.424 0 0 0-1.01 1.649C30.61 24.6 36.84 38.415 36.84 38.415c-4.489-6.035-3.87 3.4-3.87 3.4.62.618 1.858 4.487 1.858 4.487.774 2.012 2.012 4.952 2.012 4.952 1.7 4.642 2.941 1.7 2.941 1.7C40.091 59.925 43.187 63 43.187 63l-.155 8.84c-2.942.154-7.585 5.724-7.585 5.724-.495-.082-3.718 1.2-6.619 2.413-1.69.665-3.606 1.456-5.62 2.352a75.8 75.8 0 0 0-9.122 4.371 20.633 20.633 0 0 0-7.3 5.168q-.841.7-1.586 1.425S0 97.837 0 102.789V107h118.69v-5.252" transform="translate(-970 -422) translate(989 480)"/>
    </g>
</svg>
