<svg width="22" height="13" fill="none" xmlns="http://www.w3.org/2000/svg">
    <mask id="a" style="mask-type:alpha" maskUnits="userSpaceOnUse" x="0" y="0" width="22" height="13">
        <path fill-rule="evenodd" clip-rule="evenodd" d="M0 0h21.928v12.163H0V0z" fill="#fff"/>
    </mask>
    <g mask="url(#a)">
        <path fill-rule="evenodd" clip-rule="evenodd" d="M9.418 11.898V.796c0-.354.105-.565.316-.633A5.976 5.976 0 0 1 14 .734a5.99 5.99 0 0 1 2.179 2.006c.554.847.876 1.78.964 2.8a3.344 3.344 0 0 1 1.327-.265 3.34 3.34 0 0 1 2.443 1.01c.677.674 1.016 1.483 1.016 2.429 0 .952-.339 1.765-1.016 2.439-.676.673-1.488 1.01-2.433 1.01l-8.877-.01a.239.239 0 0 1-.138-.113.3.3 0 0 1-.046-.142zm-2.388-.296c0 .374.252.56.755.56.504 0 .755-.186.755-.56V1.398c0-.572-.173-.895-.52-.97-.224-.054-.445.01-.663.194-.218.184-.327.443-.327.776v10.204zm-2.346-.031c0 .197.071.345.214.444a.95.95 0 0 0 .55.148c.218 0 .397-.05.536-.148.14-.099.21-.247.21-.444V5.275a.745.745 0 0 0-.22-.54.709.709 0 0 0-.525-.225.737.737 0 0 0-.541.224.737.737 0 0 0-.224.541v6.296zm-2.337-.327c0 .198.07.346.209.444.14.099.318.148.536.148.224 0 .406-.05.546-.148.14-.098.209-.246.209-.444V4.347a.717.717 0 0 0-.22-.526.729.729 0 0 0-.535-.22.716.716 0 0 0-.526.22.717.717 0 0 0-.22.526v6.897zM0 9.98c0 .272.099.478.296.618.197.139.408.188.632.147.211-.04.36-.115.444-.224.085-.109.128-.29.128-.54V7.02c0-.21-.073-.39-.22-.536a.729.729 0 0 0-.535-.219.717.717 0 0 0-.526.22A.729.729 0 0 0 0 7.02v2.96z" fill="#fff"/>
    </g>
</svg>
